<?xml version="1.0" encoding="UTF-8"?>
<!DOCTYPE svg PUBLIC "-//W3C//DTD SVG 1.1//EN" "http://www.w3.org/Graphics/SVG/1.1/DTD/svg11.dtd">
<!-- Creator: CorelDRAW 2019 (64-Bit) -->
<svg xmlns="http://www.w3.org/2000/svg" xml:space="preserve" width="79.1104mm" height="14.8166mm" version="1.1" style="shape-rendering:geometricPrecision; text-rendering:geometricPrecision; image-rendering:optimizeQuality; fill-rule:evenodd; clip-rule:evenodd"
viewBox="0 0 7911.04 1481.66"
 xmlns:xlink="http://www.w3.org/1999/xlink">
 <defs>
  <style type="text/css">
   <![CDATA[
    .str1 {stroke:#1F1B20;stroke-width:20;stroke-miterlimit:22.9256}
    .str0 {stroke:black;stroke-width:20;stroke-miterlimit:22.9256}
    .fil5 {fill:none}
    .fil3 {fill:#1F1B20}
    .fil4 {fill:black}
    .fil2 {fill:#FFB900}
    .fil0 {fill:#FFCC00}
    .fil1 {fill:#FFDE59}
    .fil7 {fill:black;fill-rule:nonzero}
    .fil6 {fill:#FFCC00;fill-rule:nonzero}
   ]]>
  </style>
 </defs>
 <g id="Layer_x0020_1">
  <metadata id="CorelCorpID_0Corel-Layer"/>
  <g id="_2326150312880">
   <g>
    <g>
     <g>
      <path class="fil0" d="M739.23 754.11l-238.43 -166.88c14.07,-22.01 53.25,-77.65 68.51,-93.61l225.33 157.34c-22.22,31.47 -40.9,66.08 -55.41,103.15z"/>
      <path class="fil1" d="M794.64 650.96l-225.34 -157.34 41.36 -63.94 231.66 164.07c-17.26,17.6 -33.22,36.73 -47.68,57.21z"/>
      <path class="fil2" d="M720.43 812.47l-256.38 -174.99 36.75 -50.25 238.43 166.88c-7.38,18.86 -13.68,38.34 -18.8,58.36z"/>
      <path class="fil3" d="M610.66 429.68l-41.35 63.94 -68.51 93.61 -36.75 50.25 -128.16 -84.88c22.03,-14.68 32.87,-28.56 42.07,-47.96 20.12,-14.09 64.33,-76.12 71.7,-101.02 17.15,-14.92 26.29,-38.1 37.4,-57.91l123.6 83.97z"/>
      <path class="fil0" d="M449.66 403.62c-7.37,24.9 -51.58,86.93 -71.7,101.02l-114.94 -75.04 64.96 -100.24 121.68 74.26z"/>
      <path class="fil2" d="M377.96 504.64c-9.2,19.4 -20.04,33.28 -42.08,47.96l-69.65 -51.84c-23.02,-17.35 -19,-43.66 -3.21,-71.16l114.94 75.04z"/>
      <path class="fil1" d="M487.06 345.71c-11.11,19.81 -20.25,42.98 -37.39,57.9l-121.69 -74.25c14.52,-21.85 46.46,-50.96 79.14,-33.66l79.94 50.01z"/>
     </g>
     <g>
      <polygon class="fil0" points="1550.71,1236.8 1555.93,1258.23 1534.79,1258.83 1373.37,1186.67 1457.88,1178.94 1437.07,1111.88 "/>
      <polygon class="fil1" points="1578.92,1226.66 1574.78,1243.95 1550.71,1236.8 1437.07,1111.88 1492.16,1101.23 1491.38,1081.29 "/>
      <polygon class="fil2" points="1534.79,1258.83 1546.1,1274.71 1390.33,1246.07 1373.37,1186.67 "/>
      <polygon class="fil4" points="1546.1,1274.71 1534.79,1258.83 1555.93,1258.23 1550.71,1236.8 1574.78,1243.95 1578.92,1226.64 1611.5,1286.72 "/>
      <path class="fil0" d="M1437.08 1111.88l20.8 67.06 -84.51 7.73 -68.15 -47.7c20.35,-24.99 37.84,-52.82 51.92,-82.91l79.94 55.82z"/>
      <path class="fil1" d="M1491.39 1081.29l0.78 19.94 -55.09 10.65 -79.93 -55.81c8.23,-17.58 15.27,-35.94 21.05,-54.94l113.19 80.16z"/>
      <path class="fil2" d="M1373.36 1186.67l16.97 59.4 -112.57 -76.84c9.64,-9.54 18.8,-19.64 27.45,-30.26l68.15 47.7z"/>
     </g>
    </g>
    <g>
     <g>
      <path class="fil0" d="M1332.96 742.33l219.96 -153.95c-14.06,-22.01 -53.24,-77.65 -68.51,-93.61l-209.57 146.33c23.06,30.73 42.64,64.73 58.12,101.23z"/>
      <path class="fil1" d="M1274.84 641.11l209.58 -146.34 -41.36 -63.94 -217.81 154.25c17.89,17.15 34.49,35.89 49.59,56.03z"/>
      <path class="fil2" d="M1353.34 799.95l236.34 -161.32 -36.76 -50.25 -219.96 153.95c7.88,18.59 14.71,37.82 20.38,57.62z"/>
      <path class="fil3" d="M1443.06 430.83l41.35 63.94 68.51 93.61 36.76 50.25 128.16 -84.88c-22.04,-14.68 -32.87,-28.56 -42.08,-47.96 -20.12,-14.09 -64.33,-76.12 -71.7,-101.02 -17.14,-14.92 -26.29,-38.1 -37.4,-57.91l-123.6 83.97z"/>
      <path class="fil0" d="M1604.06 404.77c7.37,24.9 51.58,86.93 71.7,101.02l114.94 -75.04 -64.96 -100.24 -121.68 74.26z"/>
      <path class="fil1" d="M1566.66 346.86c11.11,19.81 20.26,42.98 37.39,57.9l121.69 -74.25c-14.52,-21.85 -46.46,-50.96 -79.14,-33.66l-79.94 50.01z"/>
      <path class="fil2" d="M1675.76 505.79c9.21,19.4 20.04,33.28 42.09,47.96l69.65 -51.84c23.01,-17.35 18.99,-43.66 3.2,-71.16l-114.94 75.04z"/>
     </g>
     <g>
      <path class="fil0" d="M617.8 1111.89l-20.8 67.06 84.51 7.73 80.9 -56.62c-19.63,-25.6 -36.36,-53.96 -49.62,-84.5l-94.99 66.33z"/>
      <path class="fil1" d="M563.5 1081.3l-0.78 19.94 55.09 10.65 94.99 -66.33c-7.8,-17.98 -14.39,-36.71 -19.68,-56.06l-129.62 91.8z"/>
      <path class="fil2" d="M681.52 1186.68l-16.97 59.4 124.42 -84.93c-9.35,-9.83 -18.21,-20.21 -26.55,-31.09l-80.9 56.62z"/>
      <polygon class="fil0" points="504.17,1236.81 498.95,1258.24 520.09,1258.84 681.51,1186.68 597,1178.95 617.81,1111.89 "/>
      <polygon class="fil1" points="475.96,1226.67 480.1,1243.96 504.17,1236.81 617.81,1111.89 562.72,1101.24 563.5,1081.3 "/>
      <polygon class="fil2" points="520.09,1258.84 508.78,1274.72 664.55,1246.08 681.51,1186.68 "/>
      <polygon class="fil4" points="508.78,1274.72 520.09,1258.84 498.95,1258.24 504.17,1236.81 480.1,1243.96 475.96,1226.65 443.38,1286.73 "/>
     </g>
    </g>
    <polygon class="fil3" points="1029.45,1361.13 990.23,1308.37 951.02,1255.61 1029.45,1255.61 1107.88,1255.61 1068.67,1308.37 "/>
    <circle class="fil3 str0" cx="1037.33" cy="373.39" r="162.06"/>
    <ellipse class="fil0" cx="1037.33" cy="875.99" rx="359.32" ry="394.63"/>
    <path class="fil3" d="M722.79 685.12l629.08 0c-23.38,-46.38 -55,-87.05 -92.71,-119.6l-443.66 0c-37.71,32.55 -69.33,73.22 -92.71,119.6z"/>
    <path class="fil3" d="M815.5 1186.46l443.66 0c37.72,-32.55 69.33,-73.23 92.71,-119.6l-629.08 0c23.38,46.37 54.99,87.05 92.71,119.6z"/>
    <path class="fil3" d="M682.11 935.79l710.44 0c2.7,-19.5 4.1,-39.47 4.1,-59.8 0,-20.33 -1.4,-40.3 -4.1,-59.8l-710.44 0c-2.7,19.5 -4.1,39.47 -4.1,59.8 0,20.33 1.4,40.3 4.1,59.8z"/>
    <path class="fil5 str1" d="M895.3 134.6c1.34,-0.17 2.67,-0.26 4.01,-0.26 31.05,0 56.22,44.91 56.22,100.31"/>
    <path class="fil5 str1" d="M1175.35 134.34c-1.34,-0.17 -2.67,-0.26 -4.01,-0.26 -31.05,0 -56.22,44.91 -56.22,100.31"/>
    <ellipse class="fil3 str0" cx="899.31" cy="134.34" rx="13.76" ry="13.82"/>
    <ellipse class="fil3 str0" cx="1175.35" cy="134.34" rx="13.76" ry="13.82"/>
   </g>
   <g>
    <path class="fil6" d="M2533.59 897.56c28.66,0 56.37,-21.48 83.39,-64.64 27,-42.97 40.63,-100.51 40.63,-172.44 0,-32.32 -7.28,-69.5 -22.08,-111.35 -14.57,-41.66 -39.92,-78.09 -76.09,-108.92 -35.94,-30.82 -85.74,-46.14 -149.62,-46.14 -58.72,0 -105.92,9.34 -141.39,27.84 -35.46,18.68 -62.7,41.66 -81.26,68.93 -18.56,27.47 -31.24,54.74 -38.52,81.83 -7.05,27.28 -10.81,50.07 -11.28,68.75 -0.46,18.69 -0.7,27.84 -0.7,27.84 0,2.99 0,20.74 0,53.25 0,32.32 0,71.92 0,118.44 0,46.52 0,90.99 0,133.21 0,68.57 15.26,117.14 45.8,145.35 30.53,28.21 64.59,45.4 102.41,51.38 38.04,6.16 70.22,8.4 96.76,6.91 4.22,0 7.74,0 11.04,0 22.54,0 54.02,-3.55 94.65,-10.65 40.63,-7.1 77.74,-20.74 111.32,-40.73 33.83,-20.17 53.32,-48.95 58.96,-86.5 2.35,-26.71 -0.48,-48.76 -7.98,-66.32 -7.52,-17.56 -17.63,-31.39 -30.3,-41.48 -12.46,-10.27 -25.37,-17.93 -38.52,-22.79 -13.16,-4.86 -24.2,-8.03 -33.35,-9.53 -9.17,-1.49 -13.87,-2.24 -13.87,-2.24zm-176.62 170.2c-17.61,0 -30.29,-2.8 -38.28,-8.78 -7.98,-5.79 -11.98,-16.82 -11.98,-32.88 0,-15.88 4.7,-26.91 14.1,-32.51 9.39,-5.6 21.37,-8.41 36.16,-8.41 6.82,0 19.74,0.75 38.76,2.43 19.02,1.68 36.87,5.05 53.32,10.46 16.44,5.23 24.89,13.27 24.89,24.29 0,11.77 -7.52,20.74 -22.54,27.46 -14.8,6.54 -31.48,11.21 -50.27,13.83 -18.55,2.8 -33.34,4.11 -44.16,4.11zm0.48 -225.5c-10.81,-1.12 -19.96,-4.86 -27.01,-11.21 -7.28,-6.35 -10.8,-13.82 -10.8,-22.23l0 -153.76c0,-30.64 3.52,-54.74 10.33,-72.3 7.04,-17.37 15.02,-30.26 24.19,-38.48 9.16,-8.22 17.85,-13.27 26.07,-15.32 8.22,-2.06 13.86,-2.99 16.44,-2.99 2.34,0 6.34,0.56 12.21,1.87 5.63,1.3 12.22,4.67 19.5,10.46 7.28,5.6 14.56,14.76 21.37,27.27 6.82,12.71 12.69,29.9 17.15,52.13 4.69,22.04 7.04,50.25 7.04,84.44 0,42.79 -6.58,74.36 -19.26,94.72 -12.91,20.37 -28.41,33.63 -46.26,39.61 -17.85,6.17 -34.76,8.03 -50.97,5.79zm770.13 177.3c-15.51,-6.91 -29.36,-8.41 -41.34,-4.3 -11.74,3.93 -23.95,10.46 -36.4,19.06 -12.46,8.41 -26.78,16.63 -43.22,24.47 -16.67,7.85 -38.05,11.77 -64.11,11.77 -21.15,0 -38.3,-2.8 -51.67,-8.59 -13.17,-5.61 -23.5,-12.52 -30.78,-20.74 -7.52,-8.22 -12.68,-16.25 -15.5,-24.29 -3.05,-8.03 -4.7,-14.94 -5.17,-20.55 -0.46,-5.6 -0.7,-8.59 -0.7,-8.59 96.3,0 167.69,-10.09 213.97,-30.27 46.26,-20.36 76.56,-43.15 90.43,-68.38 14.09,-25.4 20.89,-45.77 20.89,-61.09 0,-15.69 -4.93,-37.55 -14.8,-65.76 -9.63,-28.02 -29.35,-53.62 -58.95,-76.6 -29.59,-22.98 -74.22,-34.37 -133.87,-34.37 -73.98,0 -141.86,22.6 -203.63,67.81 -62.01,45.22 -93.01,106.12 -93.01,182.91 0,76.59 20.91,141.8 62.95,195.6 42.04,53.81 109.68,80.71 203.39,80.71 93.95,0 165.34,-18.87 213.97,-56.42 48.61,-37.55 44.39,-71.74 -12.45,-102.38zm-132 -232.6c15.04,18.68 16.91,35.12 5.41,49.32 -11.52,14.2 -29.13,25.79 -53.32,34.38 -23.96,8.78 -47.2,14.2 -69.05,15.88 -22.08,1.87 -35.93,-0.19 -41.34,-5.98 -6.81,-13.08 -0.7,-30.64 18.56,-52.5 19.26,-21.86 42.74,-38.67 70.22,-50.44 27.48,-11.58 50.73,-8.41 69.52,9.34zm651.78 232.6c-15.52,-6.91 -29.37,-8.41 -41.35,-4.3 -11.74,3.93 -23.95,10.46 -36.4,19.06 -12.46,8.41 -26.77,16.63 -43.22,24.47 -16.67,7.85 -38.05,11.77 -64.11,11.77 -21.15,0 -38.3,-2.8 -51.67,-8.59 -13.16,-5.61 -23.5,-12.52 -30.78,-20.74 -7.51,-8.22 -12.68,-16.25 -15.5,-24.29 -3.05,-8.03 -4.7,-14.94 -5.16,-20.55 -0.47,-5.6 -0.71,-8.59 -0.71,-8.59 96.3,0 167.69,-10.09 213.97,-30.27 46.26,-20.36 76.56,-43.15 90.43,-68.38 14.09,-25.4 20.89,-45.77 20.89,-61.09 0,-15.69 -4.93,-37.55 -14.8,-65.76 -9.63,-28.02 -29.35,-53.62 -58.94,-76.6 -29.6,-22.98 -74.23,-34.37 -133.88,-34.37 -73.98,0 -141.86,22.6 -203.63,67.81 -62.01,45.22 -93.01,106.12 -93.01,182.91 0,76.59 20.91,141.8 62.95,195.6 42.04,53.81 109.69,80.71 203.39,80.71 93.95,0 165.34,-18.87 213.97,-56.42 48.62,-37.55 44.39,-71.74 -12.44,-102.38zm-132.01 -232.6c15.04,18.68 16.91,35.12 5.41,49.32 -11.52,14.2 -29.13,25.79 -53.32,34.38 -23.96,8.78 -47.2,14.2 -69.05,15.88 -22.08,1.87 -35.93,-0.19 -41.34,-5.98 -6.81,-13.08 -0.7,-30.64 18.56,-52.5 19.26,-21.86 42.74,-38.67 70.22,-50.44 27.48,-11.58 50.73,-8.41 69.52,9.34zm3505.45 390.28c31.24,0 53.09,-18.68 65.54,-56.42 12.45,-37.55 19.72,-77.72 22.08,-120.32 2.11,-42.78 2.81,-74.91 1.87,-96.4 0,-3.55 0,-6.72 0,-9.34 0,-96.96 -34.76,-167.96 -104.04,-213.17 -69.52,-45.02 -144.21,-34.37 -224.07,32.14 0,0 -0.46,-2.25 -1.4,-6.54 -0.95,-4.49 -2.82,-9.72 -5.41,-15.7 -2.82,-5.97 -6.81,-12.14 -11.74,-18.3 -5.17,-6.17 -11.5,-11.4 -19.26,-15.7 -7.75,-4.11 -17.38,-6.16 -28.89,-6.16 -49.56,0 -83.14,9.52 -100.76,28.58 -17.85,19.24 -26.54,66.7 -26.54,142.74 0,8.03 0,15.88 0,23.54 -1.87,111.16 0.94,192.8 8.46,244.55 7.74,51.94 28.65,80.33 62.95,85.38 34.52,5.23 60.35,2.24 77.5,-8.78 17.15,-10.84 26.54,-25.97 27.95,-45.4 0.94,-15.69 1.64,-36.25 2.59,-61.47 0.93,-25.4 1.87,-51.19 2.81,-77.53 0.95,-26.34 1.65,-48.57 2.11,-66.7 0.47,-18.3 0.71,-27.46 0.71,-27.46 0.46,-21.86 4.46,-44.09 11.98,-66.7 7.52,-22.6 23.02,-34 46.5,-34 22.54,0 44.39,7.85 66,23.36 21.61,15.5 32.41,41.28 32.41,77.34 0,34.38 -0.7,65.95 -2.11,94.72 -4.24,64.27 -2.11,112.66 6.11,144.98 8.21,32.51 37.34,48.76 86.65,48.76zm612.09 -268.09c0,-13.27 -0.71,-34.57 -2.35,-64.09 -1.65,-29.51 -6.58,-60.15 -14.8,-91.91 -8.22,-31.76 -21.61,-59.23 -39.93,-82.21 -18.31,-22.98 -44.16,-34.37 -77.04,-34.37 -13.85,0 -25.36,0.37 -34.76,1.49 -9.39,1.12 -17.14,2.8 -23.48,4.67 -6.11,2.06 -11.04,4.3 -14.8,6.54 -3.53,2.43 -6.34,4.86 -7.99,7.29 -1.41,2.24 -2.34,4.48 -2.58,6.54 -0.24,1.86 -0.24,3.55 0,4.85 0.24,1.31 0.24,1.87 0.24,1.87 0,0 -6.35,-2.05 -18.79,-6.16 -12.69,-4.3 -28.89,-7.66 -48.62,-10.28 -19.74,-2.43 -41.11,-1.68 -63.89,2.62 -23.02,4.11 -45.33,14.01 -67.17,29.7 -21.85,15.7 -40.63,39.61 -56.83,71.74 -15.98,32.14 -27.02,75.11 -32.89,129.1 -8.69,131.52 19.5,218.02 84.8,260.06 65.52,42.04 136.69,34.56 213.72,-22.42 0,40.17 -5.16,66.14 -15.74,78.28 -10.57,11.96 -26.53,20.74 -47.44,26.34 -16.21,3.55 -36.41,3.37 -60.6,-0.56 -22.07,-3.73 -43.22,-4.48 -63.65,-2.61 -20.42,2.05 -35.46,13.26 -45.09,33.81 -8.22,16.63 -11.04,32.51 -8.69,47.46 2.58,15.13 17.86,27.27 45.8,36.8 27.95,9.53 77.27,14.2 147.97,14.2 58.71,0 105.22,-15.32 139.28,-45.77 34.28,-30.46 59.89,-67.82 76.8,-112.1 16.91,-44.46 28.18,-88.55 33.35,-132.83 5.39,-44.09 7.51,-81.46 6.58,-112.1 -0.95,-30.64 -1.41,-45.95 -1.41,-45.95zm-180.86 8.59c-0.94,11.77 -3.98,27.46 -9.15,47.45 -4.94,19.81 -12.46,37.74 -22.55,53.81 -10.1,16.07 -23.26,24.1 -39.22,24.1 -24.43,-1.68 -44.16,-16.07 -59.19,-42.97 -15.26,-26.72 -21.13,-61.84 -17.85,-105.37 4.46,-41.85 16.2,-70.43 35,-85.57 18.78,-15.13 40.63,-21.67 65.29,-19.43 18.78,1.87 31.93,11.03 38.99,27.28 7.04,16.44 10.57,34.38 10.57,53.99 0,19.43 -0.7,35.13 -1.89,46.71z"/>
    <path class="fil7" d="M3854.04 393.51c42.28,0 69.29,24.66 80.8,74.17 11.74,49.32 15.5,108.36 11.04,177.11 -4.24,68.56 -10.81,133.95 -19.5,196.35 -5.63,43.53 -9.39,79.78 -11.74,108.92 -2.35,29.33 -0.48,46.89 5.4,53.06 7.04,5.23 19.26,7.47 37.34,7.28 17.85,-0.37 38.52,-1.86 61.78,-4.48 30.3,-3.55 60.59,-5.6 90.89,-5.98 30.3,-0.37 55.89,4.3 76.8,14.01 20.91,9.53 31.24,28.4 31.24,56.61 0,34.19 -27.02,61.28 -81.27,80.9 -54.01,19.8 -113.91,28.58 -179.44,26.34 -65.76,-2.24 -119.78,-18.31 -162.52,-48.2 -27.95,-23.35 -48.86,-55.68 -62.48,-97.15 -13.86,-41.29 -22.78,-83.88 -27.01,-127.23 -3.99,-43.34 -5.87,-80.52 -5.16,-111.35 0.7,-30.82 1.17,-46.33 1.17,-46.33 0,0 1.18,-11.96 3.29,-36.06 2.35,-24.1 6.8,-53.61 13.15,-88.74 6.33,-34.93 15.5,-69.87 26.78,-104.81 11.5,-34.75 26.3,-64.26 44.15,-88.36 17.85,-24.11 39.69,-36.06 65.29,-36.06zm834.03 626.05c-15.52,-6.91 -29.37,-8.41 -41.35,-4.3 -11.74,3.93 -23.95,10.46 -36.4,19.06 -12.46,8.41 -26.77,16.63 -43.22,24.47 -16.67,7.85 -38.05,11.77 -64.11,11.77 -21.15,0 -38.3,-2.8 -51.67,-8.59 -13.16,-5.61 -23.5,-12.52 -30.78,-20.74 -7.51,-8.22 -12.68,-16.25 -15.5,-24.29 -3.05,-8.03 -4.7,-14.94 -5.16,-20.55 -0.47,-5.6 -0.71,-8.59 -0.71,-8.59 96.3,0 167.69,-10.09 213.97,-30.27 46.26,-20.36 76.56,-43.15 90.43,-68.38 14.09,-25.4 20.89,-45.77 20.89,-61.09 0,-15.69 -4.93,-37.55 -14.8,-65.76 -9.63,-28.02 -29.35,-53.62 -58.94,-76.6 -29.6,-22.98 -74.23,-34.37 -133.88,-34.37 -73.98,0 -141.86,22.6 -203.63,67.81 -62.01,45.22 -93.01,106.12 -93.01,182.91 0,76.59 20.91,141.8 62.95,195.6 42.04,53.81 109.69,80.71 203.39,80.71 93.95,0 165.34,-18.87 213.97,-56.42 48.62,-37.55 44.39,-71.74 -12.44,-102.38zm-132.01 -232.6c15.04,18.68 16.91,35.12 5.41,49.32 -11.52,14.2 -29.13,25.79 -53.32,34.38 -23.96,8.78 -47.2,14.2 -69.05,15.88 -22.08,1.87 -35.93,-0.19 -41.34,-5.98 -6.81,-13.08 -0.7,-30.64 18.56,-52.5 19.26,-21.86 42.74,-38.67 70.22,-50.44 27.49,-11.58 50.73,-8.41 69.52,9.34zm690.3 122.19c0,-13.27 -0.95,-34.57 -2.82,-64.09 -1.89,-29.51 -6.81,-60.15 -15.04,-91.91 -8.22,-31.76 -21.61,-59.23 -39.68,-82.21 -18.09,-22.98 -43.69,-34.37 -76.58,-34.37 -13.85,0 -25.59,0.37 -35.22,1.49 -9.63,1.12 -17.63,2.8 -23.73,4.67 -6.11,2.06 -11.03,4.3 -14.33,6.54 -3.52,2.43 -6.11,4.86 -7.74,7.29 -1.65,2.24 -2.59,4.48 -3.06,6.54 -0.47,1.86 -0.47,3.55 -0.23,4.85 0.23,1.31 0.23,1.87 0.23,1.87 0,0 -6.11,-2.05 -18.55,-6.16 -12.45,-4.3 -28.43,-7.66 -48.15,-10.28 -19.73,-2.43 -41.11,-1.68 -63.89,2.62 -23.02,4.11 -45.32,14.01 -67.17,29.7 -21.84,15.7 -40.63,39.61 -56.84,71.74 -15.97,32.14 -27.01,75.11 -32.88,129.1 -9.63,132.08 18.55,220.08 84.55,263.61 66,43.72 145.38,34.94 238.16,-25.97 0,0 0.46,2.06 1.17,6.35 0.94,4.11 3.29,9.16 7.05,14.95 3.52,5.79 9.39,11.58 17.38,17 8.22,5.42 18.79,9.71 32.42,12.89 13.61,2.99 30.76,3.74 51.89,1.87 23.96,-3.92 41.11,-23.17 51.45,-57.73 10.33,-34.56 16.44,-71.93 18.79,-112.28 2.34,-40.17 3.28,-71.37 2.82,-93.23 0,-1.49 0,-3.17 0,-4.85zm-181.8 8.59c-0.71,11.77 -3.75,27.46 -8.91,47.45 -4.95,19.81 -12.46,37.74 -22.56,53.81 -10.09,16.07 -23.02,24.1 -38.52,24.1 -24.89,-1.68 -44.85,-16.07 -59.89,-42.97 -15.26,-26.72 -21.13,-61.84 -17.85,-105.37 4.46,-41.85 16.21,-70.43 35,-85.57 18.78,-15.13 40.63,-21.67 65.3,-19.43 19.26,1.87 32.41,11.03 39.22,27.28 7.04,16.44 10.33,34.38 10.33,53.99 0,19.43 -0.7,35.13 -2.12,46.71zm615.36 -78.28c47.45,-23.54 63.19,-56.05 47.69,-96.96 -15.74,-41.1 -49.09,-69.5 -100.29,-85.19 -50.97,-15.7 -106.87,2.98 -167.46,55.86 0,0 -0.47,-2.25 -1.41,-6.36 -0.94,-4.11 -2.82,-9.34 -5.41,-15.5 -2.81,-6.35 -6.81,-12.33 -11.74,-18.5 -5.16,-5.98 -11.5,-11.02 -19.26,-15.32 -7.74,-4.11 -17.37,-6.16 -28.89,-6.16 -49.55,0 -83.13,9.52 -100.76,28.58 -17.85,19.24 -26.54,66.51 -26.54,142.17 0,8.04 0,15.88 0,23.54 -1.87,111.17 0.95,192.81 8.46,244.56 7.75,51.94 28.66,80.33 62.95,85.38 34.52,5.6 60.36,2.8 77.5,-8.22 17.15,-10.84 26.54,-25.97 27.95,-45.4 0.94,-15.69 1.65,-36.25 2.59,-61.84 0.93,-25.6 1.87,-51.38 2.82,-77.35 0.94,-26.15 1.64,-48.38 2.11,-66.88 0.46,-18.31 0.7,-27.65 0.7,-27.65 0.47,-21.86 4.47,-44.09 11.98,-66.51 7.52,-22.42 23.02,-33.63 46.51,-33.63 8.22,0 16.2,2.43 23.96,7.1 7.98,4.86 15.96,10.65 24.18,17.56 14.1,12.33 31.01,22.61 50.27,30.64 19.26,8.04 43.2,6.73 72.09,-3.92zm481.72 337.78c31.24,0 53.09,-18.68 65.54,-56.42 12.44,-37.55 19.72,-77.72 22.07,-120.32 2.11,-42.78 2.82,-74.91 1.87,-96.4 0,-3.55 0,-6.72 0,-9.34 0,-96.96 -34.76,-167.96 -104.04,-213.17 -69.52,-45.02 -144.21,-34.37 -224.06,32.14 0,0 -0.47,-2.25 -1.41,-6.54 -0.94,-4.49 -2.81,-9.72 -5.4,-15.7 -2.82,-5.97 -6.82,-12.14 -11.75,-18.3 -5.16,-6.17 -11.5,-11.4 -19.26,-15.7 -7.74,-4.11 -17.37,-6.16 -28.89,-6.16 -49.55,0 -83.13,9.52 -100.76,28.58 -17.85,19.24 -26.53,66.7 -26.53,142.74 0,8.03 0,15.88 0,23.54 -1.88,111.16 0.94,192.8 8.46,244.55 7.74,51.94 28.65,80.33 62.94,85.38 34.52,5.23 60.36,2.24 77.51,-8.78 17.14,-10.84 26.53,-25.97 27.94,-45.4 0.94,-15.69 1.65,-36.25 2.59,-61.47 0.93,-25.4 1.87,-51.19 2.82,-77.53 0.94,-26.34 1.64,-48.57 2.11,-66.7 0.46,-18.3 0.7,-27.46 0.7,-27.46 0.47,-21.86 4.47,-44.09 11.98,-66.7 7.52,-22.6 23.02,-34 46.51,-34 22.54,0 44.39,7.85 66,23.36 21.61,15.5 32.41,41.28 32.41,77.34 0,34.38 -0.71,65.95 -2.12,94.72 -4.23,64.27 -2.11,112.66 6.11,144.98 8.21,32.51 37.34,48.76 86.66,48.76zm371.34 -77.16c0,-14.95 -6.34,-33.07 -19.02,-54.18 -12.69,-21.11 -33.12,-31.76 -61.54,-31.76 -18.79,0 -33.59,5.23 -44.39,15.69 -10.8,10.28 -18.32,22.05 -22.78,34.94 -4.22,12.89 -6.57,23.73 -6.57,31.95 0,21.67 6.57,40.73 19.72,57.35 12.92,16.44 31,24.85 54.02,24.85 30.76,0 51.91,-9.34 63.18,-28.21 11.51,-18.87 17.38,-35.68 17.38,-50.63z"/>
   </g>
  </g>
 </g>
</svg>
