<?xml version="1.0" encoding="UTF-8"?>
<!DOCTYPE svg PUBLIC "-//W3C//DTD SVG 1.1//EN" "http://www.w3.org/Graphics/SVG/1.1/DTD/svg11.dtd">
<!-- Creator: CorelDRAW 2019 (64-Bit) -->
<svg xmlns="http://www.w3.org/2000/svg" xml:space="preserve" width="169.333mm" height="147.537mm" version="1.1" style="shape-rendering:geometricPrecision; text-rendering:geometricPrecision; image-rendering:optimizeQuality; fill-rule:evenodd; clip-rule:evenodd"
viewBox="0 0 16933.32 14753.74"
 xmlns:xlink="http://www.w3.org/1999/xlink"
 xmlns:dc="http://purl.org/dc/elements/1.1/"
 xmlns:cc="http://creativecommons.org/ns#"
 xmlns:rdf="http://www.w3.org/1999/02/22-rdf-syntax-ns#"
 xmlns:svg="http://www.w3.org/2000/svg"
 xmlns:sodipodi="http://sodipodi.sourceforge.net/DTD/sodipodi-0.dtd"
 xmlns:inkscape="http://www.inkscape.org/namespaces/inkscape"
 sodipodi:docname="emailpage.svg"
 inkscape:version="0.92.4 (5da689c313, 2019-01-14)">
 <defs>
  <style type="text/css">
   <![CDATA[
    .str0 {stroke:#E0E0E0;stroke-width:41.27;stroke-miterlimit:22.9256}
    .fil1 {fill:none}
    .fil12 {fill:none;fill-rule:nonzero}
    .fil18 {fill:#FFB900}
    .fil17 {fill:#FFE16A}
    .fil10 {fill:black;fill-rule:nonzero}
    .fil14 {fill:#00222B;fill-rule:nonzero}
    .fil15 {fill:#37474F;fill-rule:nonzero}
    .fil9 {fill:#455A64;fill-rule:nonzero}
    .fil8 {fill:#E0E0E0;fill-rule:nonzero}
    .fil2 {fill:#EBEBEB;fill-rule:nonzero}
    .fil3 {fill:#EF7F1A;fill-rule:nonzero}
    .fil0 {fill:whitesmoke;fill-rule:nonzero}
    .fil16 {fill:#F7A806;fill-rule:nonzero}
    .fil7 {fill:#FAFAFA;fill-rule:nonzero}
    .fil5 {fill:#FFB900;fill-rule:nonzero}
    .fil13 {fill:#FFCC00;fill-rule:nonzero}
    .fil6 {fill:#FFDE59;fill-rule:nonzero}
    .fil4 {fill:white;fill-rule:nonzero}
    .fil11 {fill:black;fill-rule:nonzero;fill-opacity:0.101961}
   ]]>
  </style>
      <clipPath id="id0">
       <path d="M123.46 91.11l16686.4 0 0 14583.62 -16686.4 0 0 -14583.62z"/>
      </clipPath>
      <clipPath id="id1">
       <path d="M123.46 91.11l16686.4 0 0 14583.62 -16686.4 0 0 -14583.62z"/>
      </clipPath>
       <clipPath id="id2" style="clip-rule:nonzero">
        <path d="M6366.8 1451.51l2462.71 0 0 1646.38 -2462.71 0 0 -1646.38z"/>
       </clipPath>
       <clipPath id="id3" style="clip-rule:nonzero">
        <path d="M4517.51 4880.19l4871.79 0 0 6567.56 -4871.79 0 0 -6567.56z"/>
       </clipPath>
      <clipPath id="id4" style="clip-rule:nonzero">
       <path d="M123.46 91.11l16686.4 0 0 14583.62 -16686.4 0 0 -14583.62z"/>
      </clipPath>
 </defs>
 <g id="Layer_x0020_1">
  <metadata id="CorelCorpID_0Corel-Layer"/>
  <sodipodi:namedview pagecolor="#ffffff" bordercolor="#666666" borderopacity="1" objecttolerance="10" gridtolerance="10" guidetolerance="10" inkscape:pageopacity="0" inkscape:pageshadow="2" inkscape:window-width="1024" inkscape:window-height="705" id="namedview12" showgrid="false" inkscape:zoom="0.56851383" inkscape:cx="415.41023" inkscape:cy="327.38198" inkscape:window-x="-8" inkscape:window-y="-8" inkscape:window-maximized="1" inkscape:current-layer="g18"/>
  <g id="g18" inkscape:groupmode="layer" inkscape:label="2853457">
   <g id="g984">
    <g id="g20">
     <g>
     </g>
     <g>
     </g>
     <g style="clip-path:url(#id0)">
      <g>
       <path id="path30" class="fil0" d="M2614.96 13213.64c3131.18,1600.87 8207.83,1600.91 11338.91,0.04 3131.18,-1600.91 3131.18,-4196.43 0,-5797.3 -3131.11,-1600.91 -8207.76,-1600.91 -11338.95,-0.04 -3131.14,1600.87 -3131.14,4196.43 0.04,5797.3z" inkscape:connector-curvature="0"/>
      </g>
     </g>
     <polygon class="fil1" points="123.46,91.11 16809.86,91.11 16809.86,14674.73 123.46,14674.73 "/>
     <polygon class="fil1" points="123.46,91.11 16809.86,91.11 16809.86,14674.73 123.46,14674.73 "/>
    </g>
    <g id="g32">
     <g>
     </g>
     <g>
     </g>
     <g style="clip-path:url(#id1)">
      <g>
       <path id="path42" class="fil2" d="M12855.28 10656.14c171.59,99.06 508.85,64.98 753.29,-76.16l1408.82 -818.2c244.44,-141.15 303.18,-335.99 131.2,-435.29 -171.98,-99.27 -509.48,-65.26 -753.82,75.95l-1407.76 818.62c-244.33,141.22 -303.32,336.02 -131.73,435.08z" inkscape:connector-curvature="0"/>
       <polygon id="path46" class="fil2" points="4373.8,11410.69 2940.79,10583.35 4373.8,9755.98 " inkscape:connector-curvature="0"/>
       <polygon id="path50" class="fil2" points="8423.96,11905.68 6114.33,10571.33 8424.53,9239.59 " inkscape:connector-curvature="0"/>
      </g>
     </g>
     <polygon class="fil1" points="123.46,91.11 16809.86,91.11 16809.86,14674.73 123.46,14674.73 "/>
     <polygon class="fil1" points="123.46,91.11 16809.86,91.11 16809.86,14674.73 123.46,14674.73 "/>
    </g>
    <g id="g60">
     <path id="path62" class="fil3" d="M2435.28 9476.26c4.02,-335.17 -230.04,-1032.36 -572.63,-1471.75 -342.58,-439.38 -885.61,-764.15 -1275.68,-635.95 -363.25,119.41 -329.77,594.5 105.41,914.33 435.19,319.79 1090.26,722.8 1276.74,1268.83l397.02 671.94 69.14 -747.4z" inkscape:connector-curvature="0"/>
    </g>
    <g id="g80">
     <path id="path82" class="fil4" d="M2454.51 9935.22c-10.69,-0.99 -19.83,-8.96 -21.84,-19.97 -210.68,-1146.88 -1125.08,-2087.99 -1676.61,-2300.15 -12.59,-4.83 -18.94,-19.01 -14.08,-31.64 4.8,-12.56 18.7,-19.16 31.64,-14.08 562.05,216.19 1493.35,1172.78 1707.24,2337.02 2.44,13.3 -6.38,26.03 -19.65,28.5 -2.29,0.43 -4.51,0.5 -6.7,0.32z" inkscape:connector-curvature="0"/>
    </g>
    <g id="g84">
     <path id="path86" class="fil5" d="M2275.07 10665.55c-51.58,-189.05 -277.99,-502.74 -647.1,-764.05 -408.34,-289.07 -927.88,-425.98 -1045.32,-648.55 -141.11,-267.41 85.8,-515.69 508.14,-458.15 422.31,57.54 1159.05,643.57 1267.46,1513.84l-83.18 356.91z" inkscape:connector-curvature="0"/>
    </g>
    <g id="g88">
     <path id="path90" class="fil4" d="M2359.28 10468.82c-9.28,-0.85 -17.64,-7.02 -20.92,-16.44 -339.09,-984.43 -1082.82,-1337.45 -1428.64,-1386.59 -13.37,-1.87 -22.68,-14.29 -20.81,-27.69 1.9,-13.44 13.76,-22.75 27.69,-20.81 382.45,54.31 1121.97,414.32 1468.12,1419.14 4.37,12.77 -2.43,26.74 -15.21,31.12 -3.38,1.19 -6.87,1.58 -10.23,1.27z" inkscape:connector-curvature="0"/>
    </g>
    <g id="g92">
     <path id="path94" class="fil5" d="M14943.5 8522.25c0,0 47.02,-706.69 463.47,-1231.23 416.42,-524.58 390.85,-740.62 103.69,-846.49 -287.13,-105.87 -954.09,526.31 -805.68,1372.9 148.42,846.63 238.52,704.82 238.52,704.82z" inkscape:connector-curvature="0"/>
    </g>
    <g id="g112">
     <path id="path114" class="fil4" d="M14816.3 8118.6c-8.64,0 -15.84,-6.7 -16.4,-15.38 -48.65,-778.19 500.94,-1416.68 706.65,-1561.18 7.34,-5.22 17.64,-3.46 22.86,3.99 5.22,7.41 3.46,17.6 -3.99,22.86 -201.68,141.67 -740.55,768.06 -692.75,1532.29 0.56,9.03 -6.31,16.79 -15.38,17.39 -0.32,0.03 -0.67,0.03 -0.99,0.03z" inkscape:connector-curvature="0"/>
    </g>
    <g id="g116">
     <path id="path118" class="fil6" d="M14830.29 9105.8c0,0 250.97,86.96 573.44,138.04 322.47,51.05 464.82,-103.19 464.82,-103.19 0,0 -127,-302.44 -310.13,-387.31 0,0 310.48,63.29 559.68,229.59 0,0 196.92,3 275.31,-297.57 0,0 -116.7,-180.87 -508.14,-278.55 0,0 238.16,-59.94 581.38,27.59 25.72,10.23 135.43,-378.35 168.59,-557.64 33.16,-179.25 -38.84,-177.38 -178.61,-214.7 -139.77,-37.29 -602.65,-141.29 -690.17,-64.42 -87.49,76.87 -131.94,339.69 -131.94,339.69 0,0 -57.64,-155.08 -13.12,-333.09 0,0 -125.8,-49.18 -320.96,7.62 -159.63,46.43 -167.43,155.08 -160.2,277.85 5.29,89.75 26.92,185.38 69.11,311.71 0,0 -124.46,-159.53 -128.31,-505.32 0,0 -326.67,162.28 -382.48,486.55 -30.16,175.26 -72.92,690.21 131.73,923.15z" inkscape:connector-curvature="0"/>
    </g>
    <g id="g120">
     <path id="path122" class="fil4" d="M14891.92 9042.73c6.7,0 13.19,-3.77 16.33,-10.27 260.21,-540.63 1227.74,-1168.86 1574.27,-1236.27 9.81,-1.9 16.26,-11.43 14.36,-21.27 -1.94,-9.84 -11.54,-16.16 -21.27,-14.36 -352.28,68.55 -1335.68,706.9 -1600.02,1256.17 -4.38,9.03 -0.57,19.86 8.43,24.2 2.58,1.24 5.22,1.8 7.9,1.8z" inkscape:connector-curvature="0"/>
    </g>
    <g id="g132">
     <path id="path134" class="fil7" d="M2308.99 10915.51c-40,0 -63.92,-33.06 -63.92,-88.41l0 -5934.04 7267.05 -4195.62 0.04 5910.16c0,90.7 -63.92,201.37 -142.45,246.73l-7002.83 4043.08c-20.5,11.85 -40.53,18.1 -57.89,18.1z" inkscape:connector-curvature="0"/>
    </g>
    <g id="g136">
     <path id="path138" class="fil8" d="M9532.73 661.7l-7308.29 4219.43 0 5945.96c0,69.07 34.43,109.04 84.53,109.04 20.53,0 43.71,-6.7 68.23,-20.85l7002.82 -4043.12c84.38,-48.68 152.75,-167.15 152.75,-264.58l-0.04 -5945.88zm-41.27 71.47l0.04 5874.42c0,82.73 -60.5,187.5 -132.12,228.85l-7002.82 4043.11c-17.36,10.02 -33.83,15.31 -47.59,15.31 -39.05,0 -43.25,-47.41 -43.25,-67.77l0 -5922.12 7225.74 -4171.8z" inkscape:connector-curvature="0"/>
    </g>
    <g id="g140">
     <polygon id="path142" class="fil6" points="2224.45,4881.14 2224.45,5874 9532.66,1654.6 9532.73,661.71 " inkscape:connector-curvature="0"/>
    </g>
    <g id="g144">
     <path id="path146" class="fil7" d="M2797.6 4934.13l0 142.38c0,29.1 20.64,40.99 45.86,26.46l2246.95 -1297.27 -0.03 -248.21 -2246.95 1297.27c-25.22,14.57 -45.83,50.27 -45.83,79.37z" inkscape:connector-curvature="0"/>
    </g>
    <g id="g148">
     <path id="path150" class="fil9" d="M5331.18 3418.46c25.33,-14.64 45.83,-2.79 45.83,26.46l0 142.38c0,29.21 -20.5,64.77 -45.83,79.37l-240.77 139.03 -0.04 -248.21 240.81 -139.03z" inkscape:connector-curvature="0"/>
    </g>
    <g id="g152">
     <path id="path154" class="fil9" d="M2224.45 4561.11c0,-97.4 68.37,-215.86 152.75,-264.58l7002.74 -4043.04c84.38,-48.72 152.79,-9.24 152.79,88.19l0 320 -7308.28 4219.47 0 -320.04z" inkscape:connector-curvature="0"/>
    </g>
    <g id="g156">
     <path id="path158" class="fil5" d="M8720.48 800.38c-39.55,22.86 -71.65,78.42 -71.65,124.11 0,45.68 32.1,64.24 71.65,41.38 39.58,-22.86 71.65,-78.39 71.65,-124.11 0,-45.72 -32.07,-64.21 -71.65,-41.38z" inkscape:connector-curvature="0"/>
    </g>
    <g id="g160">
     <path id="path162" class="fil5" d="M8947.48 669.14c-39.58,22.86 -71.65,78.42 -71.65,124.14 0,45.68 32.07,64.21 71.65,41.35 39.55,-22.82 71.65,-78.39 71.65,-124.11 0,-45.72 -32.1,-64.21 -71.65,-41.38z" inkscape:connector-curvature="0"/>
    </g>
    <g id="g164">
     <path id="path166" class="fil5" d="M9174.48 537.91c-39.58,22.82 -71.65,78.42 -71.65,124.11 0,45.68 32.07,64.21 71.65,41.38 39.55,-22.86 71.61,-78.42 71.61,-124.11 0,-45.72 -32.07,-64.24 -71.61,-41.38z" inkscape:connector-curvature="0"/>
    </g>
    <g id="g168">
     <g id="g170">
     </g>
     <g id="g194">
      <g>
      </g>
      <g>
      </g>
      <g style="clip-path:url(#id2)">
       <g>
        <path id="path176" class="fil10" d="M7239.88 2301.06c-86.5,49.95 -156.6,171.41 -156.6,271.29 0,99.91 70.1,140.41 156.6,90.45 86.5,-49.92 156.63,-171.38 156.63,-271.29 0.01,-99.9 -70.13,-140.4 -156.63,-90.45z" inkscape:connector-curvature="0"/>
        <path id="path180" class="fil10" d="M6523.41 2714.73c-86.5,49.95 -156.6,171.41 -156.6,271.29 0,99.91 70.1,140.41 156.6,90.45 86.5,-49.92 156.6,-171.38 156.6,-271.29 -0.01,-99.9 -70.1,-140.4 -156.6,-90.45z" inkscape:connector-curvature="0"/>
        <path id="path184" class="fil10" d="M7956.39 1887.37c-86.5,49.95 -156.63,171.41 -156.63,271.29 0,99.91 70.13,140.41 156.63,90.49 86.5,-49.95 156.6,-171.41 156.6,-271.32 0,-99.91 -70.1,-140.41 -156.6,-90.46z" inkscape:connector-curvature="0"/>
        <path id="path188" class="fil11" d="M8672.91 1472.91c-86.5,49.95 -156.6,171.41 -156.6,271.29 0,99.91 70.1,140.41 156.6,90.45 86.5,-49.92 156.6,-171.38 156.6,-271.29 -0.01,-99.9 -70.1,-140.4 -156.6,-90.45z" inkscape:connector-curvature="0"/>
       </g>
      </g>
      <polygon class="fil12" points="6366.8,1451.51 8829.51,1451.51 8829.51,3097.89 6366.8,3097.89 "/>
      <polygon class="fil12" points="6366.8,1451.51 8829.51,1451.51 8829.51,3097.89 6366.8,3097.89 "/>
     </g>
    </g>
    <g id="g196">
     <g id="_2868133854832">
      <path id="path198" class="fil8" d="M2950.38 5951.31l1700.67 -981.89c84.38,-48.72 152.75,-9.24 152.75,88.19l0 1632.83c0,97.4 -68.37,215.86 -152.75,264.58l-1700.64 981.94c-84.35,48.72 -152.75,9.21 -152.75,-88.19l-0.04 -1632.87c0,-97.44 68.37,-215.86 152.75,-264.58l0.01 -0.01zm0 0l0 0 0 0z" inkscape:connector-curvature="0"/>
     </g>
    </g>
    <g id="g200">
     <path id="path202" class="fil8" d="M5386.61 4544.82l3563.44 -2057.47c84.35,-48.72 152.75,-9.21 152.75,88.19l0.01 1632.83c0,97.44 -68.37,215.9 -152.75,264.58l-3563.41 2057.51c-84.38,48.72 -152.75,9.21 -152.75,-88.19l-0.04 -1632.87c0,-97.44 68.37,-215.9 152.75,-264.58z" inkscape:connector-curvature="0"/>
    </g>
    <g id="g204">
     <path id="path206" class="fil6" d="M2950.4 8433.33l2703.76 -1561.04c84.35,-48.68 152.75,-14.08 152.79,77.29 0,91.37 -68.4,204.93 -152.75,253.65l-2703.8 1561.04c-84.38,48.68 -152.75,14.11 -152.75,-77.29 0,-91.37 68.37,-204.93 152.75,-253.65z" inkscape:connector-curvature="0"/>
    </g>
    <g id="g208">
     <path id="path210" class="fil6" d="M2950.4 9012.38l2703.76 -1561.01c84.35,-48.72 152.75,-14.11 152.79,77.26 0,91.37 -68.4,204.93 -152.75,253.65l-2703.8 1561.04c-84.38,48.72 -152.75,14.11 -152.75,-77.29 0,-91.37 68.37,-204.93 152.75,-253.65z" inkscape:connector-curvature="0"/>
    </g>
    <g id="g212">
     <path id="path214" class="fil6" d="M2950.4 9591.45l2703.76 -1561.04c84.35,-48.68 152.75,-14.08 152.79,77.29 0,91.37 -68.4,204.93 -152.75,253.65l-2703.8 1561.04c-84.38,48.68 -152.75,14.11 -152.75,-77.29 0,-91.37 68.37,-204.93 152.75,-253.65z" inkscape:connector-curvature="0"/>
    </g>
    <g id="g224">
     <path id="path226" class="fil13" d="M4230.63 7627.92c0,-58.46 41.03,-129.5 91.65,-158.75l4688.8 -2707.08c50.59,-29.21 132.68,-29.21 183.3,0l103.29 59.65c50.62,29.21 91.65,100.29 91.65,158.75l0.01 3594.04c0,58.21 -41.24,129.65 -91.62,158.75l-4688.8 2707.07c-50.45,29.1 -132.89,29.1 -183.34,0l-103.26 -59.62c-50.45,-29.1 -91.69,-100.54 -91.69,-158.75l0.01 -3594.06z" inkscape:connector-curvature="0"/>
    </g>
    <g id="g260">
     <g id="g262">
     </g>
     <g id="g274">
      <g>
      </g>
      <g>
      </g>
      <g style="clip-path:url(#id3)">
       <g id="_2868133849328">
        <path id="path268" class="fil14" d="M4517.52 7687.67l2171.42 811.25c154.76,57.64 328.65,0.42 418.82,-137.9l348.72 -534.21 1923.31 -2946.61 -1853.81 2966.68 1863.34 729.23c-0.46,29.49 -11.25,62.44 -28.61,91.48l-1839.92 -812.38 -405.2 648.47c-93.24,148.73 -281.41,206.83 -441.82,135.71l-288.54 -127.35 -1839.52 2935.68c-17.36,-9.07 -28.19,-29.91 -28.19,-60.25l0 -59.83 1858.72 -2819.58 -1858.72 -820.39z" inkscape:connector-curvature="0"/>
       </g>
      </g>
      <polygon class="fil12" points="4517.51,4880.19 9389.3,4880.19 9389.3,11447.75 4517.51,11447.75 "/>
      <polygon class="fil12" points="4517.51,4880.19 9389.3,4880.19 9389.3,11447.75 4517.51,11447.75 "/>
     </g>
    </g>
    <g id="g284">
     <path id="path286" class="fil7" d="M8386.32 3561.55l0 8251.58c0,97.44 68.4,136.91 152.79,88.19l3706.92 -2140.16c84.31,-48.72 152.75,-167.15 152.75,-264.58l0 -8251.58c0,-97.4 -68.44,-136.88 -152.75,-88.19l-3706.92 2140.16c-84.38,48.72 -152.79,167.18 -152.79,264.58z" inkscape:connector-curvature="0"/>
    </g>
    <g id="g288">
     <path id="path290" class="fil12 str0" d="M8386.32 3561.55l0 8251.58c0,97.44 68.4,136.91 152.79,88.19l3706.92 -2140.16c84.31,-48.72 152.75,-167.15 152.75,-264.58l0 -8251.58c0,-97.4 -68.44,-136.88 -152.75,-88.19l-3706.92 2140.16c-84.38,48.72 -152.79,167.18 -152.79,264.58z" inkscape:connector-curvature="0"/>
    </g>
    <g id="g292">
     <path id="path294" class="fil9" d="M8601.14 3715.31c0,-22.86 17.78,-51.65 39.72,-64.31l422.27 -243.7c21.95,-12.67 39.73,-4.41 39.73,18.45 -0.03,22.82 -17.81,51.61 -39.75,64.27l-422.24 243.74c-21.95,12.66 -39.73,4.37 -39.73,-18.45z" inkscape:connector-curvature="0"/>
    </g>
    <g id="g296">
     <path id="path298" class="fil9" d="M8601.14 3879.62c0,-22.82 17.78,-51.61 39.73,-64.27l422.27 -243.7c21.94,-12.67 39.72,-4.41 39.72,18.41 -0.03,22.83 -17.81,51.61 -39.75,64.28l-422.24 243.73c-21.95,12.67 -39.73,4.41 -39.73,-18.45z" inkscape:connector-curvature="0"/>
    </g>
    <g id="g300">
     <path id="path302" class="fil9" d="M8601.14 4043.95c0,-22.82 17.78,-51.65 39.72,-64.31l422.27 -243.7c21.95,-12.66 39.73,-4.37 39.73,18.45 -0.03,22.83 -17.81,51.61 -39.75,64.28l-422.24 243.73c-21.95,12.67 -39.73,4.41 -39.73,-18.45z" inkscape:connector-curvature="0"/>
    </g>
    <g id="g304">
     <g>
      <path id="path306" class="fil15" d="M11888.97 2135.25c-53.27,30.76 -96.42,5.82 -96.42,-55.67 0,-61.45 43.15,-136.24 96.42,-166.97 53.23,-30.76 96.38,-5.82 96.38,55.67 0,61.45 -43.15,136.21 -96.38,166.97l0 0zm223.13 -207.22l0 -65.9c0,-3.92 -2.89,-5.79 -6.46,-4.16l-50.83 22.89c-3.56,1.59 -7.27,-0.18 -8.43,-3.92 -2.96,-9.34 -6.77,-17.74 -11.33,-25.22 -2.08,-3.32 -2.54,-8.78 -0.77,-12.28l33.83 -68.26c1.76,-3.53 0.42,-7.97 -3,-9.95l-36.72 -21.23c-3.43,-1.94 -7.94,-0.89 -10.13,2.4l-42.19 63.46c-2.19,3.25 -7.09,5.57 -11.04,5.47 -8.75,-0.21 -17.92,0.67 -27.48,2.78 -3.81,0.85 -7.2,-1.48 -7.62,-5.36l-5.54 -55.45c-0.43,-3.92 -3.49,-5.47 -6.88,-3.5l-57.12 32.92c-3.35,1.97 -6.42,6.74 -6.77,10.65l-5.71 63.5c-0.36,3.92 -3.04,9.21 -5.93,11.85 -11.11,10.24 -21.7,21.52 -31.68,33.55 -2.54,3.04 -7.51,4.48 -11.25,3.18l-36.62 -12.77c-3.71,-1.31 -8.33,0.42 -10.3,3.81l-41.91 72.67c-2.01,3.42 -1.2,8.26 1.8,10.83l29.38 25.3c3,2.57 4.27,7.62 2.86,11.32 -5.43,14.67 -9.91,29.49 -13.19,44.24 -0.85,3.84 -4.1,8.78 -7.31,11.04l-52.14 36.72c-3.21,2.26 -5.82,7.27 -5.82,11.22l0 65.87c0,3.95 2.93,5.82 6.49,4.2l50.8 -22.9c3.56,-1.62 7.27,0.18 8.47,3.92 2.93,9.35 6.74,17.74 11.29,25.19 2.08,3.35 2.54,8.78 0.81,12.31l-33.87 68.26c-1.76,3.53 -0.42,7.97 3,9.95l36.76 21.2c3.42,1.98 7.9,0.92 10.09,-2.36l42.19 -63.46c2.19,-3.25 7.09,-5.57 11.08,-5.47 8.71,0.21 17.89,-0.67 27.45,-2.79 3.81,-0.85 7.23,1.45 7.62,5.36l5.57 55.46c0.39,3.88 3.49,5.47 6.84,3.53l57.11 -32.95c3.39,-2.01 6.42,-6.74 6.77,-10.69l5.71 -63.46c0.39,-3.95 3.07,-9.21 5.96,-11.85 11.08,-10.23 21.7,-21.52 31.68,-33.58 2.5,-3 7.48,-4.44 11.22,-3.17l36.62 12.81c3.7,1.31 8.33,-0.42 10.3,-3.81l41.95 -72.67c1.99,-3.45 1.18,-8.29 -1.79,-10.86l-29.42 -25.3c-2.96,-2.57 -4.23,-7.65 -2.86,-11.32 5.47,-14.68 9.92,-29.49 13.23,-44.24 0.85,-3.84 4.06,-8.78 7.3,-11.08l52.11 -36.68c3.21,-2.26 5.82,-7.27 5.82,-11.22z" inkscape:connector-curvature="0"/>
     </g>
    </g>
    <g id="g308">
     <g>
      <path id="path310" class="fil9" d="M10392.56 3554.34c433.11,-250.09 784.22,-47.35 784.22,452.75 0,500.17 -351.11,1108.29 -784.22,1358.41 -433.14,250.05 -784.26,47.34 -784.26,-452.83 0,-500.1 351.12,-1108.29 784.26,-1358.34l0 0.01zm0 0l0 0 0 0z" inkscape:connector-curvature="0"/>
     </g>
    </g>
    <g id="g312">
     <path id="path314" class="fil5" d="M10387.05 3947.94c140.48,-81.14 254.42,-15.38 254.42,146.9 0,162.24 -113.95,359.55 -254.42,440.69 -140.51,81.1 -254.46,15.35 -254.46,-146.9 0,-162.28 113.95,-359.59 254.46,-440.69z" inkscape:connector-curvature="0"/>
    </g>
    <g id="g316">
     <path id="path318" class="fil5" d="M10888.45 4813.12c0,-266.59 -187.18,-374.65 -418.01,-241.34l-144.29 83.33c-230.82,133.25 -418,457.41 -418,723.97l0 72.71c41.66,13.86 86.89,20.71 134.73,20.81 105.3,0.21 223.84,-34.47 349.67,-107.1 188.17,-108.66 360.79,-284.97 495.9,-490.57l0 -61.81z" inkscape:connector-curvature="0"/>
    </g>
    <g id="g320">
     <g>
      <path id="path322" class="fil6" d="M9684.66 6109.63l1415.77 -817.39c42.16,-24.34 76.38,-7.06 76.38,38.63 0,45.72 -34.22,102.48 -76.38,126.86l-1415.77 817.36c-42.16,24.38 -76.38,7.06 -76.38,-38.63 0,-45.68 34.22,-102.48 76.38,-126.82l0 -0.01zm0 0l0 0 0 0z" inkscape:connector-curvature="0"/>
     </g>
    </g>
    <g id="g324">
     <path id="path326" class="fil9" d="M9532.73 6694.26l1719.62 -993.88c42.16,-24.34 76.38,-7.06 76.38,38.63 0,45.68 -34.22,102.48 -76.38,126.86l-1719.62 993.85c-42.16,24.37 -76.38,7.09 -76.38,-38.63 0,-45.69 34.22,-102.49 76.38,-126.83z" inkscape:connector-curvature="0"/>
    </g>
    <g id="g328">
     <g>
      <path id="path330" class="fil15" d="M11298.2 6501.58l481.47 -278.02c25.33,-14.6 45.83,-7.94 45.83,14.92 0,22.82 -20.5,53.2 -45.83,67.8l-481.47 278.03c-25.33,14.6 -45.86,7.94 -45.86,-14.92 0,-22.82 20.53,-53.2 45.86,-67.8l0 -0.01zm0 0l0 0 0 0z" inkscape:connector-curvature="0"/>
     </g>
    </g>
    <g id="g332">
     <g>
      <path id="path334" class="fil5" d="M8892.63 7725.19l707.04 -408.2c42.16,-24.38 76.38,-4.62 76.38,44.1l0 485.46c0,48.72 -34.18,107.95 -76.38,132.29l-707.04 408.23c-42.16,24.34 -76.38,4.59 -76.38,-44.1l0.01 -485.49c0,-48.72 34.22,-107.95 76.38,-132.29l-0.01 0zm0 0l0 0 0 0z" inkscape:connector-curvature="0"/>
     </g>
    </g>
    <g id="g336">
     <path id="path338" class="fil7" d="M9005.39 7793.04l481.51 -278.02c25.33,-14.6 45.83,-7.94 45.83,14.92 0,22.82 -20.5,53.2 -45.83,67.84l-481.51 278.02c-25.29,14.61 -45.82,7.91 -45.82,-14.92 0,-22.86 20.53,-53.2 45.82,-67.84z" inkscape:connector-curvature="0"/>
    </g>
    <g id="g340">
     <path id="path342" class="fil7" d="M8959.57 8037.9l0 142.35c0,29.21 20.53,41.06 45.83,26.46l481.51 -278.02c25.33,-14.6 45.83,-50.16 45.83,-79.37l0.04 -142.35c0,-29.25 -20.53,-41.1 -45.83,-26.46l-481.55 278.02c-25.3,14.6 -45.83,50.13 -45.83,79.37z" inkscape:connector-curvature="0"/>
    </g>
    <g id="g344">
     <g>
      <path id="path346" class="fil5" d="M10039.02 7063.32l707.04 -408.2c42.16,-24.34 76.38,-4.62 76.38,44.1l0 485.46c0,48.72 -34.22,107.95 -76.38,132.29l-707.04 408.23c-42.19,24.34 -76.38,4.62 -76.38,-44.1l0.01 -485.49c0,-48.68 34.18,-107.95 76.38,-132.29l-0.01 0zm0 0l0 0 0 0z" inkscape:connector-curvature="0"/>
     </g>
    </g>
    <g id="g348">
     <path id="path350" class="fil7" d="M10151.78 7131.19l481.51 -278.02c25.29,-14.6 45.83,-7.94 45.83,14.92 0,22.82 -20.53,53.2 -45.83,67.84l-481.51 277.98c-25.33,14.65 -45.82,7.94 -45.82,-14.88 0,-22.86 20.49,-53.2 45.82,-67.84z" inkscape:connector-curvature="0"/>
    </g>
    <g id="g352">
     <path id="path354" class="fil7" d="M10151.78 7131.19l0 142.35c0,29.21 20.5,41.06 45.83,26.46l481.51 -278.02c25.29,-14.6 45.83,-50.16 45.83,-79.37l0 -142.38c0.04,-29.21 -20.5,-41.06 -45.83,-26.46l-481.51 278.04c-25.33,14.61 -45.83,50.13 -45.83,79.38z" inkscape:connector-curvature="0"/>
    </g>
    <g id="g356">
     <g>
      <path id="path358" class="fil5" d="M11185.41 6401.43l707.04 -408.2c42.16,-24.38 76.38,-4.62 76.38,44.1l0 485.46c0,48.72 -34.18,107.95 -76.38,132.29l-707.04 408.23c-42.16,24.34 -76.38,4.62 -76.38,-44.1l0.01 -485.49c0,-48.72 34.22,-107.95 76.38,-132.29l-0.01 0zm0 0l0 0 0 0z" inkscape:connector-curvature="0"/>
     </g>
    </g>
    <g id="g360">
     <path id="path362" class="fil7" d="M11298.17 6469.3l481.51 -278.02c25.33,-14.6 45.83,-7.94 45.83,14.92 0,22.82 -20.5,53.2 -45.83,67.8l-481.51 278.03c-25.29,14.6 -45.83,7.94 -45.83,-14.89 0,-22.86 20.53,-53.23 45.83,-67.84z" inkscape:connector-curvature="0"/>
    </g>
    <g id="g364">
     <path id="path366" class="fil7" d="M11252.35 6714.14l0 142.35c0,29.24 20.53,41.1 45.83,26.46l481.51 -278.02c25.33,-14.6 45.83,-50.13 45.83,-79.37l0.04 -142.35c0,-29.25 -20.53,-41.06 -45.83,-26.46l-481.55 278.02c-25.3,14.6 -45.83,50.16 -45.83,79.37z" inkscape:connector-curvature="0"/>
    </g>
    <g id="g368">
     <path id="path370" class="fil8" d="M8969.01 8839.37l2847.06 -1643.77c84.38,-48.72 152.79,-14.11 152.79,77.29 0,91.37 -68.4,204.93 -152.79,253.65l-2847.06 1643.77c-84.38,48.68 -152.75,14.11 -152.75,-77.29 0,-91.37 68.37,-204.96 152.75,-253.65z" inkscape:connector-curvature="0"/>
    </g>
    <g id="g372">
     <path id="path374" class="fil8" d="M8969.01 9501.24l2847.06 -1643.77c84.38,-48.72 152.79,-14.11 152.79,77.29 0,91.37 -68.4,204.93 -152.79,253.65l-2847.06 1643.77c-84.38,48.68 -152.75,14.11 -152.75,-77.29 0,-91.37 68.37,-204.96 152.75,-253.65z" inkscape:connector-curvature="0"/>
    </g>
    <g id="g376">
     <g>
      <path id="path378" class="fil16" d="M9895.74 9793.54l993.6 -573.69c42.19,-24.34 76.38,-4.62 76.38,44.1l0.03 320.04c0,48.68 -34.22,107.91 -76.38,132.29l-993.63 573.66c-42.16,24.38 -76.38,4.62 -76.38,-44.1l0 -320c0,-48.72 34.18,-107.95 76.38,-132.29l0 -0.01zm0 0l0 0 0 0z" inkscape:connector-curvature="0"/>
     </g>
    </g>
    <g id="g380">
     <path id="path382" class="fil7" d="M9031.19 8887.98c-39.55,22.82 -71.65,78.42 -71.65,124.11 0,45.68 32.1,64.21 71.65,41.38 39.58,-22.86 71.65,-78.42 71.65,-124.11 0,-45.72 -32.06,-64.24 -71.65,-41.38z" inkscape:connector-curvature="0"/>
    </g>
    <g id="g384">
     <path id="path386" class="fil7" d="M9258.19 8756.74c-39.58,22.82 -71.65,78.42 -71.65,124.11 0,45.68 32.07,64.24 71.65,41.38 39.55,-22.86 71.65,-78.42 71.65,-124.11 0,-45.72 -32.1,-64.24 -71.65,-41.38z" inkscape:connector-curvature="0"/>
    </g>
    <g id="g388">
     <path id="path390" class="fil7" d="M9485.19 8625.5c-39.58,22.82 -71.65,78.42 -71.65,124.11 0,45.68 32.07,64.24 71.65,41.38 39.55,-22.86 71.61,-78.42 71.61,-124.11 0,-45.72 -32.06,-64.21 -71.61,-41.38z" inkscape:connector-curvature="0"/>
    </g>
    <g id="g392">
     <path id="path394" class="fil7" d="M9712.15 8494.26c-39.55,22.86 -71.65,78.42 -71.65,124.14 0,45.65 32.1,64.21 71.65,41.35 39.58,-22.86 71.65,-78.39 71.65,-124.11 0,-45.72 -32.06,-64.21 -71.65,-41.38z" inkscape:connector-curvature="0"/>
    </g>
    <g id="g396">
     <path id="path398" class="fil7" d="M9939.15 8363.02c-39.58,22.86 -71.65,78.42 -71.65,124.14 0,45.68 32.07,64.21 71.65,41.35 39.55,-22.82 71.65,-78.39 71.65,-124.11 0,-45.69 -32.1,-64.21 -71.65,-41.38z" inkscape:connector-curvature="0"/>
    </g>
    <g id="g400">
     <path id="path402" class="fil7" d="M10166.15 8231.79c-39.58,22.82 -71.65,78.42 -71.65,124.11 0,45.68 32.07,64.21 71.65,41.38 39.55,-22.86 71.61,-78.42 71.61,-124.11 0,-45.72 -32.07,-64.24 -71.61,-41.38z" inkscape:connector-curvature="0"/>
    </g>
    <g id="g404">
     <path id="path406" class="fil7" d="M10393.11 8100.55c-39.55,22.82 -71.61,78.42 -71.61,124.11 0,45.68 32.07,64.21 71.61,41.38 39.58,-22.86 71.65,-78.42 71.65,-124.11 0,-45.72 -32.07,-64.24 -71.65,-41.38z" inkscape:connector-curvature="0"/>
    </g>
    <g id="g408">
     <path id="path410" class="fil7" d="M9031.19 9550.58c-39.55,22.82 -71.65,78.42 -71.65,124.11 0,45.68 32.1,64.24 71.65,41.38 39.58,-22.86 71.65,-78.42 71.65,-124.11 0,-45.72 -32.06,-64.24 -71.65,-41.38z" inkscape:connector-curvature="0"/>
    </g>
    <g id="g412">
     <path id="path414" class="fil7" d="M9258.19 9419.33c-39.58,22.82 -71.65,78.42 -71.65,124.11 0,45.68 32.07,64.24 71.65,41.38 39.55,-22.86 71.65,-78.42 71.65,-124.11 0,-45.72 -32.1,-64.2 -71.65,-41.38z" inkscape:connector-curvature="0"/>
    </g>
    <g id="g416">
     <path id="path418" class="fil7" d="M9485.19 9288.09c-39.58,22.82 -71.65,78.42 -71.65,124.11 0,45.68 32.07,64.24 71.65,41.38 39.55,-22.86 71.61,-78.42 71.61,-124.11 0,-45.72 -32.06,-64.2 -71.61,-41.38z" inkscape:connector-curvature="0"/>
    </g>
    <g id="g420">
     <path id="path422" class="fil7" d="M9712.15 9156.85c-39.55,22.82 -71.65,78.42 -71.65,124.11 0,45.68 32.1,64.24 71.65,41.38 39.58,-22.86 71.65,-78.42 71.65,-124.11 0,-45.68 -32.06,-64.2 -71.65,-41.38z" inkscape:connector-curvature="0"/>
    </g>
    <g id="g424">
     <path id="path426" class="fil7" d="M9939.15 9025.61c-39.58,22.86 -71.65,78.42 -71.65,124.14 0,45.68 32.07,64.21 71.65,41.35 39.55,-22.82 71.65,-78.39 71.65,-124.11 0,-45.68 -32.1,-64.2 -71.65,-41.38z" inkscape:connector-curvature="0"/>
    </g>
    <g id="g428">
     <path id="path430" class="fil7" d="M10166.15 8894.37c-39.58,22.86 -71.65,78.42 -71.65,124.14 0,45.68 32.07,64.21 71.65,41.35 39.55,-22.82 71.61,-78.39 71.61,-124.11 0,-45.68 -32.07,-64.2 -71.61,-41.38z" inkscape:connector-curvature="0"/>
    </g>
    <g id="g432">
     <path id="path434" class="fil7" d="M10393.11 8763.15c-39.55,22.82 -71.61,78.42 -71.61,124.11 0,45.68 32.07,64.21 71.61,41.38 39.58,-22.86 71.65,-78.42 71.65,-124.11 0,-45.72 -32.07,-64.24 -71.65,-41.38z" inkscape:connector-curvature="0"/>
    </g>
    <g id="g436">
     <g>
     </g>
     <g>
     </g>
     <g style="clip-path:url(#id4)">
      <g>
       <path id="path446" class="fil9" d="M14305.74 7877.47c-88.97,0 -182.99,44.7 -240.81,78.07 -402.91,232.62 -743.3,857.43 -743.3,1364.4 0,205.18 57.54,360.93 153.95,416.56 109.71,63.36 262.15,-5.79 343.25,-52.56 402.91,-232.66 743.3,-857.46 743.3,-1364.4 0,-205.21 -57.54,-360.93 -153.95,-416.6 -31.5,-18.17 -66.56,-25.47 -102.44,-25.47l0 0zm-728.87 2377.15c-123.75,0 -241.12,-30.52 -347.42,-91.86 -254.21,-146.79 -400.01,-453.99 -400.01,-842.82 0,-683.79 434.62,-1470.34 989.4,-1790.66 298.73,-172.4 595.38,-191.17 835.45,-52.56 254.25,146.79 400.05,453.99 400.05,842.82 0,683.79 -434.62,1470.31 -989.4,1790.63 -166.48,96.1 -332.28,144.46 -488.07,144.46l0 -0.01zm0 0l0 0 0 0z" inkscape:connector-curvature="0"/>
       <path id="path450" class="fil15" d="M14650.18 8429.01c0,-384.03 -241.97,-526.06 -241.97,-526.06 96.38,55.67 153.92,211.38 153.92,416.6 0,506.94 -340.4,1131.75 -743.27,1364.4 -81.1,46.74 -233.57,115.89 -343.29,52.56 0,0 204.19,126.72 486.27,-27.16 408.45,-222.78 688.34,-773.36 688.34,-1280.34z" inkscape:connector-curvature="0"/>
       <path id="path454" class="fil15" d="M14262.02 3628.2c0,-140.55 -113.91,-254.46 -254.46,-254.46 -140.51,0 -254.46,113.91 -254.46,254.46l0 0.67 0 4046.64c0,37.61 24.84,75.21 74.54,103.89 99.34,57.36 260.46,57.36 359.87,0 49.67,-28.68 74.51,-66.29 74.51,-103.89l0 -4046.64 -0.03 0c0,-0.21 0.03,-0.46 0.03,-0.67z" inkscape:connector-curvature="0"/>
       <path id="path458" class="fil9" d="M14058.76 4532.45c0,-93.73 -65.79,-207.68 -146.93,-254.53 -41.27,-23.85 -78.46,-25.51 -105.16,-9.28l-0.11 -0.21 -627.87 361.74 -15.21 9.03c-2.15,1.09 -4.34,2.19 -6.14,3.63 -10.83,7.23 -20.95,15.56 -30.02,24.59 -37.99,37.64 -61.49,90.06 -61.49,147.6 0,78.88 43.78,147.6 108.16,183.06 29.67,15.91 63.29,24.94 99.45,24.94 35.84,0 69.85,-9.03 99.13,-24.94 3.99,-2.19 7.94,-4.73 11.96,-6.88l631.86 -363.93 -0.11 -0.14c26.22,-15.48 42.48,-48.18 42.48,-94.68z" inkscape:connector-curvature="0"/>
       <path id="path462" class="fil9" d="M14058.76 5545.82c0,-93.73 -65.79,-207.68 -146.93,-254.53 -41.27,-23.85 -78.46,-25.51 -105.16,-9.28l-0.11 -0.21 -735.89 422.59 -15.17 9.07c-2.19,1.09 -4.34,2.15 -6.17,3.6 -10.87,7.27 -20.99,15.56 -30.02,24.62 -37.99,37.61 -61.49,90.06 -61.49,147.57 0,78.88 43.74,147.6 108.13,183.06 29.67,15.91 63.32,24.98 99.52,24.98 35.81,0 69.81,-9.07 99.1,-24.98 4.02,-2.15 7.97,-4.69 11.96,-6.88l739.88 -424.78 -0.11 -0.14c26.2,-15.52 42.46,-48.19 42.46,-94.69z" inkscape:connector-curvature="0"/>
      </g>
     </g>
     <polygon class="fil12" points="123.46,91.11 16809.86,91.11 16809.86,14674.73 123.46,14674.73 "/>
     <polygon class="fil12" points="123.46,91.11 16809.86,91.11 16809.86,14674.73 123.46,14674.73 "/>
    </g>
   </g>
  </g>
  <g>
   <polygon class="fil17" points="8363.82,5469 8363.82,5135.79 4207.99,7550.66 4495.01,7700.66 "/>
   <polygon class="fil18" points="4495.01,7700.66 4207.99,7550.66 4207.99,11333.94 4487.83,11475.06 "/>
  </g>
 </g>
</svg>
