<?xml version="1.0" encoding="UTF-8"?>
<!DOCTYPE svg PUBLIC "-//W3C//DTD SVG 1.1//EN" "http://www.w3.org/Graphics/SVG/1.1/DTD/svg11.dtd">
<!-- Creator: CorelDRAW 2018 (64-Bit Evaluation Version) -->
<svg xmlns="http://www.w3.org/2000/svg" xml:space="preserve" width="150.636mm" height="137.583mm" version="1.1" style="shape-rendering:geometricPrecision; text-rendering:geometricPrecision; image-rendering:optimizeQuality; fill-rule:evenodd; clip-rule:evenodd"
viewBox="0 0 15063.6 13758.32"
 xmlns:xlink="http://www.w3.org/1999/xlink">
 <defs>
  <style type="text/css">
   <![CDATA[
    .str0 {stroke:#00B4B4;stroke-width:7.62;stroke-miterlimit:22.9256}
    .str1 {stroke:#00B4B4;stroke-width:176.39;stroke-miterlimit:10}
    .str2 {stroke:#00A3AD;stroke-width:176.39;stroke-linecap:round;stroke-linejoin:round;stroke-miterlimit:10}
    .str3 {stroke:#00B4B4;stroke-width:176.39;stroke-linecap:round;stroke-linejoin:round;stroke-miterlimit:10}
    .fil9 {fill:none;fill-rule:nonzero}
    .fil5 {fill:#FEFEFE;fill-rule:nonzero}
    .fil0 {fill:#D4D1D1;fill-rule:nonzero}
    .fil1 {fill:#00A5B6;fill-rule:nonzero}
    .fil10 {fill:#313239;fill-rule:nonzero}
    .fil4 {fill:#008889;fill-rule:nonzero}
    .fil6 {fill:#1C5253;fill-rule:nonzero}
    .fil2 {fill:#00B0B2;fill-rule:nonzero}
    .fil3 {fill:#00B4B4;fill-rule:nonzero}
    .fil7 {fill:#FFCC0A;fill-rule:nonzero}
    .fil8 {fill:#FFE315;fill-rule:nonzero}
   ]]>
  </style>
 </defs>
 <g id="Layer_x0020_1">
  <metadata id="CorelCorpID_0Corel-Layer"/>
  <path class="fil0" d="M13293.93 11672.17c0,189.7 -2607.48,343.43 -5823.97,343.43 -3216.49,0 -5824,-153.73 -5824,-343.43 0,-189.65 2607.51,-343.46 5824,-343.46 3216.49,0 5823.97,153.81 5823.97,343.46z"/>
  <path class="fil1" d="M13293.93 8901.88l-7464.67 725.98c-1140.71,186.97 -2476.03,-1290.6 -2182.25,-2414.87l1694.29 -4296.06c836.19,-1931.7 3112.56,-2646.85 5366.84,-865.64l3121.41 2455.97c853.88,676.81 1225.98,1455.67 1237.58,2173.8l0 70.66c-16.58,985.65 -713.1,1845.28 -1773.2,2150.16z"/>
  <path class="fil0" d="M10141.23 10879.73l-8303.86 -2013.23c-1271.11,-308.23 -1742.35,-2179.78 -770.13,-3058.66l5039.83 -3083.2c2007.2,-1372.24 4005.02,-1099.08 5227.99,1425.25l1748.48 3586.06c1114.95,2312.21 -903.26,3833.11 -2942.31,3143.78z"/>
  <path class="fil2" d="M12451.32 9327.37l-8840.54 1706.67c-1353.27,261.26 -2647.3,-1336.29 -2114.77,-2610.84l3424.42 -5186.97c1298.86,-2204.93 3330.54,-2819.22 5637.04,-922.44l3287.22 2689.65c2107.67,1739.69 865.36,4092.82 -1393.37,4323.93z"/>
  <path class="fil3 str0" d="M13071.22 8555.63l-7452 1221.81c-1140.75,187.01 -2476.03,-1290.6 -2182.27,-2414.84l2287.5 -4531.36c836.19,-1931.7 2519.36,-2411.58 4773.65,-630.37l3210.91 2526.38c2060.75,1633.43 1293.32,3700 -637.79,3828.38z"/>
  <path class="fil1" d="M6380.5 4853.76c-48.74,0 -118.16,-16.46 -163.94,-16.46 0,-65.84 2.95,-118.51 2.95,-176.67 0,-16.46 -4.43,-30.72 -4.43,-42.79 0,-23.05 6.65,-104.25 6.65,-121.81 0,-82.3 -22.9,-94.37 -70.16,-94.37 -5.17,0 -293.18,-6.58 -300.57,-6.58l-86.4 0c-33.97,-3.29 -62.04,40.6 -69.42,51.57 -4.44,6.59 -12.56,442.23 -12.56,516.85l0 21.94 0 20.85 28.81 817.52c0,7.68 6.64,58.16 16.98,61.45 70.89,26.33 177.24,31.82 268.82,28.53 53.17,-1.1 107.82,-5.49 163.94,-10.98 54.65,0 55.39,-2.19 55.39,-505.87 0,-13.16 0,-38.4 11.08,-38.4 7.38,0 159.51,9.87 161.72,9.87l16.25 412.6c2.22,61.45 9.6,119.61 24.37,119.61l415.78 0c15.51,0 34.71,-34.02 34.71,-51.57l35.44 -851.54c0,-14.26 -3.69,-28.53 -3.69,-44.99 0,-178.86 9.6,-288.59 9.6,-470.75 0,-79.01 -19.94,-86.69 -65.72,-86.69 -36.19,0 -361.87,10.97 -399.53,10.97 -73.85,0 -70.9,19.75 -70.9,125.1 0,8.78 -0.73,91.08 -2.95,168.99l-2.22 153.62zm709.7 280.92c0,150.34 5.17,186.55 5.17,264.46 0,85.59 0.74,342.37 26.59,407.11 5.9,31.82 22.89,85.59 27.32,85.59l452.7 0 27.32 0c22.9,-16.46 55.39,-16.46 78.28,-16.46 5.91,0 15.52,7.68 21.42,7.68 11.82,0 34.71,-2.19 40.62,-2.19l0 10.97c2.21,-4.39 16.99,-16.46 19.94,-16.46 5.9,0 11.81,9.88 31.75,9.88 2.22,0 5.91,0 8.87,-1.1 2.21,0 3.69,0 5.9,-1.1l10.34 -16.46c0,-3.29 0,-6.58 0.74,-9.87 0,-5.49 0.74,-10.98 0.74,-14.27 0,-73.52 -8.13,-89.98 -16.25,-148.14 -4.43,-27.43 -5.17,-87.79 -16.99,-87.79 -90.83,0 -184.62,13.17 -276.19,13.17 0,-10.97 -1.48,-50.47 -1.48,-76.81l2.22 -27.43c0.74,-16.46 2.21,-35.12 2.21,-48.29 -0.74,-2.19 -0.74,-4.39 -0.74,-7.68 -0.73,-4.39 -0.73,-9.87 -0.73,-17.56 0,-62.54 23.63,-55.96 95.26,-55.96l66.46 0c81.24,0 161.74,-4.39 155.83,-55.96l-31.76 -148.14c-9.6,-49.38 -17.72,-41.7 -47.26,-47.19 -11.81,-3.29 -23.63,-17.56 -40.62,-14.26 -2.21,0 -8.12,3.29 -10.34,6.58l-128.5 0c-3.69,-3.29 -14.03,-6.58 -16.98,-6.58 -2.95,4.39 -9.6,6.58 -14.77,6.58 -15.51,0 -21.41,-6.58 -21.41,-41.7 0,-38.41 8.12,-173.38 25.84,-173.38l0 6.59c26.59,-29.63 128.5,-16.46 155.82,-21.95 17.73,-3.29 46.53,-16.46 64.99,-16.46 11.08,0 16.25,8.78 28.8,8.78 14.03,0 22.16,-12.07 36.19,-8.78 2.21,0 8.12,8.78 10.34,8.78 14.03,0 15.51,-35.12 15.51,-62.55 -17.73,-94.37 -16.25,-222.76 -51.7,-222.76l-47.26 0c-2.22,-5.48 -5.17,-8.78 -7.39,-8.78 -73.85,0 -155.08,0 -231.14,25.24l-8.87 -9.87c-15.51,0 -28.8,2.19 -44.31,2.19 -86.4,0 -170.59,-10.97 -256.99,-10.97 -42.1,0 -134.41,-4.39 -134.41,40.6 -11.08,172.28 -11.08,329.2 -11.08,492.7zm954.88 294.09c0,53.77 5.17,201.91 2.96,287.5 -2.22,23.04 0,173.38 -1.48,175.57l6.65 8.78c17.72,-3.29 36.18,-2.19 56.86,-2.19 49.48,0 93.79,-9.88 141.05,-6.59 13.29,0 165.42,15.36 194.97,15.36 5.9,3.3 34.7,6.59 40.61,6.59 27.32,0 57.6,-6.59 87.88,-6.59 32.5,0 186.1,-10.97 189.06,-53.77l11.07 -384.06c0,-18.66 -14.03,-42.8 -25.85,-47.19 -64.98,17.56 -135.14,15.37 -200.12,15.37 -14.03,0 -19.2,0 -34.72,-8.78 -16.24,-88.89 -5.9,-212.89 -5.9,-301.77 -9.6,-29.63 -6.65,-179.96 -8.86,-228.25 0,-8.77 -4.44,-87.78 -4.44,-102.05 2.22,-8.78 8.87,-82.3 8.87,-92.17 2.21,-102.06 -22.16,-95.47 -75.33,-100.96 -109.3,0 -158.77,-6.58 -314.6,-6.58 -61.29,48.28 -53.91,379.68 -62.04,735.21l-6.64 96.57zm858.13 -351.15c0,261.17 7.39,589.27 7.39,708.88 0,52.67 1.47,120.7 34.7,120.7 159.52,0 203.83,-6.58 326.42,-6.58 47.26,0 73.11,-5.49 73.11,-98.76 0,-8.78 -6.65,-81.2 -6.65,-89.98 0,-4.39 6.65,-36.21 6.65,-111.93l179.46 0c221.55,0 369.25,-145.94 369.25,-555.25 0,-373.09 -219.34,-449.91 -363.34,-449.91 -130.72,0 -236.33,6.59 -330.85,6.59 -62.03,0 -145.48,-4.39 -261.43,-4.39 -16.98,0 -34.71,26.33 -34.71,51.57l0 429.06zm451.96 280.92c0.74,-107.54 2.96,-204.11 7.38,-288.6 8.13,-144.85 22.9,-288.6 53.18,-288.6 59.08,0 59.08,209.59 59.08,220.56 0,71.33 0,362.12 -59.08,362.12 -30.28,0 -45.05,-1.09 -53.18,-2.19 -4.42,-1.1 -6.64,-2.2 -7.38,-3.29zm666.86 -88.89c0,150.34 15.51,303.96 21.42,453.2 2.22,36.21 -2.96,186.55 40.62,186.55 18.46,0 125.54,-2.2 130.71,-2.2l112.99 0c2.22,-3.29 8.13,-6.58 10.34,-6.58 8.12,0 10.34,9.88 25.85,6.58 1.47,0 74.59,-6.58 113.73,-6.58 16.25,-44.99 16.25,-178.87 16.25,-347.85 17.72,-38.41 37.66,-24.15 62.03,-29.63 2.21,-3.29 8.86,-15.37 11.07,-15.37 5.91,0 8.87,6.59 14.78,6.59 8.12,0 7.38,-8.78 15.5,-8.78 5.91,0 5.17,8.78 10.34,8.78 30.28,0 102.66,-15.36 129.98,-38.41 0,-55.96 1.47,-94.37 1.47,-152.53 0,-34.01 -0.74,-69.13 -11.81,-94.37 -21.42,-49.38 -111.51,-61.45 -164.69,-61.45l-27.32 0c-9.6,-13.17 -3.69,-23.04 -4.43,-21.95 0,-143.75 6.65,-201.9 8.86,-216.17l10.34 -8.78c5.17,3.29 19.2,2.2 33.23,2.2 44.31,0 44.31,-8.78 83.45,-8.78l60.56 0c20.68,0 67.94,6.58 67.94,-27.44 0,-140.45 -16.24,-280.91 -63.51,-280.91 -2.21,0 -8.12,6.58 -10.34,6.58 -2.22,0 -8.86,-3.29 -11.07,-6.58l-346.36 0c-2.95,-3.3 -15.51,-6.59 -20.68,-6.59 -1.47,0 -23.63,6.59 -25.85,6.59 -2.21,0 -8.86,-3.3 -11.08,-6.59l-66.46 0 -5.9 6.59c-42.1,0 -79.77,-8.78 -118.17,-8.78 -25.84,0 -46.52,10.97 -70.89,10.97 -5.17,0 -6.65,-2.19 -11.82,-2.19 -5.17,4.39 -11.08,18.65 -11.08,23.04l0 640.84zm559.79 233.74c0.74,0 1.47,1.09 1.47,4.38l0 1.1c0,1.1 -0.73,1.1 -1.47,1.1 -0.75,0 -1.49,0 -2.22,-1.1 -0.74,0 -0.74,0 -0.74,-1.1 0,-3.29 0.74,-4.38 2.96,-4.38zm974.81 390.65c42.1,12.07 90.1,8.77 134.41,8.77 61.29,0 129.24,1.1 190.53,-15.36 2.22,0 8.13,-8.78 10.34,-8.78 5.17,0 22.89,5.49 25.84,8.78 8.13,-12.07 31.76,-44.99 31.76,-63.64 14.03,-395.04 14.77,-779.11 14.77,-1177.44 0,-5.49 -1.48,-8.78 -4.43,-8.78 -2.96,0 -8.86,4.39 -11.82,4.39 0,-4.39 1.48,-10.97 1.48,-15.36 0,-7.69 -1.48,-8.78 -10.34,-14.27l-160.25 -6.58 -25.85 0c-33.97,0 -184.62,1.09 -217.85,23.04l0 -2.19c0,-8.78 -7.39,-14.27 -10.35,-14.27 -26.58,0 -21.41,38.41 -21.41,68.04 0,53.76 0,81.2 5.91,141.55l0 739.6c0,13.17 -99.7,77.91 -119.64,77.91 -24.37,0 -20.67,-105.34 -20.67,-136.06 0,-28.54 4.42,-339.08 10.33,-526.72l0 -21.95c0,-70.23 -4.43,-127.29 -4.43,-197.52 0,-139.36 -32.49,-155.82 -132.93,-155.82l-9.6 6.58c-2.21,0 -5.91,-3.29 -5.91,-6.58l-184.62 -4.39c-5.91,4.39 -14.77,4.39 -24.38,4.39l-22.15 0c-22.89,0 -45.78,4.39 -45.78,34.01 0,29.63 4.42,53.77 4.42,83.4 0,80.11 -8.85,367.61 -10.33,366.51l-4.43 15.36c0,13.17 -1.48,111.93 -1.48,139.37 0,160.21 -22.89,575 140.32,667.17 65.72,38.41 134.4,25.24 203.08,25.24 21.42,0 109.3,-14.26 166.16,-63.64 21.42,-26.34 50.22,-69.13 73.86,-69.13 11.81,0 13.29,76.81 35.44,94.37zm576.77 -465.27c0,53.77 5.17,201.91 2.96,287.5 -2.23,23.04 0,173.38 -1.49,175.57l6.65 8.78c17.72,-3.29 36.19,-2.19 56.86,-2.19 49.48,0 93.79,-9.88 141.06,-6.59 13.29,0 165.42,15.36 194.96,15.36 5.91,3.3 34.71,6.59 40.62,6.59 27.32,0 57.6,-6.59 87.88,-6.59 32.5,0 186.1,-10.97 189.06,-53.77l11.07 -384.06c0,-18.66 -14.03,-42.8 -25.85,-47.19 -64.98,17.56 -135.14,15.37 -200.12,15.37 -14.04,0 -19.21,0 -34.72,-8.78 -16.24,-88.89 -5.91,-212.89 -5.91,-301.77 -9.59,-29.63 -6.64,-179.96 -8.85,-228.25 0,-8.77 -4.44,-87.78 -4.44,-102.05 2.22,-8.78 8.86,-82.3 8.86,-92.17 2.22,-102.06 -22.15,-95.47 -75.32,-100.96 -109.3,0 -158.78,-6.58 -314.6,-6.58 -61.3,48.28 -53.91,379.68 -62.04,735.21l-6.64 96.57z"/>
  <path class="fil1" d="M6083.67 7008.41c0,372.37 -5.54,715.94 -5.54,997.79 0,322.99 9.7,549.3 42.93,615.13 292.13,0 400.13,4.11 603.65,4.11 132.92,-16.45 150.92,16.46 150.92,-362.08 0,-166.64 24.92,-427.92 24.92,-619.24 0,-72.01 -2.76,-156.36 -2.76,-240.71 0,-137.84 -11.08,-425.86 62.3,-425.86 114.92,0 233.99,-8.23 348.9,30.86 22.16,-8.23 51.23,-55.54 51.23,-88.46l0 -722.11c0,-24.69 -80.3,-28.8 -164.76,-28.8 -78.91,0 -159.22,4.11 -186.91,4.11 -56.77,0 -113.53,-12.34 -164.76,-12.34 -11.08,0 -65.07,6.17 -76.15,12.34 -91.38,0 -519.2,-4.11 -564.89,-4.11 -126,0 -250.61,4.11 -376.61,4.11 -37.37,0 -74.76,2.06 -107.99,-4.11l-11.07 16.46c0,6.17 -8.31,230.41 -8.31,269.5 0,160.47 0,541.07 95.54,541.07l281.06 0 8.3 12.34zm2362.03 1022.48l0 -820.86c0,-213.96 13.85,-312.71 18.01,-329.17l-5.54 -724.16 -210.45 0c-5.54,-2.06 -30.46,-12.35 -40.16,-12.35 -1.38,0 -41.53,12.35 -47.07,12.35 -4.15,0 -16.62,-6.18 -20.77,-12.35l-124.61 0 -11.07 12.35c-98.31,0 -178.61,-16.46 -267.22,-16.46 -37.39,0 -130.15,0 -130.15,59.66l0 1022.47c0,360.03 29.08,740.63 40.15,1096.54 4.16,65.83 -5.53,349.74 76.15,349.74 33.23,0 232.6,-47.32 243.68,-47.32l213.22 0c4.15,-6.17 15.23,-12.34 19.38,-12.34 31.85,0 40.16,18.51 105.23,12.34l15.23 -6.17c9.69,-2.06 19.38,-6.17 24.92,-6.17 4.16,0 6.93,8.22 11.08,8.22 96.92,0 63.69,-170.75 78.92,-425.85l11.07 -160.47zm335.07 -960.76c0,489.64 13.84,1104.77 13.84,1329.01 0,98.75 2.77,226.3 65.07,226.3 299.07,0 382.14,-12.34 611.98,-12.34 88.6,0 137.07,-10.29 137.07,-185.16 0,-16.45 -12.47,-152.24 -12.47,-168.69 0,-8.23 12.47,-67.89 12.47,-209.85l336.44 0c415.37,0 692.27,-273.62 692.27,-1040.99 0,-699.48 -411.21,-843.49 -681.19,-843.49 -245.07,0 -443.06,12.35 -620.28,12.35 -116.3,0 -272.76,-8.23 -490.13,-8.23 -31.85,0 -65.07,49.37 -65.07,96.69l0 804.4zm847.34 526.67c1.39,-201.62 5.54,-382.66 13.84,-541.07 15.23,-271.56 42.93,-541.07 99.69,-541.07 110.76,0 110.76,392.95 110.76,413.52 0,133.72 0,678.9 -110.76,678.9 -56.76,0 -84.46,-2.05 -99.69,-4.11 -8.3,-2.06 -12.45,-4.11 -13.84,-6.17zm1207.32 448.49l67.85 520.49c5.54,76.12 315.67,121.38 340.6,144.01l416.74 -12.34c265.83,-6.17 584.28,-263.33 679.81,-635.7 18.01,-67.89 20.77,-127.56 20.77,-203.68 0,-471.12 -294.9,-617.18 -592.58,-837.31 -29.08,-30.86 -31.84,-45.26 -31.84,-84.35 0,-335.34 605.04,-174.87 544.12,-345.63 -16.62,-586.32 -13.84,-485.52 -163.38,-551.35 -443.05,0 -1254.39,12.34 -1254.39,868.18 0,129.61 59.53,539.01 164.75,539.01l0 20.57c0,67.89 132.92,129.61 99.7,129.61 16.61,18.51 69.22,67.89 76.14,72 94.15,72.01 292.14,96.7 292.14,288.02 0,133.73 -164.76,109.04 -269.98,109.04 -117.69,0 -238.15,-34.97 -362.75,-104.92 -22.16,6.17 -27.7,30.86 -27.7,61.72l0 22.63z"/>
  <path class="fil4" d="M6063 4853.76c-48.74,0 -118.16,-16.46 -163.94,-16.46 0,-65.84 2.95,-118.51 2.95,-176.67 0,-16.46 -4.43,-30.72 -4.43,-42.79 0,-23.05 6.65,-104.25 6.65,-121.81 0,-82.3 -22.9,-94.37 -70.16,-94.37 -5.17,0 -293.18,-6.58 -300.57,-6.58l-86.4 0c-33.97,-3.29 -62.04,40.6 -69.42,51.57 -4.44,6.59 -12.56,442.23 -12.56,516.85l0 21.94 0 20.85 28.81 817.52c0,7.68 6.64,58.16 16.98,61.45 70.89,26.33 177.24,31.82 268.82,28.53 53.17,-1.1 107.82,-5.49 163.94,-10.98 54.65,0 55.39,-2.19 55.39,-505.87 0,-13.16 0,-38.4 11.08,-38.4 7.38,0 159.51,9.87 161.72,9.87l16.25 412.6c2.22,61.45 9.6,119.61 24.37,119.61l415.78 0c15.51,0 34.71,-34.02 34.71,-51.57l35.44 -851.54c0,-14.26 -3.69,-28.53 -3.69,-44.99 0,-178.86 9.6,-288.59 9.6,-470.75 0,-79.01 -19.94,-86.69 -65.72,-86.69 -36.19,0 -361.87,10.97 -399.53,10.97 -73.85,0 -70.9,19.75 -70.9,125.1 0,8.78 -0.73,91.08 -2.95,168.99l-2.22 153.62zm709.7 280.92c0,150.34 5.17,186.55 5.17,264.46 0,85.59 0.74,342.37 26.59,407.11 5.9,31.82 22.89,85.59 27.32,85.59l452.7 0 27.32 0c22.9,-16.46 55.39,-16.46 78.28,-16.46 5.91,0 15.52,7.68 21.42,7.68 11.82,0 34.71,-2.19 40.62,-2.19l0 10.97c2.21,-4.39 16.99,-16.46 19.94,-16.46 5.9,0 11.81,9.88 31.75,9.88 2.22,0 5.91,0 8.87,-1.1 2.21,0 3.69,0 5.9,-1.1l10.34 -16.46c0,-3.29 0,-6.58 0.74,-9.87 0,-5.49 0.74,-10.98 0.74,-14.27 0,-73.52 -8.13,-89.98 -16.25,-148.14 -4.43,-27.43 -5.17,-87.79 -16.99,-87.79 -90.83,0 -184.62,13.17 -276.19,13.17 0,-10.97 -1.48,-50.47 -1.48,-76.81l2.22 -27.43c0.74,-16.46 2.21,-35.12 2.21,-48.29 -0.74,-2.19 -0.74,-4.39 -0.74,-7.68 -0.73,-4.39 -0.73,-9.87 -0.73,-17.56 0,-62.54 23.63,-55.96 95.26,-55.96l66.46 0c81.24,0 161.74,-4.39 155.83,-55.96l-31.76 -148.14c-9.6,-49.38 -17.72,-41.7 -47.26,-47.19 -11.81,-3.29 -23.63,-17.56 -40.62,-14.26 -2.21,0 -8.12,3.29 -10.34,6.58l-128.5 0c-3.69,-3.29 -14.03,-6.58 -16.98,-6.58 -2.95,4.39 -9.6,6.58 -14.77,6.58 -15.51,0 -21.41,-6.58 -21.41,-41.7 0,-38.41 8.12,-173.38 25.84,-173.38l0 6.59c26.59,-29.63 128.5,-16.46 155.82,-21.95 17.73,-3.29 46.53,-16.46 64.99,-16.46 11.08,0 16.25,8.78 28.8,8.78 14.03,0 22.16,-12.07 36.19,-8.78 2.21,0 8.12,8.78 10.34,8.78 14.03,0 15.51,-35.12 15.51,-62.55 -17.73,-94.37 -16.25,-222.76 -51.7,-222.76l-47.26 0c-2.22,-5.48 -5.17,-8.78 -7.39,-8.78 -73.85,0 -155.08,0 -231.14,25.24l-8.87 -9.87c-15.51,0 -28.8,2.19 -44.31,2.19 -86.4,0 -170.59,-10.97 -256.99,-10.97 -42.1,0 -134.41,-4.39 -134.41,40.6 -11.08,172.28 -11.08,329.2 -11.08,492.7zm954.88 294.09c0,53.77 5.17,201.91 2.96,287.5 -2.22,23.04 0,173.38 -1.48,175.57l6.65 8.78c17.72,-3.29 36.18,-2.19 56.86,-2.19 49.48,0 93.79,-9.88 141.05,-6.59 13.29,0 165.42,15.36 194.97,15.36 5.9,3.3 34.7,6.59 40.61,6.59 27.32,0 57.6,-6.59 87.88,-6.59 32.5,0 186.1,-10.97 189.06,-53.77l11.07 -384.06c0,-18.66 -14.03,-42.8 -25.85,-47.19 -64.98,17.56 -135.14,15.37 -200.12,15.37 -14.03,0 -19.2,0 -34.72,-8.78 -16.24,-88.89 -5.9,-212.89 -5.9,-301.77 -9.6,-29.63 -6.65,-179.96 -8.86,-228.25 0,-8.77 -4.44,-87.78 -4.44,-102.05 2.22,-8.78 8.87,-82.3 8.87,-92.17 2.21,-102.06 -22.16,-95.47 -75.33,-100.96 -109.3,0 -158.77,-6.58 -314.6,-6.58 -61.29,48.28 -53.91,379.68 -62.04,735.21l-6.64 96.57zm858.13 -351.15c0,261.17 7.39,589.27 7.39,708.88 0,52.67 1.47,120.7 34.7,120.7 159.52,0 203.83,-6.58 326.42,-6.58 47.26,0 73.11,-5.49 73.11,-98.76 0,-8.78 -6.65,-81.2 -6.65,-89.98 0,-4.39 6.65,-36.21 6.65,-111.93l179.46 0c221.55,0 369.25,-145.94 369.25,-555.25 0,-373.09 -219.34,-449.91 -363.34,-449.91 -130.72,0 -236.33,6.59 -330.85,6.59 -62.03,0 -145.48,-4.39 -261.43,-4.39 -16.98,0 -34.71,26.33 -34.71,51.57l0 429.06zm451.96 280.92c0.74,-107.54 2.96,-204.11 7.38,-288.6 8.13,-144.85 22.9,-288.6 53.18,-288.6 59.08,0 59.08,209.59 59.08,220.56 0,71.33 0,362.12 -59.08,362.12 -30.28,0 -45.05,-1.09 -53.18,-2.19 -4.42,-1.1 -6.64,-2.2 -7.38,-3.29zm666.86 -88.89c0,150.34 15.51,303.96 21.42,453.2 2.22,36.21 -2.96,186.55 40.62,186.55 18.46,0 125.54,-2.2 130.71,-2.2l112.99 0c2.22,-3.29 8.13,-6.58 10.34,-6.58 8.12,0 10.34,9.88 25.85,6.58 1.47,0 74.59,-6.58 113.73,-6.58 16.25,-44.99 16.25,-178.87 16.25,-347.85 17.72,-38.41 37.66,-24.15 62.03,-29.63 2.21,-3.29 8.86,-15.37 11.07,-15.37 5.91,0 8.87,6.59 14.78,6.59 8.12,0 7.38,-8.78 15.5,-8.78 5.91,0 5.17,8.78 10.34,8.78 30.28,0 102.66,-15.36 129.98,-38.41 0,-55.96 1.47,-94.37 1.47,-152.53 0,-34.01 -0.74,-69.13 -11.81,-94.37 -21.42,-49.38 -111.51,-61.45 -164.69,-61.45l-27.32 0c-9.6,-13.17 -3.69,-23.04 -4.43,-21.95 0,-143.75 6.65,-201.9 8.86,-216.17l10.34 -8.78c5.17,3.29 19.2,2.2 33.23,2.2 44.31,0 44.31,-8.78 83.45,-8.78l60.56 0c20.68,0 67.94,6.58 67.94,-27.44 0,-140.45 -16.24,-280.91 -63.51,-280.91 -2.21,0 -8.12,6.58 -10.34,6.58 -2.22,0 -8.86,-3.29 -11.07,-6.58l-346.36 0c-2.95,-3.3 -15.51,-6.59 -20.68,-6.59 -1.47,0 -23.63,6.59 -25.85,6.59 -2.21,0 -8.86,-3.3 -11.08,-6.59l-66.46 0 -5.9 6.59c-42.1,0 -79.77,-8.78 -118.17,-8.78 -25.84,0 -46.52,10.97 -70.89,10.97 -5.17,0 -6.65,-2.19 -11.82,-2.19 -5.17,4.39 -11.08,18.65 -11.08,23.04l0 640.84zm559.79 233.74c0.74,0 1.47,1.09 1.47,4.38l0 1.1c0,1.1 -0.73,1.1 -1.47,1.1 -0.75,0 -1.49,0 -2.22,-1.1 -0.74,0 -0.74,0 -0.74,-1.1 0,-3.29 0.74,-4.38 2.96,-4.38zm974.81 390.65c42.1,12.07 90.1,8.77 134.41,8.77 61.29,0 129.24,1.1 190.53,-15.36 2.22,0 8.13,-8.78 10.34,-8.78 5.17,0 22.89,5.49 25.84,8.78 8.13,-12.07 31.76,-44.99 31.76,-63.64 14.03,-395.04 14.77,-779.11 14.77,-1177.44 0,-5.49 -1.48,-8.78 -4.43,-8.78 -2.96,0 -8.86,4.39 -11.82,4.39 0,-4.39 1.48,-10.97 1.48,-15.36 0,-7.69 -1.48,-8.78 -10.34,-14.27l-160.25 -6.58 -25.85 0c-33.97,0 -184.62,1.09 -217.85,23.04l0 -2.19c0,-8.78 -7.39,-14.27 -10.35,-14.27 -26.58,0 -21.41,38.41 -21.41,68.04 0,53.76 0,81.2 5.91,141.55l0 739.6c0,13.17 -99.7,77.91 -119.64,77.91 -24.37,0 -20.67,-105.34 -20.67,-136.06 0,-28.54 4.42,-339.08 10.33,-526.72l0 -21.95c0,-70.23 -4.43,-127.29 -4.43,-197.52 0,-139.36 -32.49,-155.82 -132.93,-155.82l-9.6 6.58c-2.21,0 -5.91,-3.29 -5.91,-6.58l-184.62 -4.39c-5.91,4.39 -14.77,4.39 -24.38,4.39l-22.15 0c-22.89,0 -45.78,4.39 -45.78,34.01 0,29.63 4.42,53.77 4.42,83.4 0,80.11 -8.85,367.61 -10.33,366.51l-4.43 15.36c0,13.17 -1.48,111.93 -1.48,139.37 0,160.21 -22.89,575 140.32,667.17 65.72,38.41 134.4,25.24 203.08,25.24 21.42,0 109.3,-14.26 166.16,-63.64 21.42,-26.34 50.22,-69.13 73.86,-69.13 11.81,0 13.29,76.81 35.44,94.37zm576.77 -465.27c0,53.77 5.17,201.91 2.96,287.5 -2.23,23.04 0,173.38 -1.49,175.57l6.65 8.78c17.72,-3.29 36.19,-2.19 56.86,-2.19 49.48,0 93.79,-9.88 141.06,-6.59 13.29,0 165.42,15.36 194.96,15.36 5.91,3.3 34.71,6.59 40.62,6.59 27.32,0 57.6,-6.59 87.88,-6.59 32.5,0 186.1,-10.97 189.06,-53.77l11.07 -384.06c0,-18.66 -14.03,-42.8 -25.85,-47.19 -64.98,17.56 -135.14,15.37 -200.12,15.37 -14.04,0 -19.21,0 -34.72,-8.78 -16.24,-88.89 -5.91,-212.89 -5.91,-301.77 -9.59,-29.63 -6.64,-179.96 -8.85,-228.25 0,-8.77 -4.44,-87.78 -4.44,-102.05 2.22,-8.78 8.86,-82.3 8.86,-92.17 2.22,-102.06 -22.15,-95.47 -75.32,-100.96 -109.3,0 -158.78,-6.58 -314.6,-6.58 -61.3,48.28 -53.91,379.68 -62.04,735.21l-6.64 96.57z"/>
  <path class="fil4" d="M5766.17 7008.41c0,372.37 -5.54,715.94 -5.54,997.79 0,322.99 9.7,549.3 42.93,615.13 292.13,0 400.13,4.11 603.65,4.11 132.92,-16.45 150.92,16.46 150.92,-362.08 0,-166.64 24.92,-427.92 24.92,-619.24 0,-72.01 -2.76,-156.36 -2.76,-240.71 0,-137.84 -11.08,-425.86 62.3,-425.86 114.92,0 233.99,-8.23 348.9,30.86 22.16,-8.23 51.23,-55.54 51.23,-88.46l0 -722.11c0,-24.69 -80.3,-28.8 -164.76,-28.8 -78.91,0 -159.22,4.11 -186.91,4.11 -56.77,0 -113.53,-12.34 -164.76,-12.34 -11.08,0 -65.07,6.17 -76.15,12.34 -91.38,0 -519.2,-4.11 -564.89,-4.11 -126,0 -250.61,4.11 -376.61,4.11 -37.37,0 -74.76,2.06 -107.99,-4.11l-11.07 16.46c0,6.17 -8.31,230.41 -8.31,269.5 0,160.47 0,541.07 95.54,541.07l281.06 0 8.3 12.34zm2362.03 1022.48l0 -820.86c0,-213.96 13.85,-312.71 18.01,-329.17l-5.54 -724.16 -210.45 0c-5.54,-2.06 -30.46,-12.35 -40.16,-12.35 -1.38,0 -41.53,12.35 -47.07,12.35 -4.15,0 -16.62,-6.18 -20.77,-12.35l-124.61 0 -11.07 12.35c-98.31,0 -178.61,-16.46 -267.22,-16.46 -37.39,0 -130.15,0 -130.15,59.66l0 1022.47c0,360.03 29.08,740.63 40.15,1096.54 4.16,65.83 -5.53,349.74 76.15,349.74 33.23,0 232.6,-47.32 243.68,-47.32l213.22 0c4.15,-6.17 15.23,-12.34 19.38,-12.34 31.85,0 40.16,18.51 105.23,12.34l15.23 -6.17c9.69,-2.06 19.38,-6.17 24.92,-6.17 4.16,0 6.93,8.22 11.08,8.22 96.92,0 63.69,-170.75 78.92,-425.85l11.07 -160.47zm335.07 -960.76c0,489.64 13.84,1104.77 13.84,1329.01 0,98.75 2.77,226.3 65.07,226.3 299.07,0 382.14,-12.34 611.98,-12.34 88.6,0 137.07,-10.29 137.07,-185.16 0,-16.45 -12.47,-152.24 -12.47,-168.69 0,-8.23 12.47,-67.89 12.47,-209.85l336.44 0c415.37,0 692.27,-273.62 692.27,-1040.99 0,-699.48 -411.21,-843.49 -681.19,-843.49 -245.07,0 -443.06,12.35 -620.28,12.35 -116.3,0 -272.76,-8.23 -490.13,-8.23 -31.85,0 -65.07,49.37 -65.07,96.69l0 804.4zm847.34 526.67c1.39,-201.62 5.54,-382.66 13.84,-541.07 15.23,-271.56 42.93,-541.07 99.69,-541.07 110.76,0 110.76,392.95 110.76,413.52 0,133.72 0,678.9 -110.76,678.9 -56.76,0 -84.46,-2.05 -99.69,-4.11 -8.3,-2.06 -12.45,-4.11 -13.84,-6.17zm1207.32 448.49l67.85 520.49c5.54,76.12 315.67,121.38 340.6,144.01l416.74 -12.34c265.83,-6.17 584.28,-263.33 679.81,-635.7 18.01,-67.89 20.77,-127.56 20.77,-203.68 0,-471.12 -294.9,-617.18 -592.58,-837.31 -29.08,-30.86 -31.84,-45.26 -31.84,-84.35 0,-335.34 605.04,-174.87 544.12,-345.63 -16.62,-586.32 -13.84,-485.52 -163.38,-551.35 -443.05,0 -1254.39,12.34 -1254.39,868.18 0,129.61 59.53,539.01 164.75,539.01l0 20.57c0,67.89 132.92,129.61 99.7,129.61 16.61,18.51 69.22,67.89 76.14,72 94.15,72.01 292.14,96.7 292.14,288.02 0,133.73 -164.76,109.04 -269.98,109.04 -117.69,0 -238.15,-34.97 -362.75,-104.92 -22.16,6.17 -27.7,30.86 -27.7,61.72l0 22.63z"/>
  <path class="fil5" d="M6204.11 4853.76c-48.74,0 -118.15,-16.46 -163.94,-16.46 0,-65.84 2.95,-118.51 2.95,-176.67 0,-16.46 -4.43,-30.72 -4.43,-42.79 0,-23.05 6.65,-104.25 6.65,-121.81 0,-82.3 -22.89,-94.37 -70.16,-94.37 -5.17,0 -293.18,-6.58 -300.56,-6.58l-86.41 0c-33.97,-3.29 -62.04,40.6 -69.42,51.57 -4.43,6.59 -12.56,442.23 -12.56,516.85l0 21.94 0 20.85 28.81 817.52c0,7.68 6.65,58.16 16.98,61.45 70.9,26.33 177.24,31.82 268.82,28.53 53.17,-1.1 107.82,-5.49 163.94,-10.98 54.65,0 55.39,-2.19 55.39,-505.87 0,-13.16 0,-38.4 11.08,-38.4 7.38,0 159.51,9.87 161.73,9.87l16.24 412.6c2.22,61.45 9.61,119.61 24.37,119.61l415.78 0c15.51,0 34.71,-34.02 34.71,-51.57l35.45 -851.54c0,-14.26 -3.7,-28.53 -3.7,-44.99 0,-178.86 9.6,-288.59 9.6,-470.75 0,-79.01 -19.94,-86.69 -65.72,-86.69 -36.19,0 -361.87,10.97 -399.53,10.97 -73.85,0 -70.9,19.75 -70.9,125.1 0,8.78 -0.73,91.08 -2.95,168.99l-2.22 153.62zm709.7 280.92c0,150.34 5.17,186.55 5.17,264.46 0,85.59 0.74,342.37 26.59,407.11 5.9,31.82 22.89,85.59 27.32,85.59l452.7 0 27.32 0c22.9,-16.46 55.39,-16.46 78.28,-16.46 5.91,0 15.52,7.68 21.42,7.68 11.82,0 34.71,-2.19 40.62,-2.19l0 10.97c2.22,-4.39 16.99,-16.46 19.94,-16.46 5.9,0 11.81,9.88 31.75,9.88 2.22,0 5.91,0 8.87,-1.1 2.21,0 3.69,0 5.91,-1.1l10.33 -16.46c0,-3.29 0,-6.58 0.74,-9.87 0,-5.49 0.74,-10.98 0.74,-14.27 0,-73.52 -8.13,-89.98 -16.25,-148.14 -4.43,-27.43 -5.17,-87.79 -16.99,-87.79 -90.83,0 -184.62,13.17 -276.19,13.17 0,-10.97 -1.48,-50.47 -1.48,-76.81l2.22 -27.43c0.74,-16.46 2.21,-35.12 2.21,-48.29 -0.74,-2.19 -0.74,-4.39 -0.74,-7.68 -0.73,-4.39 -0.73,-9.87 -0.73,-17.56 0,-62.54 23.63,-55.96 95.26,-55.96l66.47 0c81.23,0 161.73,-4.39 155.82,-55.96l-31.76 -148.14c-9.6,-49.38 -17.72,-41.7 -47.26,-47.19 -11.81,-3.29 -23.63,-17.56 -40.62,-14.26 -2.21,0 -8.12,3.29 -10.33,6.58l-128.51 0c-3.68,-3.29 -14.03,-6.58 -16.98,-6.58 -2.95,4.39 -9.6,6.58 -14.77,6.58 -15.51,0 -21.41,-6.58 -21.41,-41.7 0,-38.41 8.12,-173.38 25.84,-173.38l0 6.59c26.59,-29.63 128.5,-16.46 155.83,-21.95 17.72,-3.29 46.52,-16.46 64.98,-16.46 11.08,0 16.25,8.78 28.8,8.78 14.04,0 22.16,-12.07 36.19,-8.78 2.21,0 8.12,8.78 10.34,8.78 14.03,0 15.51,-35.12 15.51,-62.55 -17.73,-94.37 -16.25,-222.76 -51.7,-222.76l-47.26 0c-2.22,-5.48 -5.17,-8.78 -7.39,-8.78 -73.84,0 -155.08,0 -231.14,25.24l-8.87 -9.87c-15.51,0 -28.8,2.19 -44.31,2.19 -86.4,0 -170.59,-10.97 -256.99,-10.97 -42.1,0 -134.41,-4.39 -134.41,40.6 -11.08,172.28 -11.08,329.2 -11.08,492.7zm954.88 294.09c0,53.77 5.17,201.91 2.96,287.5 -2.22,23.04 0,173.38 -1.48,175.57l6.65 8.78c17.72,-3.29 36.18,-2.19 56.86,-2.19 49.48,0 93.79,-9.88 141.05,-6.59 13.29,0 165.42,15.36 194.97,15.36 5.91,3.3 34.7,6.59 40.61,6.59 27.33,0 57.6,-6.59 87.88,-6.59 32.5,0 186.1,-10.97 189.06,-53.77l11.08 -384.06c0,-18.66 -14.04,-42.8 -25.85,-47.19 -64.99,17.56 -135.15,15.37 -200.13,15.37 -14.03,0 -19.2,0 -34.71,-8.78 -16.25,-88.89 -5.91,-212.89 -5.91,-301.77 -9.6,-29.63 -6.65,-179.96 -8.86,-228.25 0,-8.77 -4.44,-87.78 -4.44,-102.05 2.22,-8.78 8.87,-82.3 8.87,-92.17 2.21,-102.06 -22.16,-95.47 -75.33,-100.96 -109.29,0 -158.77,-6.58 -314.6,-6.58 -61.29,48.28 -53.91,379.68 -62.03,735.21l-6.65 96.57zm858.13 -351.15c0,261.17 7.39,589.27 7.39,708.88 0,52.67 1.47,120.7 34.71,120.7 159.51,0 203.82,-6.58 326.41,-6.58 47.27,0 73.12,-5.49 73.12,-98.76 0,-8.78 -6.65,-81.2 -6.65,-89.98 0,-4.39 6.65,-36.21 6.65,-111.93l179.45 0c221.55,0 369.25,-145.94 369.25,-555.25 0,-373.09 -219.34,-449.91 -363.34,-449.91 -130.72,0 -236.32,6.59 -330.85,6.59 -62.03,0 -145.48,-4.39 -261.43,-4.39 -16.98,0 -34.71,26.33 -34.71,51.57l0 429.06zm451.96 280.92c0.74,-107.54 2.96,-204.11 7.38,-288.6 8.13,-144.85 22.9,-288.6 53.18,-288.6 59.08,0 59.08,209.59 59.08,220.56 0,71.33 0,362.12 -59.08,362.12 -30.28,0 -45.05,-1.09 -53.18,-2.19 -4.42,-1.1 -6.64,-2.2 -7.38,-3.29zm666.86 -88.89c0,150.34 15.51,303.96 21.42,453.2 2.22,36.21 -2.96,186.55 40.62,186.55 18.46,0 125.54,-2.2 130.71,-2.2l112.99 0c2.22,-3.29 8.13,-6.58 10.34,-6.58 8.13,0 10.34,9.88 25.85,6.58 1.48,0 74.59,-6.58 113.73,-6.58 16.25,-44.99 16.25,-178.87 16.25,-347.85 17.72,-38.41 37.66,-24.15 62.03,-29.63 2.21,-3.29 8.86,-15.37 11.07,-15.37 5.91,0 8.87,6.59 14.78,6.59 8.12,0 7.38,-8.78 15.5,-8.78 5.91,0 5.17,8.78 10.35,8.78 30.27,0 102.65,-15.36 129.97,-38.41 0,-55.96 1.48,-94.37 1.48,-152.53 0,-34.01 -0.75,-69.13 -11.82,-94.37 -21.42,-49.38 -111.51,-61.45 -164.68,-61.45l-27.33 0c-9.6,-13.17 -3.69,-23.04 -4.43,-21.95 0,-143.75 6.65,-201.9 8.86,-216.17l10.34 -8.78c5.17,3.29 19.2,2.2 33.23,2.2 44.31,0 44.31,-8.78 83.45,-8.78l60.56 0c20.68,0 67.94,6.58 67.94,-27.44 0,-140.45 -16.24,-280.91 -63.51,-280.91 -2.21,0 -8.12,6.58 -10.33,6.58 -2.23,0 -8.87,-3.29 -11.08,-6.58l-346.36 0c-2.95,-3.3 -15.51,-6.59 -20.68,-6.59 -1.47,0 -23.63,6.59 -25.85,6.59 -2.21,0 -8.86,-3.3 -11.08,-6.59l-66.46 0 -5.9 6.59c-42.1,0 -79.77,-8.78 -118.17,-8.78 -25.84,0 -46.52,10.97 -70.89,10.97 -5.17,0 -6.65,-2.19 -11.82,-2.19 -5.17,4.39 -11.08,18.65 -11.08,23.04l0 640.84zm559.79 233.74c0.74,0 1.47,1.09 1.47,4.38l0 1.1c0,1.1 -0.73,1.1 -1.47,1.1 -0.74,0 -1.48,0 -2.22,-1.1 -0.74,0 -0.74,0 -0.74,-1.1 0,-3.29 0.74,-4.38 2.96,-4.38zm974.81 390.65c42.1,12.07 90.1,8.77 134.41,8.77 61.29,0 129.24,1.1 190.53,-15.36 2.22,0 8.13,-8.78 10.34,-8.78 5.17,0 22.89,5.49 25.84,8.78 8.13,-12.07 31.76,-44.99 31.76,-63.64 14.04,-395.04 14.78,-779.11 14.78,-1177.44 0,-5.49 -1.49,-8.78 -4.44,-8.78 -2.95,0 -8.86,4.39 -11.82,4.39 0,-4.39 1.48,-10.97 1.48,-15.36 0,-7.69 -1.48,-8.78 -10.33,-14.27l-160.26 -6.58 -25.85 0c-33.97,0 -184.62,1.09 -217.85,23.04l0 -2.19c0,-8.78 -7.39,-14.27 -10.35,-14.27 -26.58,0 -21.41,38.41 -21.41,68.04 0,53.76 0,81.2 5.91,141.55l0 739.6c0,13.17 -99.7,77.91 -119.64,77.91 -24.37,0 -20.67,-105.34 -20.67,-136.06 0,-28.54 4.42,-339.08 10.33,-526.72l0 -21.95c0,-70.23 -4.43,-127.29 -4.43,-197.52 0,-139.36 -32.49,-155.82 -132.93,-155.82l-9.6 6.58c-2.21,0 -5.91,-3.29 -5.91,-6.58l-184.62 -4.39c-5.91,4.39 -14.77,4.39 -24.37,4.39l-22.16 0c-22.89,0 -45.78,4.39 -45.78,34.01 0,29.63 4.43,53.77 4.43,83.4 0,80.11 -8.86,367.61 -10.34,366.51l-4.43 15.36c0,13.17 -1.48,111.93 -1.48,139.37 0,160.21 -22.89,575 140.32,667.17 65.72,38.41 134.4,25.24 203.08,25.24 21.42,0 109.3,-14.26 166.16,-63.64 21.42,-26.34 50.22,-69.13 73.86,-69.13 11.81,0 13.29,76.81 35.44,94.37zm576.77 -465.27c0,53.77 5.17,201.91 2.96,287.5 -2.22,23.04 0,173.38 -1.48,175.57l6.64 8.78c17.72,-3.29 36.19,-2.19 56.87,-2.19 49.47,0 93.78,-9.88 141.05,-6.59 13.29,0 165.42,15.36 194.96,15.36 5.91,3.3 34.71,6.59 40.62,6.59 27.32,0 57.6,-6.59 87.88,-6.59 32.5,0 186.1,-10.97 189.06,-53.77l11.07 -384.06c0,-18.66 -14.03,-42.8 -25.85,-47.19 -64.98,17.56 -135.14,15.37 -200.12,15.37 -14.04,0 -19.2,0 -34.72,-8.78 -16.24,-88.89 -5.91,-212.89 -5.91,-301.77 -9.59,-29.63 -6.64,-179.96 -8.85,-228.25 0,-8.77 -4.44,-87.78 -4.44,-102.05 2.22,-8.78 8.87,-82.3 8.87,-92.17 2.21,-102.06 -22.16,-95.47 -75.33,-100.96 -109.3,0 -158.77,-6.58 -314.6,-6.58 -61.3,48.28 -53.91,379.68 -62.04,735.21l-6.64 96.57z"/>
  <path class="fil5" d="M5907.28 7008.41c0,372.37 -5.53,715.94 -5.53,997.79 0,322.99 9.69,549.3 42.92,615.13 292.13,0 400.13,4.11 603.66,4.11 132.91,-16.45 150.91,16.46 150.91,-362.08 0,-166.64 24.93,-427.92 24.93,-619.24 0,-72.01 -2.77,-156.36 -2.77,-240.71 0,-137.84 -11.08,-425.86 62.3,-425.86 114.92,0 233.99,-8.23 348.91,30.86 22.15,-8.23 51.22,-55.54 51.22,-88.46l0 -722.11c0,-24.69 -80.3,-28.8 -164.76,-28.8 -78.91,0 -159.22,4.11 -186.91,4.11 -56.77,0 -113.53,-12.34 -164.76,-12.34 -11.08,0 -65.07,6.17 -76.15,12.34 -91.38,0 -519.2,-4.11 -564.89,-4.11 -126,0 -250.61,4.11 -376.6,4.11 -37.38,0 -74.77,2.06 -108,-4.11l-11.07 16.46c0,6.17 -8.31,230.41 -8.31,269.5 0,160.47 0,541.07 95.54,541.07l281.06 0 8.3 12.34zm2362.03 1022.48l0 -820.86c0,-213.96 13.85,-312.71 18.01,-329.17l-5.54 -724.16 -210.45 0c-5.54,-2.06 -30.46,-12.35 -40.15,-12.35 -1.39,0 -41.54,12.35 -47.08,12.35 -4.15,0 -16.62,-6.18 -20.77,-12.35l-124.61 0 -11.07 12.35c-98.31,0 -178.61,-16.46 -267.22,-16.46 -37.39,0 -130.15,0 -130.15,59.66l0 1022.47c0,360.03 29.08,740.63 40.16,1096.54 4.15,65.83 -5.54,349.74 76.15,349.74 33.22,0 232.6,-47.32 243.67,-47.32l213.22 0c4.15,-6.17 15.23,-12.34 19.38,-12.34 31.85,0 40.16,18.51 105.23,12.34l15.23 -6.17c9.69,-2.06 19.39,-6.17 24.92,-6.17 4.16,0 6.93,8.22 11.08,8.22 96.92,0 63.69,-170.75 78.92,-425.85l11.07 -160.47zm335.07 -960.76c0,489.64 13.84,1104.77 13.84,1329.01 0,98.75 2.77,226.3 65.07,226.3 299.07,0 382.14,-12.34 611.98,-12.34 88.61,0 137.07,-10.29 137.07,-185.16 0,-16.45 -12.47,-152.24 -12.47,-168.69 0,-8.23 12.47,-67.89 12.47,-209.85l336.44 0c415.37,0 692.27,-273.62 692.27,-1040.99 0,-699.48 -411.21,-843.49 -681.19,-843.49 -245.07,0 -443.06,12.35 -620.28,12.35 -116.3,0 -272.76,-8.23 -490.13,-8.23 -31.85,0 -65.07,49.37 -65.07,96.69l0 804.4zm847.34 526.67c1.39,-201.62 5.54,-382.66 13.84,-541.07 15.23,-271.56 42.93,-541.07 99.69,-541.07 110.77,0 110.77,392.95 110.77,413.52 0,133.72 0,678.9 -110.77,678.9 -56.76,0 -84.46,-2.05 -99.69,-4.11 -8.3,-2.06 -12.45,-4.11 -13.84,-6.17zm1207.33 448.49l67.84 520.49c5.54,76.12 315.68,121.38 340.6,144.01l416.74 -12.34c265.83,-6.17 584.28,-263.33 679.81,-635.7 18.01,-67.89 20.77,-127.56 20.77,-203.68 0,-471.12 -294.9,-617.18 -592.58,-837.31 -29.08,-30.86 -31.84,-45.26 -31.84,-84.35 0,-335.34 605.04,-174.87 544.12,-345.63 -16.61,-586.32 -13.84,-485.52 -163.37,-551.35 -443.06,0 -1254.4,12.34 -1254.4,868.18 0,129.61 59.53,539.01 164.76,539.01l0 20.57c0,67.89 132.91,129.61 99.69,129.61 16.61,18.51 69.22,67.89 76.15,72 94.14,72.01 292.14,96.7 292.14,288.02 0,133.73 -164.77,109.04 -269.99,109.04 -117.69,0 -238.15,-34.97 -362.75,-104.92 -22.16,6.17 -27.69,30.86 -27.69,61.72l0 22.63z"/>
  <path class="fil6" d="M4211.39 7900.98c-547.9,83.96 -1131.59,191.13 -1618.77,435.5 -33.28,16.69 -62.01,42.23 -79.76,74.93 -46.19,84.95 116.13,278.66 180.9,409.3 194.31,391.93 247.02,562.54 414.98,966.47 18.41,44.31 42.03,92.25 86.68,109.78 30.56,12.03 64.85,7.06 97.29,1.87 272.63,-43.46 1175.92,-159.35 1172.39,-293.37 -11.11,-418.71 -145.84,-954.58 -98.95,-1588.24 5.61,-75.81 -79.62,-127.74 -154.76,-116.24z"/>
  <path class="fil7" d="M558 3232.81c-325.16,387.07 -568.3,948.83 -550.69,1437.25 -53.47,781.41 180.5,1524.5 893.38,1912.52 413.03,230.43 1120.25,744.29 1406.11,1183.21 173.43,266.39 378.14,711.13 378.14,711.13 352.13,142 1280.31,-134.47 1515.83,-444.11 0,0 -78.32,-420.69 -29.53,-718.01 107,-652.35 188.1,-1196.76 538.44,-1726.31 321.91,-486.63 517,-1015.09 444.68,-1627.3 -106.79,-903.46 -933.17,-1763.04 -2613.48,-1701.45 -756.45,27.73 -1475.86,369.57 -1982.88,973.07z"/>
  <path class="fil8" d="M4645.66 4049.85c-130.89,-690.85 -765.07,-1099.75 -1411.11,-1238.11 -574.68,-123.05 -1295.05,-103.93 -1739.29,335.31 -199.47,197.2 -326.11,473.04 -199.58,744.36 125.95,270.05 416.69,422.88 703.17,449.48 453.18,42.08 886.18,-230.37 1332.04,-168.24 783.83,109.18 621.38,1095.9 939.97,1011.87 232.1,-61.24 435.97,-811.95 374.8,-1134.67z"/>
  <path class="fil8" d="M3883.27 6423.76c-60.08,-334.19 -148.52,-707.85 -349.11,-988.8 -183.96,-257.64 -447.51,-361.57 -756.1,-343.86 -1.73,-0.38 -3.22,-0.98 -5.02,-1.3 -468.66,-79.59 -916.1,308.57 -1057.06,738.57 -94.53,288.47 -27.53,572 120.29,828.86 169.17,293.93 373.15,571.46 560.59,853.96 96.82,145.88 193.67,291.79 290.49,437.73 83.26,125.48 166.13,270.26 298.63,350.84 210.66,128.09 476.98,66.46 655.56,-88.44 228.07,-197.77 286.71,-514.85 304.24,-801.51 20.11,-328.58 -4.3,-662.27 -62.51,-986.05z"/>
  <path class="fil6" d="M3875.75 6803.73c11.15,54.65 -8.32,95.08 -59.51,123.76l-3.07 2.22c-30.52,27.17 -65.62,53.27 -104.67,77.86 -7.51,-102.66 -15.27,-205.35 -23.56,-307.98 38.45,-0.52 72.28,2.51 102.87,9.11l2.32 0.49 2.44 -0.14c43.74,-2.51 73.06,4.48 84.84,20.14 9.88,13.16 9.53,35.07 -1.02,65.16l-1.63 4.62 0.99 4.76zm-729.32 898.18l-2.47 -8.47c-39.77,-137.72 -79.92,-275.63 -120.88,-413.42 133.64,-5.08 276.75,-28.65 387.2,-64.1 77.7,-24.87 144.9,-49.81 204.56,-75.95 12.87,144 24.41,275.16 34.71,406.93l3.25 44.09c-159.84,64.6 -292.76,98.08 -429.46,108.2 -24.81,1.8 -50.63,2.75 -76.91,2.72zm-475.05 -547.55c-119.2,-53.73 -170.48,-145.06 -152.43,-271.64 19.75,-138.18 79.1,-254.95 176.65,-347.66 45.08,145.66 90.64,291.15 136.36,436.56 -65.95,58.14 -119.88,119.49 -160.58,182.74zm238.26 -245.67c-47.14,-149.37 -95.32,-294.43 -143.36,-431.87 173.98,-124.78 436.59,-195.94 781.11,-211.64 5.85,113.03 13.76,233.51 24.09,367.03 -215.49,27.7 -470.65,134.34 -661.84,276.48zm-188.67 343.99c61.1,16.05 130.68,25.36 207.18,27.8 50.63,164.22 88.7,291.18 123.08,410.49l1.86 6.74c-178.74,-16.37 -308.76,-76.38 -358.95,-166.65 -40.51,-72.78 -31.47,-166.44 26.83,-278.38zm41.06 -67.8c27.95,-40.61 61.47,-79.77 100.04,-116.88 14.37,46 28.69,92 42.95,138.01 -51.96,-3.53 -99.83,-10.62 -142.99,-21.13zm437.02 6.49c-61.02,10.3 -130.59,16.37 -197.36,17.21 -20.68,-68.93 -41.63,-137.76 -62.92,-206.48 79.67,-61.95 177.48,-120.23 298.54,-177.87 98.72,-46.95 215.62,-96.94 340.24,-115.89 9.6,118.25 19.9,236.58 30.48,354.72 -119.97,58.56 -264.65,103.96 -408.98,128.31zm670.32 1870.18c-10.13,-356.73 -45.05,-720.02 -78.85,-1071.39 -11.85,-123.54 -23.7,-246.98 -34.57,-370.13 54.12,-25.23 99.09,-50.56 130.6,-73.56 11.39,-8.36 14.32,-24.06 6.88,-36.51 -7.38,-12.35 -21.98,-16.83 -34.65,-10.76 -36.47,17.43 -72.74,34.26 -109.04,50.48l-1.2 -13.9c-12.31,-146.65 -23.21,-296.37 -33.94,-444.39 139.67,-75.92 226.35,-162.84 257.71,-258.52 15.49,-47.3 11.39,-87.91 -12.17,-120.68 -50.56,-70.35 -180.55,-86.22 -281.34,-87.07 -11.08,-131.69 -22.51,-250.79 -34.82,-362.86 17.57,-0.36 34.85,-0.5 51.79,-0.53 15.84,-0.04 27.79,-12.77 27.83,-29.64 0.07,-16.82 -11.99,-29.21 -27.62,-29.67 -19.19,-0.17 -38.77,-0.14 -58.6,0 -7.34,-63.64 -15.17,-127.17 -23.81,-190.53 -2.79,-20.53 -19.4,-34.26 -39.62,-32.56 -21.38,1.76 -37.08,19.26 -36.51,40.74 1.62,61.35 3.99,122.77 6.81,184.22 -347.25,11.89 -616.72,80.76 -801.73,204.83 -26.71,-75.07 -49.88,-138.36 -72.33,-197.66 -6.75,-17.85 -24.62,-26.39 -42.5,-20.47 -19.15,6.46 -29.28,25.83 -23.53,45.12 19.08,64.03 38.79,127.92 58.5,191.77l10.34 33.59c-109.22,92.92 -182.83,211.67 -218.81,353.06 -49.16,193.43 12.62,334.12 178.85,408.02 -35.32,73.13 -52.79,147.25 -52.02,220.66 1.03,98.85 32.51,178.19 93.55,235.8 83.8,79.16 219.69,116.07 404.02,109.43 58.21,207.89 112.75,420.34 165.53,625.94 62.95,245.25 128.05,498.89 199.74,746.12 4.3,14.85 16.33,24.73 31.08,26.78 5.32,0.74 11,0.46 16.82,-0.96 22.59,-5.43 35.97,-24.87 31.8,-46.17 -83.73,-428.77 -208.79,-858.91 -329.7,-1274.91l-24.18 -83.22c155.07,-16.15 330.51,-59.41 488.3,-120.47 8.22,113.42 15.7,227.08 23.22,340.85 23.17,352.11 47.09,716.11 94.58,1069.62 3.45,25.58 23.42,42.09 48.5,39.97 22.51,-1.79 45.97,-20.1 45.09,-50.44z"/>
  <path class="fil7" d="M2365.31 555.55c135.74,512.97 262.32,1028.52 402.35,1540.36 61.61,225.18 388.22,128.87 345.71,-95.28 -101.8,-536.79 -276.85,-1051.84 -494.17,-1552.15 -63.94,-147.18 -293.02,-40.89 -253.89,107.07l0 0z"/>
  <path class="fil7" d="M3654.35 344.51c-10.37,283.5 -20.74,566.95 -31.12,850.45 -4.97,136.06 -9.94,272.16 -14.95,408.23 -4.66,127.56 -20.78,223.8 79.8,312.95 46.07,40.85 103.01,38.1 149.64,0 94.97,-77.47 87.28,-161.86 90.21,-278.94 3.67,-147.29 2.47,-294.92 3.7,-442.24 2.37,-283.5 4.77,-566.95 7.13,-850.45 1.55,-183.55 -277.74,-182.56 -284.41,0l0 0z"/>
  <path class="fil7" d="M4629.67 1994.91c97.94,-127.67 205.14,-246.59 314.05,-364.84 100.72,-109.29 213.25,-212.09 227.57,-366.36 5.37,-58.14 -54.36,-110.03 -109.15,-109.11 -166.61,2.71 -294.18,143.3 -398.88,259.57 -116.91,129.86 -224.86,267.69 -327.73,408.8 -130.49,179 163.48,342.3 294.14,171.94l0 0z"/>
  <path class="fil9 str1" d="M12477.07 2397.89c0,181.15 -146.86,328.02 -327.97,328.02 -181.19,0 -328.02,-146.87 -328.02,-328.02 0,-181.15 146.83,-328.01 328.02,-328.01 181.11,0 327.97,146.86 327.97,328.01z"/>
  <path class="fil5" d="M8288.33 3177.25c-132.22,0 -239.82,107.56 -239.82,239.78 0,132.26 107.6,239.82 239.82,239.82 132.22,0 239.82,-107.56 239.82,-239.82 0,-132.22 -107.6,-239.78 -239.82,-239.78zm0 655.99c-229.48,0 -416.2,-186.69 -416.2,-416.21 0,-229.48 186.72,-416.17 416.2,-416.17 229.48,0 416.21,186.69 416.21,416.17 0,229.52 -186.73,416.21 -416.21,416.21z"/>
  <path class="fil5" d="M10490.69 2672.85l-581.94 0c-48.72,0 -88.2,-39.51 -88.2,-88.2 0,-48.72 39.48,-88.19 88.2,-88.19l581.94 0c48.72,0 88.19,39.47 88.19,88.19 0,48.69 -39.47,88.2 -88.19,88.2z"/>
  <path class="fil5" d="M10199.72 2963.82c-48.72,0 -88.2,-39.48 -88.2,-88.2l0 -581.94c0,-48.72 39.48,-88.19 88.2,-88.19 48.72,0 88.19,39.47 88.19,88.19l0 581.94c0,48.72 -39.47,88.2 -88.19,88.2z"/>
  <line class="fil9 str2" x1="11299.47" y1="10486.35" x2="11881.41" y2= "10486.35" />
  <line class="fil9 str3" x1="11590.44" y1="10195.38" x2="11590.44" y2= "10777.35" />
  <line class="fil9 str2" x1="7706.39" y1="344.51" x2="8288.33" y2= "344.51" />
  <line class="fil9 str3" x1="7997.36" y1="53.54" x2="7997.36" y2= "635.49" />
  <path class="fil10" d="M7879.96 13305.01c-15.28,15.62 -28.37,32.87 -39.13,51.26l-16.36 -8.5c-2.4,-10.49 -12.35,-17.71 -23.29,-16.44 -11.68,1.38 -20,11.96 -18.66,23.63 1.38,11.67 11.96,19.99 23.64,18.63 2.32,-0.25 4.48,-0.88 6.49,-1.8l15.91 8.25c-8.86,19.54 -15.28,40.18 -19.02,61.49l26.36 4.66c8.07,-46.07 29.95,-88.45 63.21,-122.53l-19.15 -18.65z"/>
  <path class="fil10" d="M8073.53 13223.8c-6.04,0 -12.03,0.2 -17.96,0.59l-2.61 -22.07c6.63,-5.3 10.44,-13.73 9.38,-22.76 -1.62,-13.83 -14.21,-23.78 -28.04,-22.16 -13.9,1.63 -23.82,14.22 -22.16,28.09 1.06,8.96 6.67,16.26 14.26,19.9l2.57 22c-25.15,4.1 -49.46,11.72 -72.64,22.76l11.54 24.17c32.98,-15.78 68.47,-23.79 105.66,-23.79 17.53,0 35.03,1.88 52.07,5.58l5.64 -26.14c-18.87,-4.09 -38.28,-6.17 -57.71,-6.17z"/>
  <path class="fil10" d="M8306.47 13313.65c11.67,-1.41 19.96,-12.03 18.52,-23.71 -1.41,-11.67 -12.03,-19.97 -23.71,-18.52 -10.9,1.34 -18.87,10.7 -18.7,21.45l-14.67 12.81c-14.75,-15.15 -31.4,-28.65 -49.64,-40.18l-14.29 22.61c40.04,25.22 71.3,60.92 90.46,103.19l24.34 -11.01c-8.86,-19.54 -20.01,-37.82 -33.23,-54.5l14.18 -12.39c2.18,0.43 4.41,0.56 6.74,0.25z"/>
  <path class="fil10" d="M8054.23 13583.91c-13.58,0.85 -27.34,1.24 -40.82,1.24 -31.04,0 -61.13,-2.13 -87.42,-6.31 -13.79,-2.2 -29.84,-5.48 -44.83,-10.31 36.93,65.65 108.26,110.24 190.11,110.24 100.72,0 185.63,-67.59 209.87,-158.85 -24.06,15.84 -53.1,29.11 -86.72,39.58 -41.62,12.98 -90.13,21.42 -140.19,24.41z"/>
  <path class="fil10" d="M8164.47 13475.08c-26.46,0 -47.98,-21.52 -47.98,-47.98 0,-26.46 21.52,-47.97 47.98,-47.97 26.46,0 48.02,21.51 48.02,47.97 0,26.46 -21.56,47.98 -48.02,47.98zm-167.11 32.03c-35.98,0 -65.26,-29.28 -65.26,-65.22 0,-36.03 29.28,-65.31 65.26,-65.31 35.98,0 65.27,29.28 65.27,65.31 0,35.94 -29.29,65.22 -65.27,65.22zm76.17 -229.8c-118.22,0 -214.46,94.05 -214.46,209.67 0,14.97 1.63,29.94 4.84,44.48 23.77,17.03 95.46,31.39 188.63,25.78 101.6,-6.13 186.86,-33.79 235.37,-76.16 -0.18,-6.85 -0.71,-13.76 -1.59,-20.49 -13.37,-104.5 -104.88,-183.28 -212.79,-183.28z"/>
  <path class="fil10" d="M8638.11 13343.18c-10.41,-4.1 -28.43,-10.94 -48.79,-8.4 -19.44,2.43 -29.74,11.99 -29.74,35.53l0 30.55 78.6 0 0 60.57 -78.6 0 0 192.44 -68.15 0 0 -192.44 -47.24 0 0 -60.57 47.24 0 0 -31.36c0,-59.27 31.57,-98.15 90.59,-98.15 22.68,0 40.82,4.28 56.09,10.83l0 61z"/>
  <path class="fil10" d="M8803.99 13460.68c-6.25,-1.02 -12.6,-1.61 -18.52,-1.61 -31.61,0 -53.27,19.32 -53.27,56.9l0 137.9 -68.19 0 0 -253.01 66.11 0 0 27.66c15.91,-23.75 40.18,-34.48 71.26,-34.48 14.6,0 29.91,4.52 38.63,11.89l-36.02 54.75z"/>
  <path class="fil10" d="M8894.09 13503.48l112 0c-6.28,-32.39 -25.85,-50.69 -55.1,-50.69 -32.1,0 -50.91,19.33 -56.9,50.69zm180.41 23.5c0,7.83 -0.53,17.21 -1.31,22.96l-179.38 0c7.3,36.54 32.91,52.49 65.01,52.49 21.94,0 45.69,-8.89 63.96,-24.3l39.97 43.85c-28.72,26.38 -65.26,38.41 -107.81,38.41 -77.57,0 -131.37,-52.77 -131.37,-132.39 0,-79.66 52.21,-133.96 127.95,-133.96 72.81,0 122.7,54.09 122.98,132.94z"/>
  <path class="fil10" d="M9164.07 13503.48l112.01 0c-6.28,-32.39 -25.86,-50.69 -55.07,-50.69 -32.14,0 -50.94,19.33 -56.94,50.69zm180.44 23.5c0,7.83 -0.56,17.21 -1.34,22.96l-179.38 0c7.3,36.54 32.91,52.49 65.01,52.49 21.95,0 45.72,-8.89 64,-24.3l39.97 43.85c-28.75,26.38 -65.3,38.41 -107.88,38.41 -77.54,0 -131.34,-52.77 -131.34,-132.39 0,-79.66 52.24,-133.96 127.95,-133.96 72.85,0 122.73,54.09 123.01,132.94z"/>
  <path class="fil10" d="M9438.6 13527.21c0,39.98 26.42,69.72 65.05,69.72 40.22,0 65.27,-31.08 65.27,-69.72 0,-38.62 -25.05,-69.7 -65.27,-69.7 -38.63,0 -65.05,29.78 -65.05,69.7zm200.31 0c0,76 -52.74,133.18 -122.45,133.18 -33.94,0 -58,-13.33 -74.44,-32.88l0 130.82 -67.91 0 0 -357.47 66.61 0 0 27.93c16.47,-20.64 40.71,-34.75 75.46,-34.75 69.99,0 122.73,57.19 122.73,133.17z"/>
  <path class="fil10" d="M9739.24 13653.87l-68.16 0 0 -253.01 68.16 0 0 253.01zm9.17 -335.82c0,24.56 -19.09,43.4 -43.64,43.4 -24.55,0 -43.32,-18.84 -43.32,-43.4 0,-24.51 18.77,-43.84 43.32,-43.84 24.55,0 43.64,19.33 43.64,43.84z"/>
  <polygon class="fil10" points="9852.97,13490.92 9948.29,13400.86 10031.83,13400.86 9909.1,13519.92 10032.61,13653.87 9948.79,13653.87 9852.97,13551.5 9852.97,13653.87 9784.82,13653.87 9784.82,13277.85 9852.97,13277.85 "/>
  <path class="fil10" d="M5209.71 13583.88l0 -113.18c-13.93,-21.69 -43.92,-40.28 -74.93,-40.28 -50.09,0 -80.08,41.31 -80.08,96.63 0,55.27 29.99,96.09 80.08,96.09 31.01,0 61,-17.57 74.93,-39.26zm0 67.69l0 -37.21c-18.59,25.33 -49.07,43.42 -84.21,43.42 -65.12,0 -111.12,-49.59 -111.12,-130.73 0,-79.6 45.47,-131.27 111.12,-131.27 33.59,0 64.07,16.55 84.21,43.92l0 -132.79 38.77 0 0 344.66 -38.77 0z"/>
  <path class="fil10" d="M5421.06 13427.8c-53.23,0 -79.59,44.98 -81.63,83.22l163.79 0c-0.49,-37.2 -25.29,-83.22 -82.16,-83.22zm-122.45 98.71c0,-72.35 51.65,-130.73 122.98,-130.73 75.46,0 119.87,58.91 119.87,133.85l0 9.79 -202.03 0c3.1,47.04 36.16,86.34 89.92,86.34 28.4,0 57.36,-11.4 76.98,-31.55l18.59 25.33c-24.8,24.81 -58.39,38.24 -99.2,38.24 -73.91,0 -127.11,-53.23 -127.11,-131.27z"/>
  <path class="fil10" d="M5569.37 13618.52l20.14 -27.9c16.55,19.11 48.05,35.62 82.16,35.62 38.25,0 58.92,-18.05 58.92,-42.86 0,-60.47 -154.52,-23.29 -154.52,-115.78 0,-38.74 33.59,-71.82 92.99,-71.82 42.41,0 72.39,16.01 92.54,36.18l-18.1 26.86c-14.96,-18.06 -42.37,-31.5 -74.44,-31.5 -34.07,0 -55.24,17.03 -55.24,39.26 0,54.79 154.48,18.59 154.48,115.74 0,41.88 -33.58,75.46 -98.18,75.46 -40.81,0 -75.42,-12.41 -100.75,-39.26z"/>
  <path class="fil10" d="M5818.43 13651.57l0 -249.59 38.77 0 0 249.59 -38.77 0zm-6.7 -311.08c0,-14.46 11.89,-26.35 25.82,-26.35 14.46,0 26.35,11.89 26.35,26.35 0,14.47 -11.89,25.82 -26.35,25.82 -13.93,0 -25.82,-11.35 -25.82,-25.82z"/>
  <path class="fil10" d="M6102.1 13579.75l0 -109.05c-13.41,-21.69 -43.39,-40.28 -74.4,-40.28 -50.13,0 -80.08,39.78 -80.08,95.07 0,54.79 29.95,95.07 80.08,95.07 31.01,0 60.99,-19.11 74.4,-40.81zm-180.84 135.92l19.62 -28.96c20.67,24.8 45.47,34.12 81.14,34.12 41.34,0 80.08,-20.15 80.08,-74.94l0 -35.66c-18.06,25.33 -48.58,44.45 -83.72,44.45 -65.08,0 -111.09,-48.57 -111.09,-129.19 0,-80.12 45.48,-129.71 111.09,-129.71 33.59,0 63.57,16.55 83.72,43.92l0 -37.72 38.77 0 0 242.37c0,82.68 -57.89,108.5 -118.85,108.5 -42.37,0 -71.33,-8.28 -100.76,-37.18z"/>
  <path class="fil10" d="M6373.91 13651.57l0 -163.3c0,-43.92 -22.22,-57.85 -55.81,-57.85 -30.48,0 -59.44,18.59 -73.87,38.74l0 182.41 -38.77 0 0 -249.59 38.77 0 0 36.16c17.54,-20.67 51.65,-42.36 88.87,-42.36 52.17,0 79.58,26.34 79.58,80.6l0 175.19 -38.77 0z"/>
  <path class="fil10" d="M6585.26 13427.8c-53.23,0 -79.58,44.98 -81.63,83.22l163.79 0c-0.52,-37.2 -25.32,-83.22 -82.16,-83.22zm-122.48 98.71c0,-72.35 51.68,-130.73 122.98,-130.73 75.46,0 119.91,58.91 119.91,133.85l0 9.79 -202.04 0c3.1,47.04 36.16,86.34 89.89,86.34 28.43,0 57.36,-11.4 77.01,-31.55l18.59 25.33c-24.8,24.81 -58.38,38.24 -99.2,38.24 -73.91,0 -127.14,-53.23 -127.14,-131.27z"/>
  <path class="fil10" d="M6936.14 13583.88l0 -113.18c-13.97,-21.69 -43.93,-40.28 -74.93,-40.28 -50.13,0 -80.12,41.31 -80.12,96.63 0,55.27 29.99,96.09 80.12,96.09 31,0 60.96,-17.57 74.93,-39.26zm0 67.69l0 -37.21c-18.6,25.33 -49.11,43.42 -84.25,43.42 -65.09,0 -111.09,-49.59 -111.09,-130.73 0,-79.6 45.44,-131.27 111.09,-131.27 33.59,0 64.1,16.55 84.25,43.92l0 -132.79 38.73 0 0 344.66 -38.73 0z"/>
  <path class="fil10" d="M7273.04 13623.14c50.62,0 80.61,-40.82 80.61,-96.09 0,-55.32 -29.99,-96.63 -80.61,-96.63 -30.48,0 -61,18.59 -74.44,40.28l0 113.18c13.44,21.69 43.96,39.26 74.44,39.26zm-113.17 28.43l0 -344.66 38.73 0 0 132.79c20.18,-27.37 50.13,-43.92 84.25,-43.92 65.08,0 111.12,51.67 111.12,131.27 0,81.14 -46.04,130.73 -111.12,130.73 -35.14,0 -65.62,-18.09 -84.25,-43.42l0 37.21 -38.73 0z"/>
  <path class="fil10" d="M7436.3 13714.12c5.68,2.57 15,4.13 21.21,4.13 17.03,0 28.39,-5.68 37.18,-26.35l16.54 -37.75 -104.38 -252.17 41.87 0 83.19 204.65 82.69 -204.65 42.37 0 -125.06 300.26c-15,36.12 -40.29,50.12 -73.38,50.61 -8.26,0 -21.2,-1.54 -28.44,-3.62l6.21 -35.11z"/>
 </g>
</svg>
