<?xml version="1.0" encoding="UTF-8"?>
<!DOCTYPE svg PUBLIC "-//W3C//DTD SVG 1.1//EN" "http://www.w3.org/Graphics/SVG/1.1/DTD/svg11.dtd">
<!-- Creator: CorelDRAW 2019 (64-Bit) -->
<svg xmlns="http://www.w3.org/2000/svg" xml:space="preserve" width="0.416661in" height="0.416661in" version="1.1" style="shape-rendering:geometricPrecision; text-rendering:geometricPrecision; image-rendering:optimizeQuality; fill-rule:evenodd; clip-rule:evenodd"
viewBox="0 0 416.66 416.66"
 xmlns:xlink="http://www.w3.org/1999/xlink">
 <defs>
  <style type="text/css">
   <![CDATA[
    .fil0 {fill:#FEFEFE}
    .fil3 {fill:#FEFEFE;fill-rule:nonzero}
    .fil2 {fill:#FEFEFE;fill-rule:nonzero}
    .fil1 {fill:url(#id0);fill-rule:nonzero}
   ]]>
  </style>
  <radialGradient id="id0" gradientUnits="userSpaceOnUse" gradientTransform="matrix(1.19923 -0.321336 0.158579 0.592075 -75 152)" cx="208.32" cy="208.33" r="90.4" fx="208.32" fy="208.33">
   <stop offset="0" style="stop-opacity:1; stop-color:#0098DA"/>
   <stop offset="0.741176" style="stop-opacity:1; stop-color:#1EBF8B"/>
   <stop offset="1" style="stop-opacity:1; stop-color:#3CE63C"/>
  </radialGradient>
 </defs>
 <g id="Layer_x0020_1">
  <metadata id="CorelCorpID_0Corel-Layer"/>
  <rect class="fil0" x="-0.01" y="-0" width="416.67" height="416.67" rx="114.53" ry="114.53"/>
  <g id="_2143822678960">
   <path class="fil1" d="M215.38 237.21c12.03,33.35 44,57.42 81.48,57.42 47.44,0 86.29,-38.85 86.29,-86.29 0,-47.79 -38.85,-86.3 -86.29,-86.3 -40.57,0 -70.82,26.13 -97.29,53.63 -12.72,-31.63 -43.66,-53.63 -79.76,-53.63 -47.78,0 -86.29,38.5 -86.29,86.3 0,47.44 38.5,85.94 85.94,86.29 54.67,0 86.64,-47.1 95.92,-57.42z"/>
   <path class="fil2" d="M119.46 234.81c-14.44,0 -26.47,-12.03 -26.47,-26.47 0,-14.79 12.03,-26.82 26.81,-26.82 14.44,0 26.47,12.04 26.47,26.82 0,3.78 -0.69,7.21 -2.4,10.65 12.03,-5.16 23.37,-14.09 40.56,-27.5 -5.5,5.84 -31.28,43.31 -64.98,43.31z"/>
   <path class="fil3" d="M296.85 181.52c14.44,0 26.47,12.04 26.47,26.82 0,14.44 -12.03,26.47 -26.47,26.47 -14.79,0 -26.81,-12.03 -26.81,-26.47 0,-4.81 1.37,-9.63 3.78,-13.41 -13.07,4.47 -25.1,11.34 -37.13,19.59 16.85,-16.85 35.06,-32.66 60.16,-33.01z"/>
  </g>
 </g>
</svg>
