<?xml version="1.0" encoding="UTF-8"?>
<!DOCTYPE svg PUBLIC "-//W3C//DTD SVG 1.1//EN" "http://www.w3.org/Graphics/SVG/1.1/DTD/svg11.dtd">
<!-- Creator: CorelDRAW 2019 (64-Bit) -->
<svg xmlns="http://www.w3.org/2000/svg" xml:space="preserve" width="3.3866mm" height="3.3866mm" version="1.1" style="shape-rendering:geometricPrecision; text-rendering:geometricPrecision; image-rendering:optimizeQuality; fill-rule:evenodd; clip-rule:evenodd"
viewBox="0 0 338.66 338.66"
 xmlns:xlink="http://www.w3.org/1999/xlink"
 xmlns:dc="http://purl.org/dc/elements/1.1/"
 xmlns:cc="http://creativecommons.org/ns#"
 xmlns:rdf="http://www.w3.org/1999/02/22-rdf-syntax-ns#"
 xmlns:svg="http://www.w3.org/2000/svg"
 xmlns:sodipodi="http://sodipodi.sourceforge.net/DTD/sodipodi-0.dtd"
 xmlns:inkscape="http://www.inkscape.org/namespaces/inkscape"
 sodipodi:docname="logo.svg"
 inkscape:version="0.92.4 (5da689c313, 2019-01-14)">
 <defs>
  <style type="text/css">
   <![CDATA[
    .str0 {stroke:black;stroke-width:4.28;stroke-miterlimit:22.9256}
    .str3 {stroke:#1F1B20;stroke-width:4.28;stroke-miterlimit:22.9256}
    .str1 {stroke:#1F1B20;stroke-width:4.28;stroke-miterlimit:22.9256}
    .str2 {stroke:#1F1B20;stroke-width:4.28;stroke-miterlimit:22.9256}
    .fil5 {fill:none}
    .fil3 {fill:#1F1B20}
    .fil6 {fill:#1F1B20}
    .fil4 {fill:black}
    .fil2 {fill:#FFB900}
    .fil0 {fill:#FFCC00}
    .fil1 {fill:#FFDE59}
   ]]>
  </style>
 </defs>
 <g id="Layer_x0020_1">
  <metadata id="CorelCorpID_0Corel-Layer"/>
  <sodipodi:namedview pagecolor="#ffffff" bordercolor="#666666" borderopacity="1" objecttolerance="10" gridtolerance="10" guidetolerance="10" inkscape:pageopacity="0" inkscape:pageshadow="2" inkscape:window-width="1024" inkscape:window-height="705" id="namedview857" showgrid="false" inkscape:zoom="0.20823174" inkscape:cx="1344.6557" inkscape:cy="350" inkscape:window-x="-8" inkscape:window-y="-8" inkscape:window-maximized="1" inkscape:current-layer="svg855"/>
 </g>
 <g id="Layer_x0020_1_0">
  <metadata id="CorelCorpID_1Corel-Layer"/>
  <g id="_1945768343488">
   <g>
    <g>
     <path class="fil0" d="M107.77 172.18l-51.03 -35.72c3.01,-4.71 11.4,-16.62 14.66,-20.03l48.23 33.67c-4.76,6.74 -8.76,14.14 -11.86,22.08z"/>
     <path class="fil1" d="M119.63 150.1l-48.23 -33.67 8.85 -13.68 49.58 35.11c-3.69,3.77 -7.11,7.86 -10.2,12.24z"/>
     <path class="fil2" d="M103.75 184.67l-54.87 -37.45 7.86 -10.76 51.03 35.72c-1.58,4.03 -2.93,8.2 -4.02,12.49z"/>
     <path class="fil3" d="M80.25 102.75l-8.85 13.68 -14.66 20.03 -7.86 10.76 -27.43 -18.17c4.71,-3.14 7.03,-6.11 9,-10.26 4.31,-3.02 13.77,-16.29 15.35,-21.62 3.67,-3.2 5.62,-8.16 8,-12.4l26.45 17.98z"/>
     <path class="fil0" d="M45.8 97.17c-1.58,5.33 -11.04,18.6 -15.35,21.62l-24.6 -16.06 13.91 -21.45 26.04 15.89z"/>
     <path class="fil2" d="M30.45 118.79c-1.97,4.15 -4.29,7.12 -9,10.26l-14.91 -11.09c-4.93,-3.72 -4.07,-9.35 -0.69,-15.23l24.6 16.06z"/>
     <path class="fil1" d="M53.8 84.77c-2.38,4.24 -4.33,9.2 -8,12.4l-26.04 -15.89c3.1,-4.68 9.94,-10.91 16.93,-7.21l17.11 10.7z"/>
    </g>
    <g>
     <polygon class="fil0" points="281.44,275.48 282.56,280.07 278.03,280.2 243.49,264.75 261.57,263.1 257.12,248.75 "/>
     <polygon class="fil1" points="287.48,273.31 286.59,277.01 281.44,275.48 257.12,248.75 268.91,246.47 268.74,242.2 "/>
     <polygon class="fil2" points="278.03,280.2 280.45,283.59 247.12,277.47 243.49,264.75 "/>
     <polygon class="fil4" points="280.45,283.59 278.03,280.2 282.56,280.07 281.44,275.48 286.59,277.01 287.48,273.31 294.45,286.17 "/>
     <path class="fil0" d="M257.12 248.75l4.45 14.35 -18.08 1.65 -14.59 -10.21c4.36,-5.34 8.1,-11.3 11.11,-17.74l17.11 11.95z"/>
     <path class="fil1" d="M268.74 242.2l0.17 4.27 -11.79 2.28 -17.11 -11.95c1.77,-3.76 3.27,-7.69 4.51,-11.76l24.22 17.16z"/>
     <path class="fil2" d="M243.48 264.75l3.64 12.72 -24.1 -16.45c2.07,-2.04 4.03,-4.2 5.88,-6.48l14.58 10.21z"/>
    </g>
   </g>
   <g>
    <g>
     <path class="fil0" d="M234.84 169.66l47.07 -32.95c-3.01,-4.71 -11.39,-16.62 -14.66,-20.03l-44.85 31.31c4.93,6.58 9.12,13.86 12.44,21.67z"/>
     <path class="fil1" d="M222.4 147.99l44.85 -31.31 -8.85 -13.69 -46.61 33.01c3.82,3.67 7.38,7.68 10.61,11.99z"/>
     <path class="fil2" d="M239.2 181.99l50.58 -34.53 -7.87 -10.75 -47.07 32.95c1.68,3.98 3.15,8.09 4.36,12.33z"/>
     <path class="fil3" d="M258.4 102.99l8.85 13.69 14.66 20.03 7.87 10.75 27.43 -18.16c-4.72,-3.14 -7.04,-6.11 -9.01,-10.27 -4.3,-3.01 -13.77,-16.29 -15.34,-21.62 -3.67,-3.19 -5.63,-8.15 -8.01,-12.39l-26.45 17.97z"/>
     <path class="fil0" d="M292.86 97.41c1.57,5.33 11.04,18.61 15.34,21.62l24.6 -16.06 -13.9 -21.45 -26.04 15.89z"/>
     <path class="fil1" d="M284.85 85.02c2.38,4.24 4.34,9.2 8,12.39l26.05 -15.89c-3.11,-4.68 -9.95,-10.91 -16.94,-7.2l-17.11 10.7z"/>
     <path class="fil2" d="M308.2 119.03c1.97,4.16 4.29,7.13 9.01,10.27l14.91 -11.1c4.92,-3.71 4.06,-9.34 0.68,-15.23l-24.6 16.06z"/>
    </g>
    <g>
     <path class="fil0" d="M81.78 248.75l-4.45 14.35 18.09 1.66 17.31 -12.12c-4.2,-5.48 -7.78,-11.55 -10.62,-18.09l-20.33 14.2z"/>
     <path class="fil1" d="M70.16 242.2l-0.17 4.27 11.79 2.28 20.33 -14.2c-1.67,-3.84 -3.08,-7.85 -4.21,-11.99l-27.74 19.64z"/>
     <path class="fil2" d="M95.42 264.76l-3.63 12.71 26.62 -18.18c-2,-2.1 -3.89,-4.32 -5.68,-6.65l-17.31 12.12z"/>
     <polygon class="fil0" points="57.46,275.48 56.35,280.07 60.87,280.2 95.42,264.76 77.33,263.1 81.78,248.75 "/>
     <polygon class="fil1" points="51.43,273.31 52.31,277.01 57.46,275.48 81.78,248.75 69.99,246.47 70.16,242.2 "/>
     <polygon class="fil2" points="60.87,280.2 58.45,283.6 91.79,277.47 95.42,264.76 "/>
     <polygon class="fil4" points="58.45,283.6 60.87,280.2 56.35,280.07 57.46,275.48 52.31,277.01 51.43,273.31 44.45,286.17 "/>
    </g>
   </g>
   <polygon class="fil3" points="169.88,302.09 161.49,290.8 153.1,279.51 169.88,279.51 186.67,279.51 178.27,290.8 "/>
   <circle class="fil3 str0" cx="171.57" cy="90.7" r="34.68"/>
   <ellipse class="fil0" cx="171.57" cy="198.26" rx="76.9" ry="84.46"/>
   <path class="fil3" d="M104.25 157.41l134.63 0c-5,-9.92 -11.77,-18.63 -19.84,-25.59l-94.95 0c-8.07,6.96 -14.84,15.67 -19.84,25.59z"/>
   <path class="fil3" d="M124.09 264.71l94.95 0c8.08,-6.97 14.84,-15.67 19.84,-25.6l-134.63 0c5,9.93 11.77,18.63 19.84,25.6z"/>
   <path class="fil3" d="M95.54 211.06l152.05 0c0.58,-4.17 0.88,-8.45 0.88,-12.8 0,-4.35 -0.3,-8.62 -0.88,-12.8l-152.05 0c-0.57,4.18 -0.87,8.45 -0.87,12.8 0,4.35 0.3,8.63 0.87,12.8z"/>
   <path class="fil5 str1" d="M141.17 39.59c0.29,-0.03 0.57,-0.05 0.86,-0.05 6.64,0 12.03,9.61 12.03,21.47"/>
   <path class="fil5 str1" d="M201.11 39.54c-0.29,-0.04 -0.58,-0.06 -0.86,-0.06 -6.65,0 -12.03,9.61 -12.03,21.47"/>
   <ellipse class="fil6 str2" cx="142.03" cy="39.54" rx="2.94" ry="2.96"/>
   <ellipse class="fil6 str3" cx="201.11" cy="39.54" rx="2.94" ry="2.96"/>
  </g>
 </g>
</svg>
