<?xml version="1.0" encoding="UTF-8"?>
<!DOCTYPE svg PUBLIC "-//W3C//DTD SVG 1.1//EN" "http://www.w3.org/Graphics/SVG/1.1/DTD/svg11.dtd">
<!-- Creator: CorelDRAW 2018 (64-Bit Evaluation Version) -->
<svg xmlns="http://www.w3.org/2000/svg" xml:space="preserve" width="264.583mm" height="176.389mm" version="1.1" style="shape-rendering:geometricPrecision; text-rendering:geometricPrecision; image-rendering:optimizeQuality; fill-rule:evenodd; clip-rule:evenodd"
viewBox="0 0 26458.3 17638.9"
 xmlns:xlink="http://www.w3.org/1999/xlink">
 <defs>
  <style type="text/css">
   <![CDATA[
    .str0 {stroke:#DCD4D1;stroke-width:69.42;stroke-miterlimit:22.9256}
    .str2 {stroke:#FEFEFE;stroke-width:41.64;stroke-miterlimit:22.9256}
    .str7 {stroke:#B879B1;stroke-width:47.35;stroke-miterlimit:22.9256}
    .str6 {stroke:#E31E24;stroke-width:47.35;stroke-miterlimit:22.9256}
    .str11 {stroke:#FEFEFE;stroke-width:68.84;stroke-miterlimit:22.9256}
    .str9 {stroke:#3B3538;stroke-width:54.04;stroke-linecap:round;stroke-linejoin:round;stroke-miterlimit:22.9256}
    .str10 {stroke:#3B3538;stroke-width:49.28;stroke-linecap:round;stroke-linejoin:round;stroke-miterlimit:22.9256}
    .str4 {stroke:#3B3538;stroke-width:35.03;stroke-linecap:round;stroke-linejoin:round;stroke-miterlimit:22.9256}
    .str1 {stroke:#3B3538;stroke-width:58.09;stroke-linecap:round;stroke-linejoin:round;stroke-miterlimit:22.9256}
    .str8 {stroke:#3B3538;stroke-width:43.38;stroke-linecap:round;stroke-linejoin:round;stroke-miterlimit:22.9256}
    .str5 {stroke:#3B3538;stroke-width:43.45;stroke-linecap:round;stroke-linejoin:round;stroke-miterlimit:22.9256}
    .str3 {stroke:#3B3538;stroke-width:43.51;stroke-linecap:round;stroke-linejoin:round;stroke-miterlimit:22.9256}
    .fil1 {fill:none;fill-rule:nonzero}
    .fil4 {fill:#00B4B4;fill-rule:nonzero}
    .fil14 {fill:#342F30;fill-rule:nonzero}
    .fil3 {fill:#3B3538;fill-rule:nonzero}
    .fil12 {fill:#3C314C;fill-rule:nonzero}
    .fil11 {fill:#473A5F;fill-rule:nonzero}
    .fil8 {fill:#8F6E6B;fill-rule:nonzero}
    .fil13 {fill:#E4E2E2;fill-rule:nonzero}
    .fil10 {fill:#EB8F8B;fill-rule:nonzero}
    .fil5 {fill:#EBEAEA;fill-rule:nonzero}
    .fil2 {fill:#EF7F1A;fill-rule:nonzero}
    .fil9 {fill:#F5AAA3;fill-rule:nonzero}
    .fil7 {fill:#FEFEFE;fill-rule:nonzero}
    .fil6 {fill:#FFCC0A;fill-rule:nonzero}
    .fil0 {fill:white;fill-rule:nonzero}
   ]]>
  </style>
 </defs>
 <g id="Layer_x0020_1">
  <metadata id="CorelCorpID_0Corel-Layer"/>
  <polygon class="fil0" points="-0.01,17638.89 26458.27,17638.89 26458.27,0.02 -0.01,0.02 "/>
  <line class="fil1 str0" x1="4436.46" y1="5597.81" x2="22053.07" y2= "5597.81" />
  <path class="fil1 str0" d="M21823.02 15342.58l-17156.49 0c-127.07,0 -230.08,-103.01 -230.08,-230.04l0 -10439.5c0,-127.03 103.01,-230.04 230.08,-230.04l17156.49 0c127.04,0 230.05,103.01 230.05,230.04l0 10439.5c0,127.03 -103.01,230.04 -230.05,230.04z"/>
  <path class="fil2" d="M5597.48 5032.2c0,88.98 -72.17,161.12 -161.14,161.12 -89.01,0 -161.15,-72.14 -161.15,-161.12 0,-89 72.14,-161.14 161.15,-161.14 88.97,0 161.14,72.14 161.14,161.14z"/>
  <path class="fil3" d="M6223.74 5032.2c0,88.98 -72.15,161.12 -161.15,161.12 -89.01,0 -161.12,-72.14 -161.12,-161.12 0,-89 72.11,-161.14 161.12,-161.14 89,0 161.15,72.14 161.15,161.14z"/>
  <path class="fil4" d="M6850.01 5032.2c0,88.98 -72.18,161.12 -161.15,161.12 -89,0 -161.15,-72.14 -161.15,-161.12 0,-89 72.15,-161.14 161.15,-161.14 88.97,0 161.15,72.14 161.15,161.14z"/>
  <path class="fil5" d="M24341.61 9487.47l-4140.24 0c-116.73,0 -211.35,-94.61 -211.35,-211.35l0 -3829.08c0,-116.74 94.62,-211.35 211.35,-211.35l4140.24 0c116.73,0 211.38,94.61 211.38,211.35l0 3829.08c0,116.74 -94.65,211.35 -211.38,211.35z"/>
  <path class="fil1 str0" d="M24341.61 9487.47l-4140.24 0c-116.73,0 -211.35,-94.61 -211.35,-211.35l0 -3829.08c0,-116.74 94.62,-211.35 211.35,-211.35l4140.24 0c116.73,0 211.38,94.61 211.38,211.35l0 3829.08c0,116.74 -94.65,211.35 -211.38,211.35z"/>
  <path class="fil6" d="M21202.31 8381.44l2151.87 0c117.34,0 212.48,-95.11 212.48,-212.44l0 -1763.57c0,-117.3 -95.14,-212.41 -212.48,-212.41l-2151.87 0c-117.3,0 -212.41,95.11 -212.41,212.41l0 1763.57c0,117.33 95.11,212.44 212.41,212.44z"/>
  <polygon class="fil1 str1" points="22866.04,7651.09 21676.93,7651.09 21676.93,6853.63 22866.04,6853.63 "/>
  <polyline class="fil1 str1" points="21676.93,6853.63 22271.51,7322.19 22866.04,6853.63 "/>
  <path class="fil5" d="M6121.78 12693.83l-3948.49 0c-111.32,0 -201.54,-90.24 -201.54,-201.57l0 -3442.55c0,-111.3 90.22,-201.54 201.54,-201.54l3948.49 0c111.3,0 201.58,90.24 201.58,201.54l0 3442.55c0,111.33 -90.28,201.57 -201.58,201.57z"/>
  <path class="fil1 str0" d="M6121.78 12693.83l-3948.49 0c-111.32,0 -201.54,-90.24 -201.54,-201.57l0 -3442.55c0,-111.3 90.22,-201.54 201.54,-201.54l3948.49 0c111.3,0 201.58,90.24 201.58,201.54l0 3442.55c0,111.33 -90.28,201.57 -201.58,201.57z"/>
  <path class="fil6" d="M5161.2 11952.93l-2047.83 0c-129.36,0 -234.23,-104.85 -234.23,-234.21l0 -1977.71c0,-129.36 104.87,-234.21 234.23,-234.21l2047.83 0c129.37,0 234.25,104.85 234.25,234.21l0 1977.71c0,129.36 -104.88,234.21 -234.25,234.21z"/>
  <path class="fil3" d="M4793.12 10711.12l-305.83 0c-1.66,-91.94 -13.61,-183.91 -36.37,-275.81l259.68 0c46.89,82.27 76.1,175.93 82.52,275.81zm-82.52 359.02l-267.9 0c24.2,-91.97 38.84,-183.87 43.32,-275.84l307.1 0c-6.42,99.91 -35.6,193.57 -82.52,275.84zm-380.15 299.44c34.89,-72.08 64.2,-144.15 87.7,-216.26l235.94 0c-81.88,102.34 -194.38,179.04 -323.64,216.26zm-177.8 24.97c-28.51,0 -56.59,-1.87 -84.07,-5.47 -39.23,-78.6 -72.64,-157.16 -99.52,-235.76l367.14 0c-26.88,78.6 -60.29,157.16 -99.45,235.76 -27.55,3.6 -55.6,5.47 -84.1,5.47zm-501.44 -241.23l235.94 0c23.49,72.07 52.81,144.18 87.66,216.26 -129.22,-37.22 -241.76,-113.92 -323.6,-216.26zm-56.52 -83.18c-46.91,-82.27 -76.12,-175.93 -82.52,-275.84l307.1 0c4.48,91.93 19.09,183.87 43.32,275.84l-267.9 0zm0 -634.83l259.68 0c-22.75,91.9 -34.71,183.87 -36.37,275.81l-305.83 0c6.4,-99.88 35.61,-193.54 82.52,-275.81zm371.41 -296.86c-36.13,71.19 -65.41,142.45 -88.16,213.64l-226.73 0c80.01,-100.01 189.3,-175.54 314.89,-213.64zm186.55 -27.59c34.22,0 67.77,2.72 100.5,7.84 43.61,77.82 77.76,155.61 103.16,233.39l-407.32 0c25.4,-77.78 59.55,-155.57 103.15,-233.39 32.74,-5.12 66.32,-7.84 100.51,-7.84zm258.44 683.44c-6.28,91.93 -22.93,183.87 -48.89,275.84l-419.14 0c-25.93,-91.94 -42.58,-183.87 -48.86,-275.84l516.89 0zm-519.67 -83.18c0.1,-91.94 10.93,-183.91 33.69,-275.81l455.08 0c22.75,91.9 33.58,183.87 33.69,275.81l-522.46 0zm762.67 -359.03l-226.73 0c-22.76,-71.19 -52.04,-142.45 -88.16,-213.64 125.59,38.1 234.88,113.63 314.89,213.64zm-1004.5 -102.44c-276.3,276.29 -276.3,729.82 0,1006.15 276.29,276.3 729.82,276.3 1006.12,0 276.29,-276.33 276.29,-729.86 0,-1006.15 -276.3,-276.3 -729.83,-276.3 -1006.12,0z"/>
  <path class="fil6" d="M5886.44 3437.19l-3577.1 0c-73.89,0 -133.81,-59.9 -133.81,-133.81l0 0c0,-73.87 59.92,-133.81 133.81,-133.81l3577.1 0c73.91,0 133.81,59.94 133.81,133.81l0 0c0,73.91 -59.9,133.81 -133.81,133.81z"/>
  <path class="fil4" d="M24487.37 12174.93l-1736.19 0c-73.87,0 -133.81,-59.9 -133.81,-133.81l0 0c0,-73.87 59.94,-133.81 133.81,-133.81l1736.19 0c73.91,0 133.81,59.94 133.81,133.81l0 0c0,73.91 -59.9,133.81 -133.81,133.81z"/>
  <path class="fil6" d="M23271.38 13722.81l-212.12 0c-55.74,0 -100.97,-45.19 -100.97,-100.93l0 -199.17c0,-55.74 45.23,-100.9 100.97,-100.9l212.12 0c55.78,0 100.97,45.16 100.97,100.9l0 199.17c0,55.74 -45.19,100.93 -100.97,100.93z"/>
  <path class="fil2" d="M3161.42 14649.85l-212.16 0c-55.74,0 -100.93,-45.2 -100.93,-100.93l0 -199.16c0,-55.72 45.19,-100.95 100.93,-100.95l212.16 0c55.74,0 100.94,45.23 100.94,100.95l0 199.16c0,55.73 -45.2,100.93 -100.94,100.93z"/>
  <path class="fil2" d="M19398.88 3298.97l-3530.7 0c-58.71,0 -106.3,-47.55 -106.3,-106.25l0 -862.05c0,-58.67 47.59,-106.22 106.3,-106.22l3530.7 0c58.7,0 106.26,47.55 106.26,106.22l0 862.05c0,58.7 -47.56,106.25 -106.26,106.25z"/>
  <line class="fil1 str2" x1="16271.75" y1="2607.32" x2="18782.76" y2= "2607.32" />
  <line class="fil1 str2" x1="16271.75" y1="2865.02" x2="17294.56" y2= "2865.02" />
  <polygon class="fil2" points="16169.63,3177.4 16169.63,3596.19 16696.32,3177.4 "/>
  <path class="fil4" d="M10724.32 3362.9l-1709.13 0c-166.02,0 -300.57,-134.59 -300.57,-300.57l0 -1588.98c0,-125.87 102.02,-227.9 227.86,-227.9l1781.84 0c125.84,0 227.86,102.03 227.86,227.9l0 1661.65c0,125.87 -102.02,227.9 -227.86,227.9z"/>
  <path class="fil7" d="M10303.25 2579.06c-9.1,9.1 -18.21,18.2 -27.31,27.3 -15.94,13.66 -29.56,29.6 -45.51,45.51 -22.75,22.76 -47.8,34.15 -81.91,34.15 -4.55,0 -6.81,0 -11.36,0 -68.26,-4.55 -131.97,-31.86 -177.48,-54.61 -129.68,-63.71 -243.45,-152.43 -338.99,-266.21 -77.36,-93.31 -129.68,-182.03 -166.12,-275.3 -22.72,-54.61 -31.86,-97.83 -27.27,-141.08 2.26,-25.01 11.36,-47.77 31.86,-65.97l77.36 -77.36c6.81,-6.81 18.17,-15.91 31.82,-15.91 13.65,0 22.76,6.81 31.86,15.91 13.65,13.65 27.3,27.3 40.95,40.95 6.85,6.85 13.66,15.92 22.76,22.76l63.71 63.71c6.81,6.81 15.91,20.46 15.91,31.86 0,13.65 -9.1,25.01 -15.91,31.85 -6.84,6.81 -13.65,13.65 -20.5,20.46 -20.46,20.5 -38.66,38.67 -56.86,56.87 0,0 0,0 -2.26,2.29 -22.76,22.76 -18.2,43.25 -13.65,56.87l0 2.3c15.91,40.95 40.95,77.32 75.07,122.87 63.71,79.62 131.97,141.04 207.04,188.84 9.1,6.81 20.46,11.36 29.57,15.91 9.1,4.55 15.94,6.84 22.75,11.39l2.29 2.26c22.72,11.36 45.48,6.81 63.71,-11.36l79.63 -79.65c6.8,-6.81 18.2,-15.91 31.85,-15.91 11.4,0 22.76,9.1 29.56,15.91l127.43 127.42c20.49,20.5 20.49,43.21 0,65.97zm52.32 -118.29l-127.39 -127.42c-22.76,-25.05 -52.36,-38.7 -81.92,-38.7 -29.6,0 -59.16,13.65 -81.91,36.44l-72.82 72.78c-4.55,-2.26 -9.1,-4.55 -13.65,-6.81 -9.1,-4.55 -15.91,-6.84 -22.75,-11.39 -68.27,-43.22 -129.68,-100.12 -188.84,-172.94 -27.31,-34.11 -47.77,-65.93 -59.17,-93.24 18.24,-15.94 34.15,-34.14 50.06,-50.05 6.85,-6.85 13.66,-13.69 20.5,-20.5 25.01,-25.01 38.66,-54.61 38.66,-84.17 0,-29.6 -13.65,-59.16 -38.66,-84.21l-63.71 -63.68c-6.85,-6.84 -13.65,-13.65 -20.5,-22.75 -13.62,-13.65 -29.56,-29.56 -43.21,-43.25 -22.76,-22.76 -52.32,-36.37 -81.92,-36.37 -29.56,0 -56.87,11.36 -81.88,36.37l-79.66 79.65c-29.56,29.57 -47.76,68.27 -52.31,111.48 -4.55,68.26 13.65,131.94 29.56,172.93 36.41,104.64 93.27,197.91 177.48,298.03 102.38,120.62 222.96,216.18 364.03,284.41 52.32,25.01 125.13,54.61 204.79,61.42 4.52,0 9.07,0 15.91,0 54.61,0 100.12,-20.46 136.49,-59.16 0,0 0,0 2.29,-2.26 11.4,-13.65 25.02,-27.3 40.96,-40.96 9.1,-9.1 20.5,-20.46 29.57,-29.56 47.8,-50.06 47.8,-118.32 0,-166.09z"/>
  <path class="fil8" d="M18159.04 11379.98l-1287.7 -171.45 10.05 127.88 -1100.98 146.58c0,0 -482.41,1210.93 -301,3831.14l1263.77 0 170.91 -2105.49 114.51 0 165.55 2105.49 1259.01 0c184.66,-2650.51 -294.12,-3934.15 -294.12,-3934.15z"/>
  <line class="fil1 str3" x1="16504.66" y1="13208.64" x2="17439.03" y2= "13208.64" />
  <path class="fil9" d="M18911.03 9501.76c-110.18,-175.86 -729.02,-169.65 -761.69,-173.46 -167.28,-19.62 107.28,1311.62 455.3,2475.33 66.74,223.1 312.21,339.3 526.59,248.39 2.33,-0.98 4.62,-1.97 6.95,-2.92 169.62,-71.87 266.1,-251.92 231.99,-432.93 -165.53,-878.07 -331.76,-1911.11 -459.14,-2114.41z"/>
  <polygon class="fil10" points="19058.52,9983.12 18268.41,10289.72 18194.32,9914.86 19012.48,9710.78 "/>
  <path class="fil10" d="M19207.75 10733.09c0,0 -374.3,502.68 -356.45,479.57 17.82,-23.11 293.51,-812.34 293.51,-812.34l62.94 332.77z"/>
  <path class="fil9" d="M19742.91 10057.45l-1072.87 1390.05c-140.86,182.5 -95.88,446.37 97.51,571.93l0 0c193.04,125.3 451.94,59.44 561.59,-142.91l893.06 -1647.65 -479.29 -171.42z"/>
  <path class="fil9" d="M20020.57 10414.39c-232.58,-75.14 -360.22,-324.55 -285.08,-557.17 75.14,-232.59 324.59,-360.19 557.18,-285.08 232.59,75.14 360.22,324.59 285.08,557.17 -75.14,232.63 -324.59,360.23 -557.18,285.08z"/>
  <path class="fil9" d="M20479.32 9727.22c0,0 121.11,-125.73 -93.76,-213.86 -214.85,-88.12 -480.49,-67.91 -650.07,343.86l743.83 -130z"/>
  <path class="fil11" d="M20701.89 8848.77l449.23 194.76c24.98,10.84 34.08,40.47 20.28,66.19l-590.93 1103.87c-13.76,25.69 -45.19,37.79 -70.17,26.92l-449.23 -194.73c-25.01,-10.87 -34.08,-40.5 -20.35,-66.18l590.97 -1103.88c13.79,-25.72 45.23,-37.78 70.2,-26.95z"/>
  <path class="fil12" d="M20658.99 8829.22l449.2 194.77c25.01,10.83 34.11,40.46 20.32,66.18l-590.98 1103.84c-13.72,25.72 -45.15,37.79 -70.16,26.96l-449.2 -194.77c-25.01,-10.83 -34.11,-40.43 -20.32,-66.18l590.94 -1103.85c13.76,-25.71 45.19,-37.78 70.2,-26.95z"/>
  <polygon class="fil13" points="20608.3,8941.55 21003.02,9112.64 20521.38,10012.3 20126.69,9841.2 "/>
  <polygon class="fil7" points="21003.02,9112.64 20126.69,9841.2 20608.3,8941.55 "/>
  <path class="fil9" d="M20256.58 9476.71c0,0 100.01,19.51 190.29,70.66 39.79,22.51 60.15,68.41 49.14,112.79l0 0c-10.09,40.46 -43.95,70.52 -85.3,75.74l-233.54 29.45c0,0 -121.88,210.05 -281.06,233.61l146.02 -368.76 214.45 -153.49z"/>
  <path class="fil4" d="M17274.07 7751.27c-25.79,-0.17 1656.15,232.73 1933.68,2150.36l-872.77 133.7 -175.94 1447.66 -2434.76 0 -483.38 -2674.72c0,0 539.43,-773.08 1540.97,-1057l492.2 0z"/>
  <line class="fil1 str3" x1="18334.98" y1="10035.33" x2="18410.72" y2= "9198.05" />
  <path class="fil9" d="M17433.91 7778.69l0 -666.08 -780.56 0 0 673.91c-39.93,11.92 -106.46,35.98 -209.69,85.02l608.76 362.65 622.4 -362.65c0,0 -98.81,-57.47 -240.91,-92.85z"/>
  <path class="fil3" d="M16646.12 7193.96c0,0 140.16,372.25 514.39,340.11 343.96,-29.53 289.2,-545.4 289.2,-545.4l-803.59 205.29z"/>
  <path class="fil10" d="M16305.69 6698.94c-122.34,110.98 -395.92,-309.95 -277.71,-428.13 118.22,-118.15 208.43,67.24 208.43,67.24l52.77 125.66 39.79 170.14 9.46 44.59 -32.74 20.5z"/>
  <path class="fil1 str4" d="M16085.1 6419.93c0,0 92.6,-41.67 174.87,92.57"/>
  <path class="fil10" d="M17752.54 6686.17c112.54,120.93 420.72,-275.35 312.91,-403.09 -107.77,-127.77 -213.32,49.36 -213.32,49.36l-63.22 120.72 -54.08 166.19 -13.19 43.61 30.9 23.21z"/>
  <path class="fil1 str4" d="M17995.92 6426.81c0,0 -88.72,-49.36 -182.1,77.47"/>
  <path class="fil3" d="M16091.1 5869.31c0,557.18 424.81,821.37 948.86,821.37 524.02,0 948.8,-264.19 948.8,-821.37 0,-557.21 -424.78,-936.27 -948.8,-936.27 -524.05,0 -948.86,379.06 -948.86,936.27z"/>
  <path class="fil9" d="M16220.07 5908.05c0,342.05 48.33,637.22 96.56,846.73 47.23,205.11 180.13,348.44 367.98,463.8l34.18 21.03c198.76,122.06 455.51,124.91 657.3,7.26l0 0c203.52,-118.64 346,-275.06 389.85,-495.16 79.77,-400.29 88.48,-843.66 88.48,-843.66 0,0 75.88,-863.46 -805.5,-846.71 -881.45,16.8 -828.85,846.71 -828.85,846.71z"/>
  <path class="fil1 str5" d="M16983.77 6400.84l0 119.49c0,7.05 1.34,13.86 3.84,20.07 9.81,24.41 38,36.12 63.47,29.35l54.78 -14.53"/>
  <path class="fil3" d="M16843.61 5937.5l-438.05 102.66c0,0 19.93,-111.48 199.11,-152.01 179.21,-40.5 238.94,49.35 238.94,49.35z"/>
  <path class="fil3" d="M17232.4 5937.5l422.95 102.66c0,0 -19.23,-111.48 -192.27,-152.01 -173,-40.5 -230.68,49.35 -230.68,49.35z"/>
  <path class="fil3" d="M16751.04 6259.27c0,40.68 -33.06,73.66 -73.84,73.66 -40.81,0 -73.87,-32.98 -73.87,-73.66 0,-40.71 33.06,-73.69 73.87,-73.69 40.78,0 73.84,32.98 73.84,73.69z"/>
  <path class="fil3" d="M17451.41 6259.27c0,40.68 -33.09,73.66 -73.87,73.66 -40.82,0 -73.91,-32.98 -73.91,-73.66 0,-40.71 33.09,-73.69 73.91,-73.69 40.78,0 73.87,32.98 73.87,73.69z"/>
  <path class="fil7" d="M16751.04 6708.82l569.7 0c0,0 -252.48,307.16 -569.7,0z"/>
  <path class="fil1 str6" d="M16960.24 6287.88c0,173.5 -140.62,314.15 -314.12,314.15 -173.49,0 -314.15,-140.65 -314.15,-314.15 0,-173.49 140.66,-314.15 314.15,-314.15 173.5,0 314.12,140.66 314.12,314.15z"/>
  <path class="fil1 str6" d="M17731.97 6287.88c0,173.5 -140.62,314.15 -314.11,314.15 -173.5,0 -314.19,-140.65 -314.19,-314.15 0,-173.49 140.69,-314.15 314.19,-314.15 173.49,0 314.11,140.66 314.11,314.15z"/>
  <path class="fil1 str7" d="M16960.24 6287.88c0,0 74.4,-69.46 143.43,0"/>
  <line class="fil1 str6" x1="16331.97" y1="6287.88" x2="16233.02" y2= "6285.38" />
  <line class="fil1 str6" x1="17731.97" y1="6287.88" x2="17831.53" y2= "6285.38" />
  <path class="fil3" d="M17843.06 6194.33c0,0 -352.39,-476.4 -271.07,-959.03 0,0 261.55,131.62 329.67,471.35 68.12,339.76 -58.6,487.68 -58.6,487.68z"/>
  <path class="fil3" d="M16219.47 6226.6c0,0 409.4,-541.09 328.09,-1023.72 0,0 -283.95,164.04 -352.08,503.77 -68.08,339.76 23.99,519.95 23.99,519.95z"/>
  <path class="fil3" d="M17813.53 5425.38c0,0 -452.5,495.37 -1690.51,410.56 0,0 189.59,-726.9 789.56,-804.34 0,0 692.74,-82.72 900.95,393.78z"/>
  <path class="fil3" d="M18372.86 4846.26c0,326.46 -264.65,591.11 -591.11,591.11 -326.46,0 -591.12,-264.65 -591.12,-591.11 0,-326.43 264.66,-591.08 591.12,-591.08 326.46,0 591.11,264.65 591.11,591.08z"/>
  <path class="fil3" d="M10565.89 11378.64l-1100.95 -146.61 10.06 -127.85 -1287.71 171.45c0,0 -491.24,1317.41 -286.48,4038.5l1243.18 0 173.74 -2209.84 114.47 0 179.4 2209.84 1247.73 0c201.73,-2692.37 -293.44,-3935.49 -293.44,-3935.49z"/>
  <path class="fil3" d="M10478.08 6021.92c-149.01,-175.33 -268.32,-379.8 -369.71,-666.78 -108.86,-308.08 -465.27,-182.85 -465.27,-182.85 0,0 -297.01,-382.09 -743.94,-248.99 -446.94,133.07 -602.23,451.1 -611.33,829.21 -9.14,378.14 -306.53,437.26 -535.55,874.67 -404.32,772.23 276.4,1422.69 1515.49,1242.24l1.66 -12.03c122.03,37.04 271.57,53.23 454.13,42.4 1488.58,-88.4 1344.93,-1183.28 754.52,-1877.87z"/>
  <path class="fil10" d="M9990.76 6594.59c122.34,110.95 395.88,-309.95 277.67,-428.13 -118.18,-118.18 -208.39,67.24 -208.39,67.24l-52.77 125.62 -39.83 170.18 -9.46 44.56 32.78 20.53z"/>
  <path class="fil1 str4" d="M10211.31 6315.54c0,0 -92.6,-41.63 -174.9,92.6"/>
  <path class="fil10" d="M8543.87 6581.82c-112.53,120.93 -420.72,-275.35 -312.91,-403.09 107.81,-127.77 213.33,49.32 213.33,49.32l63.21 120.76 54.08 166.19 13.2 43.6 -30.91 23.22z"/>
  <path class="fil1 str4" d="M8300.49 6322.45c0,0 88.76,-49.35 182.11,77.47"/>
  <path class="fil3" d="M10205.32 5764.92c0,557.18 -424.82,821.41 -948.83,821.41 -524.02,0 -948.84,-264.23 -948.84,-821.41 0,-557.17 424.82,-936.23 948.84,-936.23 524.01,0 948.83,379.06 948.83,936.23z"/>
  <polygon class="fil9" points="8862.54,8019 9643.1,8019 9643.1,7008.25 8862.54,7008.25 "/>
  <path class="fil3" d="M8748.63 6945.21c0,0 217.27,433.64 484.57,501.34 71.4,18.09 147.68,11.88 216.54,-12.49 100.61,-35.7 228.17,-185.71 249.87,-351.65l10.05 -94.83c0,0 -475.65,258.98 -961.03,-42.37z"/>
  <path class="fil9" d="M10076.34 5803.69c0,342.06 -48.29,637.23 -96.55,846.71 -47.24,205.1 -180.13,348.43 -367.99,463.83l-34.18 20.99c-198.76,122.1 -455.51,124.92 -657.3,7.3l0 0c-203.51,-118.64 -346,-275.09 -389.85,-495.16 -79.76,-400.29 -88.48,-843.67 -88.48,-843.67 0,0 -75.88,-863.49 805.54,-846.7 881.41,16.76 828.81,846.7 828.81,846.7z"/>
  <path class="fil1 str8" d="M9197.61 6343.23l0 70.98c0,7.06 1.37,13.83 3.84,20.04 9.81,24.34 38,35.98 63.47,29.24l54.82 -14.46"/>
  <path class="fil3" d="M9381.26 5875.17l468.92 110.98c0,0 -21.31,-120.51 -213.15,-164.32 -191.84,-43.78 -255.77,53.34 -255.77,53.34z"/>
  <path class="fil3" d="M9135.06 5875.17l-474.98 110.98c0,0 21.59,-120.51 215.9,-164.32 194.31,-43.78 259.08,53.34 259.08,53.34z"/>
  <path class="fil3" d="M8964.91 6166.24c0,40.54 -33.09,73.45 -73.87,73.45 -40.81,0 -73.9,-32.91 -73.9,-73.45 0,-40.57 33.09,-73.48 73.9,-73.48 40.78,0 73.87,32.91 73.87,73.48z"/>
  <path class="fil3" d="M9665.25 6166.24c0,40.54 -33.09,73.45 -73.87,73.45 -40.82,0 -73.87,-32.91 -73.87,-73.45 0,-40.57 33.05,-73.48 73.87,-73.48 40.78,0 73.87,32.91 73.87,73.48z"/>
  <path class="fil7" d="M8916.13 6586.33l648.37 0c0,0 -45.76,178.15 -339.76,178.15 -223.91,0 -308.61,-178.15 -308.61,-178.15z"/>
  <path class="fil3" d="M8453.32 6089.97c0,0 352.42,-476.42 271.14,-959.06 0,0 -261.58,131.62 -329.7,471.38 -68.09,339.73 58.56,487.68 58.56,487.68z"/>
  <path class="fil3" d="M10076.94 6074.1c0,0 -409.36,-492.94 -328.05,-975.57 0,0 283.92,164 352.04,503.76 68.12,339.73 -23.99,471.81 -23.99,471.81z"/>
  <path class="fil3" d="M8482.88 5321.02c0,0 404.39,543.49 1642.39,458.69 0,0 -141.43,-775.06 -741.43,-852.46 0,0 -692.75,-82.72 -900.96,393.77z"/>
  <path class="fil9" d="M7354.38 13769.38c-18.03,28.29 1030.39,-4561.59 719.14,-4492.2 -28.4,6.28 -573.55,56.94 -654.58,221.69 -234.85,477.52 -403.3,4235.66 -403.3,4235.66l338.74 34.85z"/>
  <path class="fil9" d="M7015.64 13734.53c0,0 -168.98,784.07 469.83,869.77 42.09,5.68 82.76,-19.19 96.63,-59.34l1.83 -5.33c15.28,-44.27 -6.91,-91.79 -49.71,-110.9 -104.14,-46.58 -265.67,-164.22 -185.56,-431.45 0,0 92.36,-11.33 143.3,160.94 13.13,44.3 62.87,66.56 104.14,45.78l0 0c28.15,-14.21 44.03,-44.51 40.04,-75.81 -15.31,-120.65 -75.99,-411.02 -308.82,-488.95l-311.68 95.29z"/>
  <path class="fil10" d="M7230.59 10601.72c0,0 604.06,850.69 607.27,834.21 3.18,-16.44 211.21,-1194.36 211.21,-1194.36l-732.97 -317.5 -85.51 677.65z"/>
  <path class="fil2" d="M8909 7852.59c25.75,-0.14 -1492.89,27.06 -1770.45,1944.65l872.77 133.74 175.97 1447.66 2434.76 0 483.34 -2674.76c0,0 -343.6,-579.51 -1345.21,-863.42l-851.18 12.13z"/>
  <path class="fil9" d="M8166.72 8084.4c0,0 214.59,284.91 1093.96,284.91 871.22,0 1094,-299.83 1094,-299.83 0,0 -513.57,-286.95 -1109.52,-379.77 0,0 -532.16,94.8 -1078.44,394.69z"/>
  <polygon class="fil3" points="11154.68,14159.33 11155.31,15314.12 13150.15,15314.12 13194.05,14159.33 "/>
  <polygon class="fil3" points="15262.46,14159.33 15261.84,15314.12 13266.99,15314.12 13223.08,14159.33 "/>
  <polygon class="fil3" points="14229.21,15314.12 14229.21,14159.33 12273.05,14159.33 12273.05,15314.12 "/>
  <path class="fil9" d="M16457.67 10821.92c115.1,1271.61 -1.89,2204.77 26.02,4492.21l-1134.2 0 -161.47 -4283.72 1269.65 -208.49z"/>
  <path class="fil10" d="M15327.26 11833.16c0,0 699.28,-64.03 1177.36,-379.38l-12.59 -277.53 -1165.16 158.72 0.39 498.19z"/>
  <path class="fil6" d="M14205.46 7838.3c0,0 2221.09,558.56 2623.51,3377.78 0,0 -1087.05,471.28 -2176.43,268.57l245.07 -942.94 -692.15 -2703.41z"/>
  <path class="fil9" d="M7571.13 9010.55l1653.75 1953.01 -506.06 1425.19c0,0 -1256.95,-1747.56 -1821.75,-3098.31l674.06 -279.89z"/>
  <path class="fil9" d="M7625.49 9081.04c0,0 -580.71,328.08 -728.42,209.4 -258.12,-207.39 -471.45,-966.57 -471.45,-966.57 0,0 1085.96,-409.4 1075.76,-393.42 -10.23,16.02 124.11,1150.59 124.11,1150.59z"/>
  <path class="fil9" d="M7625.49 9081.04c-10.27,-58.46 215.33,-689.16 292.7,-925.66 18.62,-57.04 -20.67,-119.59 -82.62,-131.44l0 0c-40.29,-7.73 -104.14,-2.76 -134.3,55.07l-272.42 465.52 196.64 536.51z"/>
  <path class="fil9" d="M7605.59 8399.22l-187.01 -930.38c-11.11,-61.91 -73.3,-104.56 -135.36,-92.85l0 0c-53.72,10.16 -89.14,58.03 -82.83,111.87l81.53 692.78 323.67 218.58z"/>
  <path class="fil9" d="M7233.69 8056.07l-253.96 -664.38c-20.99,-58.17 -86.47,-90.42 -144.25,-71.05l0 0c-50.13,16.79 -78.28,67.31 -66.39,119.17l188.45 767.71 276.15 -151.45z"/>
  <path class="fil9" d="M6960.78 8251.97l-321.31 -652.81c-29.49,-60.61 -102.87,-88.73 -163.08,-62.52l0 0c-56.59,24.59 -81.64,88.69 -57.4,146.94l256.15 616.3 285.64 -47.91z"/>
  <path class="fil9" d="M6425.62 8323.87l-252.13 -399.95c-20.85,-47.02 -1.59,-99.8 44.1,-120.65l0 0c43.71,-19.96 97.72,-4.26 125.97,36.66l331.58 459.95 -249.52 23.99z"/>
  <path class="fil1 str9" d="M7554.76 8329.34c0,0 -378.64,-39.73 -417.52,464.89"/>
  <path class="fil9" d="M8383.43 11722.14c0,0 311.01,1076.47 930.84,933.35 619.83,-143.09 1585.84,-1466.93 1585.84,-1466.93l-216.21 -2260.38 -1739.66 2141.11 -560.81 652.85z"/>
  <path class="fil10" d="M9483.82 10404.23c0,0 587.34,885.9 1088.35,1198.32l327.94 -413.99 -1265.09 -978.64 -151.2 194.31z"/>
  <path class="fil6" d="M12053.52 7789.45c0,0 -1724.41,388.65 -2643.33,2392.75 0,0 555.24,836.57 1445.3,1208.4l595.91 -730.07 602.12 -2871.08z"/>
  <path class="fil6" d="M12053.52 7783.24c-673.63,345.51 -1097.07,803.73 -1097.07,803.73l132.89 5858.22 4244.87 0 -13.72 -5827.99c0,0 -535.09,-523.63 -1115.03,-778.9 -492.54,-216.81 -1673.11,-300.67 -2151.94,-55.06z"/>
  <path class="fil1 str10" d="M14062.13 10637.81l0 0c-326.07,0 -590.44,-264.34 -590.44,-590.41l0 -590.44 1180.85 0 0 590.44c0,326.07 -264.34,590.41 -590.41,590.41z"/>
  <line class="fil1 str10" x1="15327.26" y1="11506.42" x2="15382.37" y2= "9590.02" />
  <line class="fil1 str10" x1="11021.68" y1="11187.01" x2="10929.96" y2= "9525.82" />
  <path class="fil3" d="M12103.23 5643.53l-176.92 -875.41c-9.95,-71.3 -37.64,-181.33 -3.74,-284.73 56.02,-171.06 262.01,-499.57 614.08,-349.18l76.09 346.6c0,0 -365.62,73.8 -512.27,552.1l2.76 610.62z"/>
  <path class="fil3" d="M12510.72 4314.9c-6.39,115.04 -107.91,618.32 -464.86,801.69 0,0 -312.63,-670.49 464.86,-801.69z"/>
  <path class="fil9" d="M13762.83 7622.05l0 -1486.5 -1370.33 0 0 1486.5 -407.91 185.95c0,0 95.67,616.09 1107.47,629.74 1011.77,13.66 1113.4,-599.44 1113.4,-599.44l-442.63 -216.25z"/>
  <path class="fil3" d="M12536.65 4134.21c0,0 251.49,-663.44 1027.01,-310.73 469.4,213.47 600.85,499.71 656.76,702.49 18.59,67.41 26,173.53 20.96,236.54l-187.61 881.02 -732.33 -1218.91 -708.7 56.19 -76.09 -346.6z"/>
  <path class="fil10" d="M14053.77 5643.53c0,0 92.43,-146.93 282.96,-74.68 190.54,72.28 104.35,535.02 -181.5,594.01 0,0 -102.45,22.36 -182.78,-47.8 0,0 70.28,-341.81 81.32,-471.53z"/>
  <path class="fil1 str10" d="M14298.95 5732.12c0,0 -159.63,-53.27 -272.94,181.78"/>
  <path class="fil10" d="M12103.23 5643.53c0,0 -92.36,-146.93 -282.93,-74.68 -190.54,72.28 -104.35,535.02 181.47,594.01 0,0 102.48,22.36 182.81,-47.8 0,0 -70.28,-341.81 -81.35,-471.53z"/>
  <path class="fil1 str10" d="M11858.12 5732.12c0,0 159.59,-53.27 272.87,181.78"/>
  <path class="fil9" d="M14072.86 5204.4c0.1,278.97 -27.27,862.64 -198.76,1209.04 -161.04,325.26 -427.39,500.27 -776.53,510.71 -349.18,10.41 -609.29,-124.14 -817.74,-546.27 -208.46,-422.14 -198.48,-1168.3 -198.48,-1168.3 0,0 0,-996.56 984.92,-996.56 1037.38,0 1006.59,991.38 1006.59,991.38z"/>
  <path class="fil3" d="M12402.81 6585.91c0,0 114.75,582.29 621.48,649.18 583.22,76.98 738.54,-634.36 738.54,-634.36 0,0 -257.7,322.93 -665.26,323.42 -454.56,0.57 -694.76,-338.24 -694.76,-338.24z"/>
  <path class="fil1 str10" d="M13006.87 5618.13l0 230.65c0,9.91 1.9,19.4 5.36,28.08 13.69,34.18 52.99,50.55 88.55,41.1l76.44 -20.36"/>
  <path class="fil3" d="M12715.97 5508c0,49.53 -40.15,89.67 -89.64,89.67 -49.53,0 -89.68,-40.14 -89.68,-89.67 0,-49.5 40.15,-89.68 89.68,-89.68 49.49,0 89.64,40.18 89.64,89.68z"/>
  <path class="fil3" d="M13556.67 5508c0,49.53 -40.18,89.67 -89.68,89.67 -49.53,0 -89.67,-40.14 -89.67,-89.67 0,-49.5 40.14,-89.68 89.67,-89.68 49.5,0 89.68,40.18 89.68,89.68z"/>
  <path class="fil3" d="M13237.48 5061.91l602.86 155.75c0,0 -27.41,-169.12 -274.04,-230.54 -246.63,-61.45 -328.82,74.79 -328.82,74.79z"/>
  <path class="fil3" d="M12862.86 5061.91l-602.86 155.75c0,0 27.41,-169.12 274,-230.54 246.67,-61.45 328.86,74.79 328.86,74.79z"/>
  <path class="fil1 str10" d="M12742.95 6081.15c0,0 88.94,68.16 322.8,68.16 212.68,0 345.54,-68.16 345.54,-68.16"/>
  <path class="fil1 str11" d="M12983.2 5534.17c0,210.43 -170.61,381.04 -381.04,381.04 -210.4,0 -381,-170.61 -381,-381.04 0,-210.39 170.6,-381 381,-381 210.43,0 381.04,170.61 381.04,381z"/>
  <path class="fil1 str11" d="M13919.19 5534.17c0,210.43 -170.57,381.04 -381,381.04 -210.44,0 -381.04,-170.61 -381.04,-381.04 0,-210.39 170.6,-381 381.04,-381 210.43,0 381,170.61 381,381z"/>
  <path class="fil1 str11" d="M12983.2 5534.17c0,0 90.24,-84.21 173.95,0"/>
  <line class="fil1 str11" x1="12221.16" y1="5534.17" x2="12093.42" y2= "5530.96" />
  <line class="fil1 str11" x1="13919.19" y1="5534.17" x2="14061.81" y2= "5531.88" />
  <path class="fil3" d="M12402.81 4337.69c0,0 182.98,519.82 1008.59,503.87 561.05,-10.83 695.11,395.15 695.11,395.15 0,0 -97.65,-907.59 -123.33,-899.02 -25.65,8.54 -853.69,-220.94 -853.69,-220.94l-726.68 220.94z"/>
  <path class="fil14" d="M13577.2 16420.78c-15.27,15.63 -28.36,32.8 -39.12,51.25l-16.4 -8.5c-2.37,-10.48 -12.32,-17.71 -23.25,-16.44 -11.68,1.38 -20.04,11.96 -18.66,23.65 1.37,11.67 11.95,19.99 23.63,18.61 2.29,-0.27 4.48,-0.88 6.46,-1.83l15.94 8.29c-8.85,19.51 -15.27,40.15 -19.01,61.49l26.35 4.66c8.08,-46.08 29.95,-88.44 63.18,-122.52l-19.12 -18.66z"/>
  <path class="fil14" d="M13770.77 16339.57c-6.03,0 -12.03,0.21 -17.99,0.6l-2.58 -22.08c6.6,-5.29 10.45,-13.72 9.39,-22.77 -1.62,-13.86 -14.22,-23.77 -28.05,-22.14 -13.9,1.61 -23.81,14.18 -22.15,28.04 1.02,9 6.67,16.3 14.25,19.9l2.58 22.01c-25.19,4.13 -49.46,11.75 -72.64,22.79l11.53 24.17c32.92,-15.8 68.48,-23.78 105.66,-23.78 17.53,0 35.03,1.83 52.07,5.58l5.65 -26.14c-18.88,-4.1 -38.28,-6.18 -57.72,-6.18z"/>
  <path class="fil14" d="M14003.68 16429.42c11.71,-1.42 20,-12.03 18.55,-23.7 -1.41,-11.69 -12.03,-19.97 -23.71,-18.52 -10.93,1.33 -18.87,10.68 -18.69,21.44l-14.68 12.8c-14.74,-15.15 -31.4,-28.63 -49.67,-40.17l-14.25 22.6c40,25.23 71.3,60.94 90.45,103.19l24.34 -11.04c-8.85,-19.51 -20,-37.78 -33.23,-54.46l14.18 -12.39c2.19,0.43 4.41,0.57 6.71,0.25z"/>
  <path class="fil14" d="M13751.47 16699.68c-13.65,0.82 -27.34,1.24 -40.81,1.24 -31.08,0 -61.17,-2.12 -87.46,-6.35 -13.75,-2.15 -29.81,-5.43 -44.8,-10.31 36.94,65.7 108.27,110.24 190.08,110.24 100.75,0 185.63,-67.59 209.9,-158.84 -24.06,15.87 -53.13,29.13 -86.71,39.62 -41.63,12.98 -90.14,21.4 -140.2,24.4z"/>
  <path class="fil14" d="M13861.72 16590.85c-26.46,0 -47.98,-21.52 -47.98,-47.97 0,-26.46 21.52,-48.01 47.98,-48.01 26.46,0 47.98,21.55 47.98,48.01 0,26.45 -21.52,47.97 -47.98,47.97zm-167.11 32.04c-35.99,0 -65.27,-29.29 -65.27,-65.23 0,-36.02 29.28,-65.3 65.27,-65.3 35.94,0 65.23,29.28 65.23,65.3 0,35.94 -29.29,65.23 -65.23,65.23zm76.16 -229.83c-118.25,0 -214.45,94.08 -214.45,209.68 0,14.99 1.62,29.96 4.83,44.48 23.74,17.01 95.46,31.41 188.63,25.8 101.6,-6.15 186.87,-33.8 235.37,-76.17 -0.17,-6.84 -0.7,-13.76 -1.58,-20.5 -13.41,-104.49 -104.88,-183.29 -212.8,-183.29z"/>
  <path class="fil14" d="M14335.36 16458.91c-10.41,-4.09 -28.44,-10.9 -48.79,-8.39 -19.44,2.47 -29.78,12.03 -29.78,35.53l0 30.55 78.64 0 0 60.56 -78.64 0 0 192.45 -68.12 0 0 -192.45 -47.27 0 0 -60.56 47.27 0 0 -31.34c0,-59.26 31.58,-98.14 90.6,-98.14 22.68,0 40.81,4.27 56.09,10.83l0 60.96z"/>
  <path class="fil14" d="M14501.23 16576.46c-6.24,-1.06 -12.59,-1.63 -18.55,-1.63 -31.61,0 -53.27,19.34 -53.27,56.9l0 137.88 -68.16 0 0 -253.01 66.08 0 0 27.68c15.91,-23.74 40.21,-34.46 71.29,-34.46 14.61,0 29.88,4.48 38.6,11.89l-35.99 54.75z"/>
  <path class="fil14" d="M14591.3 16619.25l112.04 0c-6.28,-32.39 -25.89,-50.69 -55.1,-50.69 -32.14,0 -50.91,19.32 -56.94,50.69zm180.44 23.49c0,7.8 -0.56,17.23 -1.3,22.98l-179.39 0c7.3,36.54 32.91,52.44 65.02,52.44 21.94,0 45.68,-8.89 63.96,-24.26l39.93 43.85c-28.72,26.38 -65.26,38.41 -107.84,38.41 -77.54,0 -131.31,-52.78 -131.31,-132.4 0,-79.65 52.21,-133.94 127.95,-133.94 72.82,0 122.7,54.05 122.98,132.92z"/>
  <path class="fil14" d="M14861.28 16619.25l112.04 0c-6.28,-32.39 -25.89,-50.69 -55.1,-50.69 -32.14,0 -50.91,19.32 -56.94,50.69zm180.44 23.49c0,7.8 -0.53,17.23 -1.3,22.98l-179.39 0c7.3,36.54 32.92,52.44 65.02,52.44 21.94,0 45.68,-8.89 63.96,-24.26l39.93 43.85c-28.68,26.38 -65.23,38.41 -107.81,38.41 -77.57,0 -131.34,-52.78 -131.34,-132.4 0,-79.65 52.21,-133.94 127.96,-133.94 72.81,0 122.69,54.05 122.97,132.92z"/>
  <path class="fil14" d="M15135.85 16642.99c0,39.94 26.38,69.72 65.01,69.72 40.25,0 65.3,-31.09 65.3,-69.72 0,-38.63 -25.05,-69.7 -65.3,-69.7 -38.63,0 -65.01,29.77 -65.01,69.7zm200.27 0c0,75.98 -52.74,133.17 -122.45,133.17 -33.94,0 -57.96,-13.34 -74.4,-32.9l0 130.8 -67.91 0 0 -357.46 66.6 0 0 27.93c16.44,-20.6 40.71,-34.71 75.43,-34.71 69.99,0 122.73,57.19 122.73,133.17z"/>
  <path class="fil14" d="M15436.48 16769.61l-68.15 0 0 -253.01 68.15 0 0 253.01zm9.14 -335.78c0,24.56 -19.09,43.33 -43.6,43.33 -24.56,0 -43.33,-18.77 -43.33,-43.33 0,-24.56 18.77,-43.85 43.33,-43.85 24.51,0 43.6,19.29 43.6,43.85z"/>
  <polygon class="fil14" points="15550.18,16606.69 15645.54,16516.6 15729.08,16516.6 15606.34,16635.66 15729.85,16769.61 15646.03,16769.61 15550.18,16667.26 15550.18,16769.61 15482.06,16769.61 15482.06,16393.61 15550.18,16393.61 "/>
  <path class="fil14" d="M10906.96 16699.66l0 -113.18c-13.97,-21.69 -43.92,-40.32 -74.93,-40.32 -50.13,0 -80.12,41.34 -80.12,96.65 0,55.29 29.99,96.11 80.12,96.11 31.01,0 60.96,-17.57 74.93,-39.26zm0 67.66l0 -37.22c-18.63,25.35 -49.11,43.42 -84.25,43.42 -65.12,0 -111.09,-49.6 -111.09,-130.71 0,-79.58 45.48,-131.26 111.09,-131.26 33.62,0 64.07,16.54 84.25,43.92l0 -132.83 38.77 0 0 344.68 -38.77 0z"/>
  <path class="fil14" d="M11118.31 16543.58c-53.24,0 -79.59,44.98 -81.67,83.22l163.83 0c-0.53,-37.22 -25.33,-83.22 -82.16,-83.22zm-122.49 98.71c0,-72.36 51.68,-130.74 122.98,-130.74 75.46,0 119.91,58.92 119.91,133.84l0 9.81 -202.07 0c3.1,47.02 36.19,86.29 89.92,86.29 28.4,0 57.36,-11.39 76.98,-31.5l18.62 25.33c-24.8,24.79 -58.38,38.2 -99.23,38.2 -73.87,0 -127.11,-53.19 -127.11,-131.23z"/>
  <path class="fil14" d="M11266.61 16734.22l20.15 -27.87c16.51,19.12 48.05,35.67 82.12,35.67 38.25,0 58.95,-18.1 58.95,-42.9 0,-60.47 -154.51,-23.25 -154.51,-115.74 0,-38.78 33.58,-71.83 92.99,-71.83 42.37,0 72.35,16.01 92.5,36.16l-18.07 26.88c-14.99,-18.1 -42.4,-31.54 -74.43,-31.54 -34.11,0 -55.28,17.08 -55.28,39.29 0,54.77 154.52,18.61 154.52,115.76 0,41.88 -33.59,75.42 -98.18,75.42 -40.85,0 -75.46,-12.38 -100.76,-39.3z"/>
  <path class="fil14" d="M11515.67 16767.32l0 -249.57 38.74 0 0 249.57 -38.74 0zm-6.73 -311.05c0,-14.5 11.89,-26.39 25.86,-26.39 14.46,0 26.35,11.89 26.35,26.39 0,14.47 -11.89,25.82 -26.35,25.82 -13.97,0 -25.86,-11.35 -25.86,-25.82z"/>
  <path class="fil14" d="M11799.34 16695.52l0 -109.04c-13.44,-21.69 -43.39,-40.32 -74.4,-40.32 -50.13,0 -80.11,39.79 -80.11,95.11 0,54.75 29.98,95.07 80.11,95.07 31.01,0 60.96,-19.13 74.4,-40.82zm-180.83 135.85l19.61 -28.93c20.68,24.81 45.48,34.15 81.14,34.15 41.31,0 80.08,-20.17 80.08,-74.92l0 -35.71c-18.09,25.37 -48.57,44.48 -83.71,44.48 -65.12,0 -111.09,-48.57 -111.09,-129.17 0,-80.12 45.47,-129.72 111.09,-129.72 33.58,0 63.57,16.54 83.71,43.92l0 -37.72 38.77 0 0 242.36c0,82.7 -57.89,108.48 -118.85,108.48 -42.4,0 -71.33,-8.25 -100.75,-37.22z"/>
  <path class="fil14" d="M12071.16 16767.32l0 -163.27c0,-43.92 -22.23,-57.89 -55.81,-57.89 -30.52,0 -59.44,18.63 -73.91,38.76l0 182.4 -38.77 0 0 -249.57 38.77 0 0 36.16c17.57,-20.67 51.68,-42.36 88.87,-42.36 52.21,0 79.58,26.35 79.58,80.6l0 175.17 -38.73 0z"/>
  <path class="fil14" d="M12282.47 16543.58c-53.2,0 -79.55,44.98 -81.63,83.22l163.83 0c-0.53,-37.22 -25.33,-83.22 -82.2,-83.22zm-122.45 98.71c0,-72.36 51.69,-130.74 122.98,-130.74 75.46,0 119.91,58.92 119.91,133.84l0 9.81 -202.07 0c3.1,47.02 36.16,86.29 89.92,86.29 28.4,0 57.36,-11.39 76.98,-31.5l18.63 25.33c-24.8,24.79 -58.42,38.2 -99.24,38.2 -73.87,0 -127.11,-53.19 -127.11,-131.23z"/>
  <path class="fil14" d="M12633.35 16699.66l0 -113.18c-13.94,-21.69 -43.93,-40.32 -74.93,-40.32 -50.13,0 -80.09,41.34 -80.09,96.65 0,55.29 29.96,96.11 80.09,96.11 31,0 60.99,-17.57 74.93,-39.26zm0 67.66l0 -37.22c-18.6,25.35 -49.08,43.42 -84.21,43.42 -65.13,0 -111.13,-49.6 -111.13,-130.71 0,-79.58 45.48,-131.26 111.13,-131.26 33.58,0 64.06,16.54 84.21,43.92l0 -132.83 38.77 0 0 344.68 -38.77 0z"/>
  <path class="fil14" d="M12970.25 16738.92c50.66,0 80.64,-40.82 80.64,-96.11 0,-55.31 -29.98,-96.65 -80.64,-96.65 -30.48,0 -60.96,18.63 -74.4,40.32l0 113.18c13.44,21.69 43.92,39.26 74.4,39.26zm-113.14 28.4l0 -344.68 38.74 0 0 132.83c20.14,-27.38 50.13,-43.92 84.24,-43.92 65.09,0 111.09,51.68 111.09,131.26 0,81.11 -46,130.71 -111.09,130.71 -35.14,0 -65.65,-18.07 -84.24,-43.42l0 37.22 -38.74 0z"/>
  <path class="fil14" d="M13133.55 16829.85c5.68,2.62 14.99,4.18 21.2,4.18 17,0 28.4,-5.72 37.18,-26.39l16.55 -37.72 -104.39 -252.17 41.88 0 83.18 204.61 82.66 -204.61 42.37 0 -125.03 300.22c-14.99,36.16 -40.32,50.12 -73.38,50.62 -8.29,0 -21.2,-1.52 -28.43,-3.63l6.21 -35.11z"/>
 </g>
</svg>
